<svg xmlns="http://www.w3.org/2000/svg" width="318" height="237" fill="none">
  <path fill="#223B41" d="M37.917 211.644c-4.574-47.267 16.824-70.438 29.665-77.129 1.196-.623 2.53-.871 3.88-.871h26.254c1.45 0 2.894.299 4.174.981 25.181 13.438 31.965 52.643 29.527 77.019-1 19-14.5 22.5-26.5 22.5h-40.5c-24.5-1-26.166-16.334-26.5-22.5Z"/>
  <path stroke="#fff" stroke-linecap="round" stroke-width="7" d="M92.71 173.81c-2.105-1.058-5.3-2.047-8.288-2.036m-7.626 28.703c2.165.989 4.916 1.509 7.626 1.14m0-29.843c-3.602.014-6.901 1.482-7.626 6.036-.956 6.006 6.291 8.163 10.61 10.333 5.967 3 5.913 8.624 2.32 11.334-1.616 1.218-3.45 1.887-5.304 2.14m0-29.843v-4.63m0 34.473v4.527"/>
  <rect width="35" height="8" x="66.417" y="122.644" stroke="#223B41" stroke-width="5" rx="4"/>
  <rect width="60" height="12" x="128.71" y="54.144" fill="#223B41" rx="6"/>
  <path stroke="#223B41" stroke-linecap="round" stroke-width="5" d="m69.417 116.644-11-20M99.417 116.644l10.5-20.5M57.917 96.144c3.333.666 10.7.9 13.5-3.5 2.8-4.4 6.5-3.167 8-2l4.5 4M109.917 95.741c-3.333.667-10.7.9-13.5-3.5-2.8-4.4-6.5-3.166-8-2l-4.5 4.403M132.417 51.144l-18.5-35.5M185.917 51.144l18-36M113.917 15.506c5.769 1.149 18.519 1.55 23.365-6.028 4.847-7.577 11.25-5.453 13.847-3.444l7.788 6.889M203.917 14.506c-5.769 1.149-18.519 1.55-23.365-6.028-4.847-7.577-11.25-5.453-13.847-3.444l-7.788 7.582"/>
  <rect width="47.294" height="11.8" x="4.1" y="227.048" stroke="#223B41" stroke-width="5" rx="5.9" transform="rotate(-61.52 4.1 227.048)"/>
  <rect width="47.294" height="11.8" x="208.417" y="188.644" stroke="#223B41" stroke-width="5" rx="5.9"/>
  <rect width="47.294" height="11.8" x="215.417" y="205.644" stroke="#223B41" stroke-width="5" rx="5.9"/>
  <rect width="47.294" height="11.8" x="208.417" y="222.644" stroke="#223B41" stroke-width="5" rx="5.9"/>
  <rect width="47.294" height="11.8" x="259.417" y="222.644" stroke="#223B41" stroke-width="5" rx="5.9"/>
  <rect width="47.294" height="11.8" x="267.417" y="207.644" stroke="#223B41" stroke-width="5" rx="5.9"/>
  <rect width="47.294" height="11.8" x="260.417" y="191.644" stroke="#223B41" stroke-width="5" rx="5.9"/>
  <rect width="47.294" height="11.8" x="251.417" y="174.644" stroke="#223B41" stroke-width="5" rx="5.9"/>
  <rect width="47.294" height="11.8" x="256.417" y="157.644" stroke="#223B41" stroke-width="5" rx="5.9"/>
  <path stroke="#223B41" stroke-linecap="round" stroke-width="5" d="M115.21 88.144c6-7.834 11.207-14.5 21.707-18h45c19.333 10.166 50.793 41 48.793 106.5M130.71 231.144h69.5"/>
  <path stroke="#223B41" stroke-linecap="round" stroke-width="7" d="M171.917 134.143c-3.174-1.587-7.994-3.071-12.5-3.054m-11.5 43.054c3.266 1.485 7.413 2.264 11.5 1.71m0-44.764c-5.431.021-10.407 2.223-11.5 9.054-1.442 9.01 9.488 12.244 15.999 15.5 9.001 4.5 8.919 12.936 3.501 17-2.438 1.828-5.205 2.831-8 3.21m0-44.764v-6.945m0 51.709v6.791"/>
</svg>