<svg xmlns="http://www.w3.org/2000/svg" xml:space="preserve" style="enable-background:new 0 0 500 500" viewBox="0 0 500 500">
  <path style="fill:#605F6D" d="M459.9 120.4c-2.8 0-5.2.8-7 2.5-1.9 1.6-2.8 4.1-2.8 7.4v109.9H259.9V130.3c0-3.3-.8-5.8-2.5-7.4s-4.1-2.5-7.4-2.5c-2.8 0-5.2.8-7 2.5s-2.8 4.1-2.8 7.4v109.9H50V130.3c0-3.3-.8-5.8-2.5-7.4s-4.1-2.5-7.4-2.5c-2.8 0-5.2.8-7 2.5-1.9 1.6-2.8 4.1-2.8 7.4v239.4c0 3.3.9 5.8 2.8 7.4 1.9 1.6 4.2 2.5 7 2.5 3.3 0 5.8-.8 7.4-2.5 1.6-1.6 2.5-4.1 2.5-7.4V259.9h190.1v109.9c0 3.3.9 5.8 2.8 7.4 1.9 1.6 4.2 2.5 7 2.5 3.3 0 5.8-.8 7.4-2.5 1.6-1.6 2.5-4.1 2.5-7.4V259.9h200c3.3 0 5.8-.9 7.4-2.8 1.6-1.9 2.5-4.2 2.5-7V130.3c0-3.3-.8-5.8-2.5-7.4s-4.1-2.5-7.3-2.5zM250 400c-10.8 0-20.2 3.9-28.2 11.6-8 7.7-12 17.3-12 28.5 0 10.8 4 20.1 12 27.8s17.4 11.6 28.2 11.6c11.3 0 20.8-3.9 28.5-11.6s11.6-17 11.6-27.8c0-11.3-3.9-20.8-11.6-28.5-7.7-7.7-17.2-11.6-28.5-11.6zm0 59.9c-5.6 0-10.3-2-14.1-6-3.8-4-5.6-8.6-5.6-13.7 0-5.6 1.9-10.4 5.6-14.4 3.8-4 8.5-6 14.1-6s10.4 2 14.4 6 6 8.8 6 14.4c0 5.2-2 9.7-6 13.7s-8.8 6-14.4 6zM40.1 400c-10.8 0-20.2 3.9-28.2 11.6-8 7.7-12 17.3-12 28.5 0 10.8 4 20.1 12 27.8s17.4 11.6 28.2 11.6c11.3 0 20.8-3.9 28.5-11.6s11.6-17 11.6-27.8c0-11.3-3.9-20.8-11.6-28.5-7.7-7.7-17.2-11.6-28.5-11.6zm0 59.9c-5.6 0-10.3-2-14.1-6s-5.6-8.6-5.6-13.7c0-5.6 1.9-10.4 5.6-14.4s8.5-6 14.1-6 10.4 2 14.4 6 6 8.8 6 14.4c0 5.2-2 9.7-6 13.7s-8.7 6-14.4 6zM459.9 20.4c-10.8 0-20.2 3.9-28.2 11.6s-12 17-12 27.8c0 11.3 4 20.8 12 28.5s17.4 11.6 28.2 11.6c11.3 0 20.8-3.9 28.5-11.6C496.1 80.6 500 71 500 59.8c0-10.8-3.9-20.1-11.6-27.8-7.8-7.7-17.3-11.6-28.5-11.6zm0 59.9c-5.6 0-10.3-2-14.1-6-3.8-4-5.6-8.8-5.6-14.4 0-5.2 1.9-9.7 5.6-13.7 3.8-4 8.5-6 14.1-6s10.4 2 14.4 6 6 8.6 6 13.7c0 5.6-2 10.4-6 14.4s-8.8 6-14.4 6zM250 100c11.3 0 20.8-3.9 28.5-11.6s11.6-17.3 11.6-28.5c0-10.8-3.9-20.1-11.6-27.8S261.3 20.4 250 20.4c-10.8 0-20.2 3.9-28.2 11.6s-12 17-12 27.8c0 11.3 4 20.8 12 28.5S239.2 100 250 100zm0-59.9c5.6 0 10.4 2 14.4 6s6 8.6 6 13.7c0 5.6-2 10.4-6 14.4s-8.8 6-14.4 6-10.3-2-14.1-6c-3.8-4-5.6-8.8-5.6-14.4 0-5.2 1.9-9.7 5.6-13.7 3.8-4 8.5-6 14.1-6zM40.1 100c11.3 0 20.8-3.9 28.5-11.6s11.6-17.3 11.6-28.5c0-10.8-3.9-20.1-11.6-27.8S51.4 20.4 40.1 20.4C29.3 20.4 20 24.3 12 32S0 49.1 0 59.9c0 11.3 4 20.8 12 28.5S29.3 100 40.1 100zm0-59.9c5.6 0 10.4 2 14.4 6s6 8.6 6 13.7c0 5.6-2 10.4-6 14.4s-8.8 6-14.4 6-10.3-2-14.1-6-5.6-8.8-5.6-14.4c0-5.2 1.9-9.7 5.6-13.7s8.5-6 14.1-6z"/>
</svg>