<svg xmlns="http://www.w3.org/2000/svg" viewBox="-133 135 500 500">
  <g fill="#667eea">
    <path d="M264.8 466.9c0 48-40.3 86.2-88.2 82.7-9.9-.7-19.5-4.8-29.3-7.3-2.1-.5-4.7-1.3-6.5-.5C81 567.4 1.7 530.6-19.8 461.1c-6.7-21.6-10-43.8-10.9-66.2-.4-9.5 2.2-18.8 6.5-27.4 6-12 16.6-17 29.1-19.4 18.8-3.5 37.5-7.4 56.2-10.9 1.6-.3 3.6.1 4.9.9 22 13.6 43.9 13.5 65.8 0 1.3-.8 3.4-1.2 4.9-.9 18.1 3.5 36.1 7.6 54.2 10.7 22.3 3.8 33.5 14.8 36.7 37.6.4 3.1.4 6.4 1.1 9.4.5 2.1 1.6 4.7 3.2 6 21.2 16.4 32.9 40 32.9 66zm-82.8-79c-42.6-1-78.4 35-79.4 77.1-1.1 44.8 35.9 80.7 77.8 81.4 44.2.8 80.4-35.9 80.9-78.3.6-44-36.2-81.3-79.3-80.2z"/>
    <path d="M98.7 337.8c-32.6 0-58.6-26.4-58.5-59.4 0-32.3 26.5-58.3 59.2-58.3 32.6 0 58.6 26.4 58.5 59.4-.1 32.3-26.5 58.4-59.2 58.3zM187.3 413.5l13.8 28c.9 1.8 2.6 3 4.5 3.3l30.9 4.5c4.9.7 6.9 6.8 3.3 10.2l-22.3 21.8c-1.4 1.4-2.1 3.4-1.7 5.3l5.3 30.7c.8 4.9-4.3 8.6-8.7 6.3l-27.6-14.5c-1.7-.9-3.8-.9-5.6 0l-27.6 14.5c-4.4 2.3-9.5-1.4-8.7-6.3l5.3-30.7c.3-1.9-.3-3.9-1.7-5.3L124 459.4c-3.6-3.5-1.6-9.5 3.3-10.2l30.9-4.5c2-.3 3.6-1.5 4.5-3.3l13.8-28c2.3-4.4 8.6-4.4 10.8.1z"/>
  </g>
</svg>