<svg xmlns="http://www.w3.org/2000/svg" viewBox="-127 129 512 512">
  <g fill="#1a73e9">
    <path d="M-47 209h16v16h-16v-16zM-15 209H1v16h-16v-16zM17 209h16v16H17v-16zM41 145h208v16H41v-16zM265 145h16v16h-16v-16zM113 441h16v120h-16V441zM49 521h16v40H49v-40zM326.8 458.3c-24.5-24.5-61.4-31.9-93.4-18.8-4.1 1.6-6.2 6.2-4.6 10.4.4 1 1 2 1.8 2.7l45 45-6.4 27.6-27.6 6.4-44.9-45c-3.1-3.1-8.2-3.1-11.3 0-.8.8-1.4 1.7-1.8 2.7-13.2 32.1-5.8 68.9 18.8 93.4a88.02 88.02 0 0089.4 21.5l18.1 18.2 11.3-11.3-21.7-21.7c-2.2-2.2-5.6-3-8.6-1.8-26.6 10.4-56.9 4.1-77.2-16.1-16.8-16.7-23.9-40.9-18.8-64.1l38.6 38.6c1.9 1.9 4.8 2.8 7.4 2.1l36.8-8.5c3-.7 5.3-3 6-6l8.5-36.8c.6-2.7-.2-5.5-2.1-7.5l-38.6-38.6c23.2-5.1 47.3 2 64.1 18.8 20.2 20.2 26.5 50.6 16.1 77.2-1.2 3-.5 6.3 1.8 8.6l21.7 21.7 11.3-11.3-18.1-18.1c10-31.4 1.8-65.9-21.6-89.3zM153 417v-32c0-4.4-3.6-8-8-8h-16v-64h-16v64H97c-4.4 0-8 3.6-8 8v32c0 4.4 3.6 8 8 8h48c4.4 0 8-3.6 8-8zm-16-8h-32v-16h32v16zM-15 401H1v160h-16V401zM25 377v-32c0-4.4-3.6-8-8-8H1v-24h-16v24h-16c-4.4 0-8 3.6-8 8v32c0 4.4 3.6 8 8 8h48c4.4 0 8-3.6 8-8zm-16-8h-32v-16H9v16zM89 497v-32c0-4.4-3.6-8-8-8H65V313H49v144H33c-4.4 0-8 3.6-8 8v32c0 4.4 3.6 8 8 8h48c4.4 0 8-3.6 8-8zm-16-8H41v-16h32v16zM297 289c0-4.4-3.6-8-8-8H185c-4.4 0-8 3.6-8 8v48c0 4.4 3.6 8 8 8h104c4.4 0 8-3.6 8-8v-48zm-16 40h-88v-32h88v32zM177 361h16v16h-16v-16zM209 361h88v16h-88v-16zM177 393h120v16H177v-16zM-15 281H1v16h-16v-16zM49 281h16v16H49v-16zM113 281h16v16h-16v-16z"/>
    <path d="M-79 209v360c0 17.7 14.3 32 32 32h240v-16H-47c-8.8 0-16-7.2-16-16V257h384v184h16V209c0-17.7-14.3-32-32-32H-47c-17.7 0-32 14.3-32 32zm400 0v32H-63v-32c0-8.8 7.2-16 16-16h352c8.8 0 16 7.2 16 16z"/>
  </g>
</svg>