<svg xmlns="http://www.w3.org/2000/svg" viewBox="-127 129 512 512">
  <g fill="#1a73e9">
    <path d="M25.1 508.9h16v112h-16v-112z"/>
    <path d="M307.5 449c13.9-17.2 21.6-38.8 21.6-60.9V262.2c0-40.5-32.8-73.2-73.3-73.3h-27.5c-13.6-20-36.3-32-60.5-32H90.4c-24.2 0-46.8 12-60.5 32H2.4c-40.5 0-73.2 32.8-73.3 73.3V388c0 22.2 7.6 43.7 21.6 60.9-36.6 11.6-61.5 45.6-61.6 84v88h16v-88c.1-35.9 26.5-66.3 62-71.3 4.4-.6 7.4-4.6 6.8-9-.3-1.9-1.2-3.6-2.5-4.8-16.8-15.3-26.4-37-26.3-59.7V262.2c0-31.6 25.7-57.2 57.3-57.3h19.3c-3 8.1-4.6 16.6-4.6 25.3v54.7c-17.7 0-32 14.3-32 32s14.3 32 32 32v7.1c0 22.2 7.7 43.7 21.7 61-36.6 11.6-61.6 45.5-61.7 83.9v120h16v-120c.1-34.6 24.8-64.3 58.8-70.7 4.3 3.6 8.9 6.9 13.8 9.7l15.8 47.5c1.4 4.2 5.9 6.5 10.1 5.1 1.2-.4 2.3-1.1 3.1-1.9l6.8-6.8 3.4 10.1-7.8 86.3c-.2 2.4.6 4.7 2.3 6.4l24 24c3.1 3.1 8.2 3.1 11.3 0l24-24c1.7-1.7 2.5-4 2.3-6.4l-7.8-86.3 3.4-10.1 6.8 6.8c3.1 3.1 8.2 3.1 11.3 0 .9-.9 1.5-2 1.9-3.1l15.8-47.5c4.9-2.8 9.5-6.1 13.8-9.7 34 6.4 58.7 36.1 58.8 70.7v120h16V500.9c-.1-38.4-25.1-72.3-61.7-83.9 14-17.2 21.6-38.8 21.7-61v-7.1c17.7 0 32-14.3 32-32s-14.3-32-32-32v-54.7c0-8.6-1.6-17.2-4.6-25.3h19.3c31.6 0 57.2 25.7 57.3 57.3V388c0 19.3-6.9 38-19.5 52.6-2.1 2.5-4.4 4.9-6.9 7.1-3.3 3-3.5 8-.5 11.3 1.3 1.4 3 2.3 4.8 2.5 35.5 5.1 62 35.4 62.1 71.3v88h16v-88c0-38.3-25-72.2-61.5-83.8zM90.4 172.9h77.4c31.6 0 57.2 25.7 57.3 57.3v30.7h-32c-22.1 0-40-17.9-40-40 0-4.4-3.6-8-8-8s-8 3.6-8 8v40c-22.1 0-40-17.9-40-40 0-4.4-3.6-8-8-8s-8 3.6-8 8c0 22.1-17.9 40-40 40h-8v-30.7c0-31.6 25.7-57.3 57.3-57.3zm-89.3 144c0-8.8 7.2-16 16-16v32c-8.8 0-16-7.2-16-16zm91.5 153.2l-7.2-21.6c8 2.5 16.3 3.9 24.6 4.2l-10.6 10.6-6.8 6.8zm21.7 1l14.8-14.8 14.8 14.8-4.6 13.8h-20.5l-4.5-13.8zm14.8 122.6L113.4 578l7-77h17.4l7 77-15.7 15.7zm36.5-123.6l-6.8-6.8-10.6-10.6c8.3-.3 16.6-1.7 24.6-4.2l-7.2 21.6zM225.1 356c0 44.7-36.2 80.9-80.9 80.9H114c-44.7 0-80.9-36.2-80.9-80.9v-79.1h8c15.9 0 31.1-6.8 41.7-18.7 2.4-2.6 4.5-5.5 6.3-8.5 10.1 16.9 28.3 27.2 48 27.2h8c4.4 0 8-3.6 8-8v-8.8c10.5 10.8 24.9 16.8 40 16.8h32V356zm31.9-39.1c0 8.8-7.2 16-16 16v-32c8.9 0 16 7.2 16 16z"/>
    <path d="M185.1 292.9h-40c-8.8 0-16 7.2-16 16v32h-8c-4.4 0-8 3.6-8 8s3.6 8 8 8h8c8.8 0 16-7.2 16-16v-32h40c4.4 0 8-3.6 8-8s-3.7-8-8-8zm-80 0h-32c-4.4 0-8 3.6-8 8s3.6 8 8 8h32c4.4 0 8-3.6 8-8s-3.6-8-8-8zm32 112h-16c-4.4 0-8 3.6-8 8s3.6 8 8 8h16c4.4 0 8-3.6 8-8s-3.7-8-8-8z"/>
    <circle cx="89.1" cy="324.9" r="8"/>
    <circle cx="169.1" cy="324.9" r="8"/>
    <path d="M217.1 508.9h16v112h-16v-112zm-320-248h16v104h-16v-104zm447.9 80h16v104h-16v-104z"/>
  </g>
</svg>