<svg xmlns="http://www.w3.org/2000/svg" viewBox="-127 129 512 512">
  <g fill="#1a73e9">
    <path d="M337 385c0-4.4-3.6-8-8-8h-56v-40c0-17.7-14.3-32-32-32h-16v-80c0-4.4-3.6-8-8-8h-56c.1-35.3-28.5-63.9-63.8-64-11.3 0-22.4 3-32.2 8.7-30.5-17.7-69.6-7.4-87.3 23.1-5.7 9.8-8.7 20.9-8.7 32.2h-40c-4.4 0-8 3.6-8 8v376h-32v16h480v-16h-32V385zM49 441H33v-48h16v48zm-16 16h16v144H33V457zm32 2.1l104 24.8V497h-16v16h16v24c0 4.4 3.6 8 8 8h32c4.4 0 8-3.6 8-8v-24h16v-16h-16v-13l104-24.8V601H65V459.1zM201 497h-16v-32h16v32zm-16 16h16v16h-16v-16zm136-70.3l-104 24.8V457c0-4.4-3.6-8-8-8h-32c-4.4 0-8 3.6-8 8v10.5L65 442.7V393h256v49.7zM225 377h-96v-24h96v24zm32-40v40h-16v-32c0-4.4-3.6-8-8-8H121c-4.4 0-8 3.6-8 8v32H97v-40c0-8.8 7.2-16 16-16h128c8.8 0 16 7.2 16 16zm-48-104v72h-96c-17.7 0-32 14.3-32 32v40H25c-4.4 0-8 3.6-8 8v216h-32V233h48v24h16v-24h96v24h16v-24h48zM65 181.3c10.2 9.1 16 22.1 16 35.7H49c0-13.6 5.8-26.6 16-35.7zm80 35.7H97c0-16.6-6.5-32.5-18.1-44.4 24.5-10 52.5 1.8 62.5 26.3 2.4 5.7 3.6 11.9 3.6 18.1zM33 169c6.2 0 12.3 1.2 18.1 3.6C39.5 184.5 33 200.4 33 217h-48c0-26.5 21.5-48 48-48zm-96 64h32v368h-32V233z"/>
    <path d="M353 425h16v96h-16zM-111 265h16v176h-16zM-111 457h16v16h-16z"/>
  </g>
</svg>