<svg xmlns="http://www.w3.org/2000/svg" viewBox="-127 129 512 512">
  <g fill="#1a73e9">
    <path d="M49 410.2V401H33v9.2c-12 3.7-18.7 16.5-15 28.5 1.8 5.9 6 10.8 11.6 13.6l15.6 7.8c3.4 1.7 4.7 5.8 3.1 9.2-1.2 2.3-3.5 3.8-6.1 3.8h-2.3c-3.8 0-6.8-3.1-6.8-6.8V465H17v1.2c0 9.9 6.5 18.7 16 21.7v9.2h16v-9.2c12-3.7 18.7-16.5 15-28.5-1.8-5.9-6-10.8-11.6-13.6L36.8 438c-3.4-1.7-4.7-5.8-3.1-9.2 1.2-2.3 3.5-3.8 6.1-3.8h2.3c3.8 0 6.8 3.1 6.8 6.8v1.2h16v-1.2c.1-9.9-6.4-18.7-15.9-21.6z"/>
    <path d="M121 449c0-44.2-35.8-80-80-80s-80 35.8-80 80 35.8 80 80 80 80-35.8 80-80zm-80 64c-35.3 0-64-28.7-64-64s28.7-64 64-64 64 28.7 64 64-28.7 64-64 64z"/>
    <path d="M337 457c0-4.4-3.6-8-8-8h-24v-46.6c0-33.6-16.3-65.1-43.6-84.6l-12.4-8.9V281c0-4.4-3.6-8-8-8h-5.8l8.9-35.6c3.1-12.3-4.4-24.7-16.7-27.7-1.8-.5-3.7-.7-5.5-.7-4.9 0-9.8 1.6-13.7 4.6L185 231l-23.2-17.4c-4-3-8.8-4.6-13.8-4.6-12.6 0-22.9 10.3-22.9 22.9 0 1.9.2 3.7.7 5.5l8.9 35.6H129c-4.3 0-7.8 3.4-7.9 7.7-1.2-1-2.4-2-3.6-2.9l-12.4-8.9V241c0-4.4-3.6-8-8-8h-5.8l8.9-35.6c3.1-12.3-4.4-24.7-16.7-27.7-1.8-.5-3.7-.7-5.5-.7-4.9 0-9.8 1.6-13.7 4.6L41 191l-23.2-17.4c-4-3-8.8-4.6-13.8-4.6-12.6 0-22.9 10.3-22.9 22.9 0 1.9.2 3.7.7 5.5l8.9 35.6H-15c-4.4 0-8 3.6-8 8v27.9l-12.4 8.9c-27.3 19.5-43.5 51-43.6 84.6V553c0 21.8 9.9 42.4 26.8 56H-111v16h472v-16h-24V457zM137 296.1V289h96v16h-89.4c-2-3.1-4.2-6-6.6-8.9zm24 125.6c7.6-3.1 15.8-4.7 24-4.7 22.8.1 43.9 12.2 55.3 32h-36.9c-2.8-3.2-6.4-5.6-10.4-6.9V433h-16v9.1c-4 1.3-7.6 3.7-10.4 6.9H161v-27.3zm40 43.3v16h-56v-16h56zm-56 32h56v16h-56v-16zm0 32h56v16h-56v-16zm0 32h56v16h-56v-16zm72-96h32v144h-32V465zm104 80h-56v-16h56v16zm0-32h-56v-16h56v16zm-56 48h56v16h-56v-16zm56-80h-56v-16h56v16zm-32-78.6V449h-30.7c-16.2-37.6-58.3-56.7-97.3-44.2v-42.4c-.1-14.3-3.1-28.4-8.8-41.4h86.2l13.7 9.8c23.2 16.5 36.9 43.2 36.9 71.6zM141.4 233.5c-.5-2.1-.1-4.2 1.3-5.9 2.4-2.9 6.5-3.4 9.5-1.3l28 21c2.8 2.1 6.8 2.1 9.6 0l28-21c3-2.2 7.2-1.6 9.5 1.3 1.3 1.7 1.8 3.8 1.3 5.9l-9.8 39.5h-67.5l-9.9-39.5zM89 265H-7v-16h96v16zm-91.6-71.5c-.5-2-.1-4.2 1.2-5.9 2.4-2.9 6.6-3.5 9.6-1.3l28 21c2.8 2.1 6.8 2.1 9.6 0l28-21c3-2.2 7.2-1.6 9.6 1.3 1.3 1.7 1.8 3.8 1.3 5.9L74.8 233H7.2l-9.8-39.5zM-7 609c-30.9 0-56-25.1-56-56V362.4c0-28.4 13.7-55.1 36.8-71.6l13.7-9.8H94.4l13.7 9.8c23.1 16.5 36.8 43.2 36.8 71.6V449h-8c-4.4 0-8 3.6-8 8v135.1a55.745 55.745 0 01-40 16.9H-7zm152-16h56v16h-56v-16zm120 16v-16h56v16h-56z"/>
    <path d="M-111 385h16v176h-16zM-111 353h16v16h-16zM337 417v-11.2c.1-36.7-14.2-72-39.7-98.4l-11.5 11.2c22.6 23.4 35.3 54.7 35.2 87.2V417h16z"/>
  </g>
</svg>