<svg xmlns="http://www.w3.org/2000/svg" viewBox="-127 129 512 512">
  <path fill="#1a73e9" d="M361 449h-32v-24c0-4.4-3.6-8-8-8h-16V217c0-4.4-3.6-8-8-8h-24v-24c0-4.4-3.6-8-8-8H17v-4c0-15.5-12.5-28-28-28s-28 12.5-28 28v4h-32c-4.4 0-8 3.6-8 8v400c0 4.4 3.6 8 8 8h24v24c0 4.4 3.6 8 8 8h384c3 0 5.8-1.7 7.2-4.4l16-32c2-4 .4-8.8-3.6-10.7-1.1-.6-2.4-.9-3.6-.8h-36.4c2.9-4.8 4.4-10.4 4.4-16v-18.6l35-14c3-1.2 5-4.2 5-7.4v-64c0-4.5-3.6-8.1-8-8.1zM-23 173c0-6.6 5.4-12 12-12s12 5.4 12 12v4h-24v-4zm-8 420H97v-16H-63V193H1v24c0 4.4-3.6 8-8 8s-8-3.6-8-8v-8h-16v8c0 13.3 10.7 24 24 24s24-10.7 24-24v-24h240v208h16V225h16v192H161c-4.4 0-8 3.6-8 8v136c0 5.6 1.6 11.2 4.4 16H121c-4.4 0-8 3.6-8 8 0 1.2.3 2.5.8 3.6L124 609H-31v-16zm371.1 16H141.9l-8-16H348l-7.9 16zM185 577c-8.8 0-16-7.2-16-16V433h144v128c0 8.8-7.2 16-16 16H185zm168-61.4l-24 9.6V465h24v50.6z"/>
  <path fill="#1a73e9" d="M-20.7 486.7c3.1 3.1 8.2 3.1 11.3 0l16-16c1.5-1.5 2.3-3.5 2.3-5.7V305c0-13.3-10.7-24-24-24s-24 10.7-24 24v160c0 2.1.8 4.2 2.3 5.7l16.1 16zm5.7-17l-8-8V449h16v12.7l-8 8zm0-172.7c4.4 0 8 3.6 8 8v128h-16V305c0-4.4 3.6-8 8-8zM-39 505h16v16h-16v-16zM-7 505h136v16H-7v-16zM-39 537h168v16H-39v-16zM41 377h184c4.4 0 8-3.6 8-8V265c0-4.4-3.6-8-8-8H41c-4.4 0-8 3.6-8 8v104c0 4.4 3.6 8 8 8zm8-104h168v88H49v-88zM33 401h16v16H33v-16zM65 401h64v16H65v-16zM33 433h96v16H33v-16zM33 465h96v16H33v-16zM-111 241h16v280h-16V241zM41 217h16v16H41v-16zM73 217h160v16H73v-16z"/>
  <path fill="#1a73e9" d="M185 329h16v16h-16v-16zM153 329h16v16h-16v-16zM121 329h16v16h-16v-16z"/>
</svg>