<svg xmlns="http://www.w3.org/2000/svg" xml:space="preserve" style="enable-background:new 0 0 500 500" viewBox="0 0 500 500">
  <path style="fill:#83878e" d="M129.9 299.7H70.3c-3.3 0-5.9.9-7.8 2.8-1.9 1.9-2.8 4.3-2.8 7.1 0 3.3.9 5.9 2.8 7.8 1.9 1.9 4.5 2.8 7.8 2.8h59.6c2.8 0 5.2-.9 7.1-2.8 1.9-1.9 2.8-4.5 2.8-7.8 0-2.8-.9-5.2-2.8-7.1-1.9-1.9-4.3-2.8-7.1-2.8zm315-63.9L323.6 76.1c-8.5-11.4-19.2-20.2-31.9-26.6s-26-9.6-39.7-9.6H59.6c-5.2 0-9.8 2-13.8 6s-6 8.6-6 13.8V230c0 8.5 3 15.6 8.9 21.3s13.1 8.5 21.6 8.5h371.1c2.4 0 4.3-.5 5.7-1.4 1.4-.9 2.6-2.1 3.5-3.5.9-1.4 1.4-3.1 1.4-5s-.5-3.5-1.4-5c-.9-1.4-1.9-3-2.8-4.6-1-1.5-1.9-3.1-2.9-4.5zm-374.6 4.3c-3.3 0-5.9-.9-7.8-2.8-1.9-1.9-2.8-4.3-2.8-7.1V59.8H252c10.9 0 21.3 2.5 31.2 7.5s18.2 11.9 24.8 20.9l115 151.9H70.3zm406.6-28.4L355.5 52c-12.3-16.6-27.7-29.3-46.1-38.3C290.9 4.7 271.3.2 250.5.2H49.7C36 .2 24.2 5.1 14.5 14.8S0 36.2 0 49.9v400.2c0 13.7 4.8 25.4 14.5 35.1 9.7 9.7 21.4 14.5 35.1 14.5h352.7c11.4 0 21.5-3.2 30.5-9.6 9-6.4 14.9-15.3 17.7-26.6l44-144.8c5.7-18 6.9-36.4 3.5-55.4-3.1-18.7-10.2-36-21.1-51.6zm-2.1 102.2-44 144.8c-1.9 6.6-5.6 11.9-11 16s-11.5 5.8-18.1 5.3h-352c-8.5 0-15.6-2.8-21.3-8.5-5.7-5.7-8.5-12.8-8.5-21.3V49.9c0-8.5 2.8-15.6 8.5-21.3s12.8-8.5 21.3-8.5h202.2c17.5 0 33.9 3.9 49.3 11.7s28.3 18.6 38.7 32.3l120.6 161.1c9.5 12.3 15.4 26.3 17.7 41.9 2.5 15.5 1.3 31.2-3.4 46.8z"/>
</svg>