<svg xmlns="http://www.w3.org/2000/svg" width="1299" height="810" fill="none">
  <path stroke="#223B41" stroke-linecap="round" stroke-width="5" d="m1085.6 630-56.53-20.669a1.996 1.996 0 0 1-1.31-1.879v-54.197a1.999 1.999 0 0 1 2.49-1.94l.14.036M1085.6 630v-57.5m0 57.5 35.65-39.746c.33-.367.51-.843.51-1.336v-51.447M1085.6 572.5l-55.21-21.149m55.21 21.149 36.16-35.029m-91.37 13.88 35.21-35.407a2.012 2.012 0 0 1 2.18-.442l53.98 21.969M1190.76 585.158v46.35c0 .482.17.948.49 1.312l26.23 30.18m-26.72-77.842 26.72 26.165m-26.72-26.165 47.13-8.948c.68-.13 1.39.107 1.85.626l24.02 26.638M1217.48 663v-51.677m0 51.677 44.65-8.533a1.997 1.997 0 0 0 1.63-1.964v-49.029m-46.28 7.849 46.28-7.849"/>
  <path stroke="#223B41" stroke-width="5" d="M1197.76 485.591v41.387L1235.93 548m-38.17-62.409 38.17 21.022m-38.17-21.022L1235.93 458l38.83 21.679M1235.93 548v-41.387m0 41.387 38.83-26.277v-42.044m-38.83 26.934 38.83-26.934"/>
  <path stroke="#223B41" stroke-linecap="round" stroke-width="5" d="M1236.26 460v26.429m0 0L1220.76 497m15.5-10.571 15.5 8.589"/>
  <path stroke="#223B41" stroke-width="5" d="m1256.52 425-21.76 33.393L1273 480l21.76-33.393L1256.52 425Z"/>
  <path stroke="#223B41" stroke-linecap="round" stroke-width="5" d="m1197.76 420 8 18M1169.76 430l26 22M1168.76 459l16 9"/>
  <path fill="#223B41" d="M279.176 147.717c-2.627-44.739-25.181-65.135-36.129-69.74 35.209 13.5 65.47-3.148 76.2-13.159l6.569 19.08c22.597-1.052 23.429-32.019 21.02-47.37-3.716-23.686-34.29-49.082-84.739-29.607-50.449 19.474-72.696 66.889-77.513 88.162-38.888-4.737-74.886 29.168-88.024 46.713-13.576 18.203-34.29 67.898-8.54 121.059 32.188 66.45 126.524 30.193 139.262 21.053 44.011-31.58 55.179-80.267 51.894-136.191Z"/>
  <path stroke="#223B41" stroke-width="5" d="M349.259 129c0 7.643-1.821 14.44-4.636 19.242-2.85 4.861-6.422 7.258-9.864 7.258-3.442 0-7.015-2.397-9.864-7.258-2.815-4.802-4.636-11.599-4.636-19.242 0-7.643 1.821-14.44 4.636-19.242 2.849-4.861 6.422-7.258 9.864-7.258 3.442 0 7.014 2.397 9.864 7.258 2.815 4.802 4.636 11.599 4.636 19.242Z"/>
  <ellipse cx="336.259" cy="129.5" fill="#223B41" rx="2.5" ry="4.5"/>
  <path stroke="#223B41" stroke-linecap="round" stroke-width="5" d="m278.759 144 42-10M330.18 84c4.577 6.575 17.276 20.543 29.422 27.615 12.423 7.232 15.038 18.409 9.154 27.614l-9.154 14.465c6.538 10.082 16.869 35.373 5.884 55.887m-45.114 83.502c-.871-8.11 2.485-27.352 22.884-39.45M249.759 299v-33.532"/>
  <circle cx="302.259" cy="181.5" r="2.5" fill="#223B41"/>
  <ellipse cx="296.759" cy="205.5" fill="#223B41" rx="3" ry="2.5"/>
  <path stroke="#223B41" stroke-linecap="round" stroke-width="5" d="M326.759 217c1.522 3.683 6.652 11.44 15 13"/>
  <ellipse cx="317.759" cy="198.5" fill="#223B41" rx="3" ry="2.5"/>
  <path stroke="#223B41" stroke-linecap="round" stroke-width="5" d="m369.711 281.723 9.181-2.628c3.717-1.533 10.755-2.103 9.182 7.885-1.574 9.988-29.336 11.17-30.823 0-.544-4.09-.433-10.014 1.345-15.77m20.296-17.742c-11.969 1.845-17.789 9.627-20.296 17.742m0 0c-5.312-2.278-11.723-7.842-7.985-15.77m11.886-11.828c-6.595 4.352-10.233 8.321-11.886 11.828m0 0c-5.875-3.286-11.197-13.405 14.509-27.598m15.739 1.971c-9.836-.657-30.428-4.337-34.101-13.799-3.672-9.462 8.089-10.513 14.428-9.856 8.088 1.314 27.936 7.491 42.626 21.684 18.362 17.741 59.677 63.738 79.35 105.134 15.739 33.118 42.408 76.88 53.775 94.621 22.515 35.045 58.365 107.763-36.068 110.392-24.264.675-59.677-28.65-96.401-51.254M149.74 651.233c.437 16.999-6.684 52.19-38.662 56.958-31.978 4.769-71.864 5.078-87.809 4.637-10.266.883-28.047-1.193-17.038-16.558 11.01-15.366 28.615-17.882 36.041-17.22 19.877 1.325 59.501-5.431 58.976-43.05M765.759 659c6.807-1.097 24.243-8.691 31.622-25.019 9.223-20.411 28.328-28.97 34.916-21.07 5.27 6.321 3.074 10.535 2.635 11.852"/>
  <path fill="#223B41" d="M582.95 645.183c-77.935-5.23-109.267-29.634-115.191-41.183 12.506 118.319 329.118 90.863 321.878 77.136-5.793-10.982-14.262-18.521-17.773-20.918-53.975-33.992-91.495-8.498-188.914-15.035Z"/>
  <path fill="#223B41" d="M312.522 793.788c-92.908-14.633-123.386-69.102-119.427-95.523 22.435 65.714 168.924 73.167 230.283 26.421 45.188-34.426 46.41-101.62 43.551-126.686 11.877 36.583 37.78 45.453 74.564 62.327 31.014 14.227 153.527 11.743 213.135 6.775 29.693-2.475 57.227 19.063 39.591 77.908-26.394 88.071-365.562 67.07-481.697 48.778Z"/>
  <path stroke="#223B41" stroke-linecap="round" stroke-width="5" d="M388.404 281c6.131 13.138 18.525 48.347 19.05 84.081l-45.982-55.835c-8.102-9.196-30.086-24.83-53.209-13.795l-62.405 6.569C196.81 374.715 97.4 529.959 92.145 569.372c-5.255 39.413 5.693 61.09 11.824 67.002 11.605 11.167 41.516 26.801 68.317 0 5.328-5.327 9.723-10.38 13.332-15.108m14.258-41.384c-2.628 11.824.287 22.329-14.258 41.384m0 0c-5.758 38.537 3.747 118.108 87.83 128.092 84.083 9.985 135.32-10.729 150.429-22.334 17.298-14.67 50.581-60.039 45.326-124.151l-28.247-90.65"/>
  <path stroke="#223B41" stroke-width="5" d="M810.069 664.182c-3.666 19.909-10.255 26.851-15.055 28.815 7.855 37.329-7.2 66.799-22.255 74.003 10.909-1.31 36.786-6.156 53.019-15.062 16.234-8.907 23.347-25.978 24.874-33.4 3.273-18.119 9.426-59.726 7.855-81.207-1.571-21.48-15.492-17.245-22.256-12.442-7.2 4.802-22.517 19.384-26.182 39.293Z"/>
</svg>