<svg xmlns="http://www.w3.org/2000/svg" xml:space="preserve" style="enable-background:new 0 0 500 500" viewBox="0 0 500 500">
  <path style="fill:#83878e" d="m474.6 61.9-96.7-1.2c-14.5 0-28.7 2.9-42.6 8.8-13.9 5.8-26.1 14-36.6 24.5l-30.2 29.6-8.5-9.1c-6.9-7.3-15.2-11.7-25.1-13.3-9.9-1.6-19-.2-27.5 4.2L82.3 171.3c-5.2 2.4-9.7 5.9-13.3 10.6-3.6 4.6-6.4 9.8-8.5 15.4L1.9 381.7c-2 6.9-2.4 13.7-1.2 20.6 1.2 6.9 4 13.1 8.5 18.7 7.3 10.1 16.8 16 28.7 17.8s22.7-.9 32.3-8.2c4-2.4 7.4-5.6 10-9.7s4.7-8.3 6.3-12.7l29.6-91.3c1.6-5.6 4.7-10.3 9.4-13.9 4.6-3.6 10-5.4 16-5.4h12.1c-8.1 14.1-14.3 29.1-18.7 45-4.4 15.9-6.4 31.9-6 48.1 0 2.8.8 5 2.4 6.6 1.6 1.6 3.6 2.4 6 2.4 2.8 0 4.9-.8 6.3-2.4 1.4-1.6 2.1-3.8 2.1-6.6 0-16.1 2.4-32.1 7.3-48.1 4.8-15.9 12.1-30.9 21.8-45h45.3c6 0 11.8-1.2 17.2-3.6 5.4-2.4 10.4-5.6 14.8-9.7l56.2-58.6c8.1-8.9 12.1-19.1 12.1-30.8s-4-22-12.1-30.8l-3.6-3 30.8-31.4c5.6-5.6 12.2-9.9 19.6-12.7 7.5-2.8 15.2-4.2 23.3-4.2h96.1c7.3 0 13.3-2.5 18.1-7.6 4.8-5 7.3-11.2 7.3-18.4s-2.4-13.2-7.3-17.8c-4.7-4.8-10.7-7.1-18-7.1zM294.5 214.2l-56.2 58.6c-2.4 2.4-5.3 4.4-8.8 6-3.4 1.6-7.2 2.4-11.2 2.4h-78c-9.7 0-18.4 2.9-26.3 8.8-7.9 5.8-13.2 13.4-16 22.7L68.4 404c-2 7.3-6.4 12.6-13.3 16-6.9 3.4-13.9 3.7-21.2.9-7.3-2-12.6-6.4-16-13.3-3.4-6.9-3.7-13.9-.9-21.2L75.6 202c.8-3.2 2.3-6.2 4.5-9.1 2.2-2.8 4.9-5 8.2-6.6L215.2 121c4.8-2.8 10.4-3.7 16.6-2.7s11.2 3.7 14.8 8.2l47.8 49.6c5.2 5.6 7.9 12.1 7.9 19.3 0 7.3-2.6 13.6-7.8 18.8zM474.6 95.1h-96.7c-10.5 0-20.5 1.9-29.9 5.7s-17.8 9.4-25.1 16.6l-31.4 31.4-12.1-12.1 30.2-31.4c9.3-8.9 19.7-15.6 31.4-20.3 11.7-4.6 23.8-7 36.3-7h97.3c2.4 0 4.4.8 6 2.4 1.6 1.6 2.4 3.6 2.4 6 0 2.8-.8 4.9-2.4 6.3-1.6 1.7-3.6 2.4-6 2.4z"/>
</svg>