<svg xmlns="http://www.w3.org/2000/svg" width="726" height="784" fill="none">
  <path stroke="#223B41" stroke-linecap="round" stroke-width="5" d="M420.995 114.192c-1.628-5.786-2.442-16.566 7.326-13.391m0 0 10.745 21.823m-10.745-21.823c-.814-6.448 3.419-16.864 13.676-8.432l4.884 12.151m4.884 12.152-4.884-12.152m0 0c0-10.498 2.442-28.023 15.141-12.151 7.814 11.407 10.745 34.124 4.884 45.631M324 108.5c15.833 12.667 40.7 40.5 13.5 50.5 5.333 16 6.5 54.3-31.5 79.5l-7.5 24m-39-48c-1.833 6-3.2 25.5 4 41.5m-9 4.5c15.667-5.667 45.5-12.6 45.5 7v5c27-22.5 84.7-72.8 99.5-94"/>
  <path stroke="#223B41" stroke-linecap="round" stroke-width="5" d="M309.5 198.5c-.5 3 .8 9.2 10 10M336.5 137c0 5.604-1.656 10.576-4.208 14.086-2.554 3.512-5.871 5.414-9.292 5.414-3.421 0-6.738-1.902-9.292-5.414-2.552-3.51-4.208-8.482-4.208-14.086 0-5.604 1.656-10.576 4.208-14.086 2.554-3.512 5.871-5.414 9.292-5.414 3.421 0 6.738 1.902 9.292 5.414 2.552 3.51 4.208 8.482 4.208 14.086ZM278 152l31-10M301.5 131.5c.833-3.333 3.9-11 9.5-15"/>
  <circle cx="324.5" cy="136.5" r="3.5" fill="#223B41"/>
  <path stroke="#223B41" stroke-linecap="round" stroke-width="5" d="M254.753 260.266 138.725 396.407m0 0c-1.681 5.005-3.35 16.678 10.775 31.093m-10.775-31.093c8.576-1.168 30.874-.601 51.456 11.011 25.728 14.515 52.969 40.042 120.568 62.565m0 0L288.048 486m22.701-16.017c-1.85-19.854-3.329-63.666 5.549-80.083 8.879-16.417 19.17-42.21 23.206-53.055 18.833-14.348 63.765-61.464 92.822-135.14M395 184c-2.5 0-7.8-2.4-9-12-1.2-9.6-5.5-15.667-7.5-17.5-1.167-2.833-2.4-8.7 2-9.5 2.591-.471 5.655 2.039 8.214 5m4.286 6a42.3 42.3 0 0 0-4.286-6m0 0c-.405-4.5-2.114-14.9-5.714-20.5-4.5-7-5-25 4.5-23M395 137c.333-4.667 0-15.3-4-20.5-5-6.5-6-19 4-18 3.174.317 5.194 2.955 6.434 6.5M403 122.5c.402-4.624.319-12.111-1.566-17.5m0 0c3.189-1.833 9.766-2.5 10.566 9.5"/>
  <path stroke="#223B41" stroke-linecap="round" stroke-width="5" d="M418 139.5c1.167-2.167 2.3-7.7-2.5-12.5-6-6-4.5-11.5-1-13s8.5-.5 13.5 14.5c5 13 12.4 46 4 74M222 297.5c-18.667 15.5-66 48.2-106 55-9.333 3.833-25.4 14.6-15 27 10.4 12.4 17.333 27.5 19.5 33.5 1.667 5.5 7.5 12.1 17.5-5.5"/>
  <path stroke="#223B41" stroke-linecap="round" stroke-width="5" d="M108 388c-7.833 4.5-26.1 13.1-36.5 11.5-10.4-1.6-17.333 2.667-19.5 5-1.167 1.833-1.9 5.6 4.5 6 6.4.4 14 .167 17 0m8.5-6c-3.5 3.667-15.4 12-35 16-3.833.667-9 4.5-2 9 6 3.5 22.6.3 31-4.5-6.5 3.167-18.2 11.6-13 20 1.667 1.667 8.7 1.8 23.5-11m0 0 11-9m-11 9c-3.167 8.167-8 28 5 17 9.5-9.5 7.5-17.6 11.5-20 4-2.4 13-11.667 17-16m-22.5-6.5c-1.167 4.333-2.1 14.4 3.5 20M165.5 399c-6.333 18-36 55-62.5 101.5-17.667 29.167-59.8 94.3-87 121.5-3.667 5.167-7.1 16.9 8.5 22.5 12 5 17.4 16.6 19 29 2 15.5 27.5 27 44.5 15.5 13.55-9.166 52.512-75.192 81.946-112.5M190 555c-5.682 4.363-12.559 12.001-20.054 21.5m0 0L136.5 751m0 0c3.464 5.333 15.004 15.4 33.446 13M136.5 751c17-4.5 63.7-13 92.5-13"/>
  <path stroke="#223B41" stroke-linecap="round" stroke-width="5" d="M218 745c6.333-1.667 19.1-10.1 19.5-30.5.4-20.4 8.833-55.5 13-70.5l41-180"/>
  <circle cx="305.5" cy="168.5" r="1.5" fill="#223B41"/>
  <circle cx="311.5" cy="176.5" r="1.5" fill="#223B41"/>
  <circle cx="296.5" cy="179.5" r="1.5" fill="#223B41"/>
  <path stroke="#223B41" stroke-linecap="round" stroke-width="5" d="M452 153.5c-2.667 5.833-5.5 19.1 4.5 25.5m8-34c2.333-6.667 9.4-19.9 19-19.5 9.6.4 2 13 0 17.5l-14 27.5c-3 7.5-7.5 21 3 36.5 10.5 14 50.1 57.7 106.5 42.5M520 454.5l39.5 11.5m-2 20c4.333-14.167 9.9-49.3-2.5-76.5-15.5-34-25-77.5-17.5-106.5 6-23.2 27.833-26.667 38-25.5 16 1.836 43.6 21 42 73-2 65-17 120.5-38.5 163.5m-28-42c3 10.667 14 35.4 34 49"/>
  <path fill="#223B41" d="M541.5 509.5c0-25.5-.167-43.5-3-50.5 38.4 14.4 85 10.667 103.5 7 .5 1.167 4.6 12.3 17 47.5 15.5 44 4.5 191 0 207.5s-16.5 17-34 15c-14-1.6-32.5-40-40-59-35-65.5-43.5-137.579-43.5-167.5Z"/>
  <path stroke="#223B41" stroke-linecap="round" stroke-width="5" d="M616 228c-3.667 4.667-15 13.8-31 13M654 730c-6.8 5.6-19.833 7-25.5 7 3.5 7 1 13.5-8.5 15.5-8.257 1.738-20.5 2.667-25.5 4.5-8.167 2.333-22.3 9.4-13.5 19s48 4 66.5 0c18.5-6 10.667-35 6.5-46Z"/>
  <path fill="#223B41" d="M512.35 82.8c8.043 10.346 18.824 13.714 21.989 11.314l15.992-9.257c4.664-2.914 14.692-6.686 17.491 1.543 3.498 10.286 2.498 15.943 10.494 19.543 6.397 2.88 6.997 10.114 6.497 13.371v10.8c-.167 3.086.999 8.332 6.996 4.629 5.997-3.703 6.83-9.086 6.497-11.314.333-3.6 3.598-10.286 13.993-8.229 10.394 2.057 9.328 13.2 7.496 18.514l-5.997 13.886c-2.499 4.457-5.297 14.606 3.498 19.543 8.796 4.937 11.994 10.628 12.494 12.857 16.391-12.754 26.486-46.8 29.484-62.229C666.071 55.646 632 40 611 29.5c-21.135-10.567-46.5-8.5-60.669-4C537.138 1.637 498.857 1.714 493.86 0c-3.598 8.229-1.999 32.914 4.997 55.029 4.165 10.285 5.498 17.485 13.493 27.771Z"/>
  <circle cx="575.5" cy="155.5" r="2.5" fill="#223B41"/>
  <circle cx="568.5" cy="138.5" r="2.5" fill="#223B41"/>
  <circle cx="559.5" cy="152.5" r="2.5" fill="#223B41"/>
  <ellipse cx="532.5" cy="130" fill="#223B41" rx="3.5" ry="5"/>
  <path stroke="#223B41" stroke-linecap="round" stroke-width="5" d="M527 92.5c-2.333 1.833-6.3 7-3.5 13V127c.333 2.333-1.6 8.2-12 13-10.4 4.8-4.5 14 1.5 15l7 1c.5 22 13.1 67 59.5 71l5.5 14.5"/>
  <path stroke="#223B41" stroke-linecap="round" stroke-width="5" d="M531 118.5c2.833-2.5 9.9-5.7 15.5 1.5M536.5 182.5c4.5 1.333 13.1.1 11.5-15.5"/>
  <path stroke="#223B41" stroke-linecap="round" stroke-width="6" d="M440.841 61.263 448.687 47M373 68l14 9M398.402 31.755l13.696 31.49M631 174.5c-8.333 10.167-22.7 35-13.5 53"/>
  <path stroke="#223B41" stroke-linecap="round" stroke-width="3" d="M609.5 123.5c.167 3.5-.8 10.7-6 11.5"/>
  <path stroke="#223B41" stroke-linecap="round" stroke-width="5" d="M681.38 741.955c11.63-1.497 11.214-14.305 9.968-19.462 14.621 7.984 24.645.998 27.83-3.493 7.476 24.951 2.769 35.43-3.739 42.416-5.676 4.159-22.512 11.777-44.443 8.982-27.414-3.493-.798-27.004 10.384-28.443ZM673 420c-.214-3.21 5.711-26.567 4.269-43.465m0 0c-.804-9.423-1.832-21.18-3.121-35.5-3.6-40-17.834-70.666-24.5-81-6.8-30.4-25.167-33.666-33.5-31.5-9.2 11.6-23.834 13.834-30 13.5 1.6 4.4-6.334 11.5-10.5 14.5L553.5 282c-11.6 6.4-16.852 20.869-16.852 26.035-20 57.2-19.648 121.298-16.648 146.465l76 15c48 6 88.314-13.298 102.648-23.465-5.2-26.4-16.419-57.333-21.379-69.5Z"/>
  <path fill="#223B41" d="M663.402 687.955C667.712 594.175 648.597 505.566 638 471c26.725-3.607 47.777-15.159 55.5-19 7.759 29.256 19.114 104.369 23.783 138.768 11.639 37.673 9.16 91.844 6.466 114.22 1.724 13.626-9.339 19.036-15.087 20.038-30.604 10.02-42.925-20.539-45.26-37.071ZM149.5 156c24.4-45.6 60.833-51.333 76-48.5C257 59 300.5 43 327 57.5c21.2 11.6 3.833 40.833-7.5 54l-11-16c-7.6 14.8-29.333 9.333-40 6 9.167 19.333 23.8 69.3-7 114.5s-69.5 46-89 33c-18-12.833-47.4-47.4-23-93ZM11.304 733.077C-12.5 685.5 9.566 653.84 21.5 646c18.5 6 19 26 22 35.5l-6.924 19.549c-4.633 8.407-1.93 24.855 0 32.028 8.003 33.229-4.076 36.423-10.004 27.524l-15.268-27.524ZM238 777.5c-62.8 8.4-75.833-15.833-74.5-30 10.8-4.4 40.5-6 54.5-7-4 9.2 1 8 4.5 10.5 4.5 3 17 6.667 24 7 31.5 1.5 6.833 17.333-8.5 19.5Z"/>
  <path stroke="#223B41" stroke-linecap="round" stroke-width="5" d="M420 112.5c8.5 13.667 21.1 46.8 11.5 94 .833 10.167 15.67 43.786 27 59 17.5 23.5 54 50 76.5 57.5"/>
</svg>