<svg xmlns="http://www.w3.org/2000/svg" xml:space="preserve" viewBox="0 0 384 256">
  <style>
    .st2{fill:#273d82}.st3{fill:#4b9bd5}.st5,.st6{display:inline;fill:#042e2e}.st6{fill-rule:evenodd;clip-rule:evenodd}
  </style>
  <g id="Layer_2">
    <g id="XMLID_1_">
      <path id="XMLID_2_" fill="#666fb4" d="M27 110.8c0-4.2 3.4-5.8 9-5.8 8.1 0 18.3 2.4 26.4 6.8v-25c-8.8-3.5-17.6-5-26.4-5-21.6 0-36 11.3-36 30.2 0 29.5 40.5 24.8 40.5 37.5 0 5-4.3 6.5-10.2 6.5-8.8 0-20.2-3.6-29.1-8.5v25.4c9.9 4.3 20 6.1 29.1 6.1 22.2 0 37.5-11 37.5-30.1-.2-31.8-40.8-26.2-40.8-38.1zm72.1-50.4-26 5.6-.1 85.5c0 15.8 11.9 27.5 27.7 27.5 8.7 0 15.1-1.6 18.6-3.5v-21.7c-3.4 1.4-20.3 6.3-20.3-9.5v-37.9h20.3V83.7H99l.1-23.3zm53.3 31.1-1.7-7.9h-23V177h26.6v-63.3c6.3-8.2 16.9-6.7 20.3-5.6V83.6c-3.4-1.3-15.8-3.6-22.2 7.9zm28.8-7.9h26.7V177h-26.7V83.6zm0-8.1 26.7-5.8V48l-26.7 5.7v21.8zm82.3 6.3c-10.4 0-17.1 5-20.9 8.3l-1.4-6.6h-23.5V208l26.6-5.7.1-30.2c3.9 2.7 9.5 6.7 18.8 6.7 19 0 36.5-15.4 36.5-49.2.1-30.9-17.4-47.8-36.2-47.8zm-6.4 73.6c-6.3 0-10-2.2-12.6-5.1l-.1-39.6c2.7-3.1 6.6-5.3 12.7-5.3 9.7 0 16.4 10.8 16.4 24.9.1 14.4-6.5 25.1-16.4 25.1zM384 130.7c0-27.4-13.3-48.9-38.5-48.9-25.4 0-40.7 21.6-40.7 48.7 0 32.1 18.1 48.3 44.2 48.3 12.7 0 22.3-2.8 29.6-7v-21.4c-7.3 3.6-15.6 5.9-26.1 5.9-10.3 0-19.6-3.6-20.7-16.2H384c-.2-1.3 0-6.8 0-9.4zm-52.7-10.1c0-12.1 7.4-17.1 14.1-17.1 6.5 0 13.5 5.1 13.5 17.1h-27.6z"/>
    </g>
  </g>
</svg>