<svg xmlns="http://www.w3.org/2000/svg" width="1292" height="1221" fill="none">
  <path fill="#223B41" d="M966.712 105.5C1029.11 85.9 1071.38 127 1084.71 150c34-104-39-147.5-100.498-132-64.5 13.5-94.167-1.667-108-18 4.167 43.333 28.1 125.1 90.5 105.5Z"/>
  <path stroke="#223B41" stroke-linecap="round" stroke-width="5" d="M932.712 105.5c-13.166 41.667-22.2 130.6 47 153 29.498 7 71.998-9 87.998-50l13-25.5M1080.71 155.301c2.65-5.001 8.99-11.771 13.11 1.155 4.12 12.926-7.02 23.082-13.11 26.544"/>
  <path stroke="#223B41" stroke-linecap="round" stroke-width="5" d="M1085.71 160c1.5 1 3.7 3.9.5 7.5"/>
  <path stroke="#223B41" stroke-width="5" d="M989.712 206c0 3.175-.846 5.934-2.082 7.824-1.25 1.913-2.689 2.676-3.918 2.676-1.228 0-2.667-.763-3.918-2.676-1.236-1.89-2.082-4.649-2.082-7.824s.846-5.934 2.082-7.824c1.251-1.913 2.69-2.676 3.918-2.676 1.229 0 2.668.763 3.918 2.676 1.236 1.89 2.082 4.649 2.082 7.824Z"/>
  <path stroke="#223B41" stroke-linecap="round" stroke-width="5" d="M976.712 231c2.833 3 10.1 6.8 16.5-2M984.212 136c-1 7-5.7 22.7-16.5 29.5M983.212 174.5c-1.333-3-8.3-8.2-15.5-9M1015.21 123c5.34-.167 16.9 2.1 20.5 12.5M938.712 133c1-4.5 5.6-13.4 16-13"/>
  <ellipse cx="956.212" cy="137.5" fill="#223B41" rx="5" ry="6.5"/>
  <ellipse cx="1020.21" cy="146.5" fill="#223B41" rx="5" ry="5.5"/>
  <path stroke="#223B41" stroke-linecap="round" stroke-width="5" d="M1064.21 253c49.17 16.833 156.9 65.5 194.5 125.5 37.6 60-4.5 89.5-39.5 100.5l-68 21"/>
  <path stroke="#223B41" stroke-linecap="round" stroke-width="5" d="m971.212 256-3.5 32.5m102.498-83-11.5 71m-107.498 10c20.5 5.667 74.398 9.8 125.998-19M387.712 100l84 69m-57.5 9 37.5 18m-114 32.5h105m-32 54 41-12.5m-85.5 87 105.5-58"/>
  <path stroke="#223B41" stroke-width="5" d="M603.712 232c0 23.131-5.189 43.948-13.454 58.894-8.312 15.033-19.393 23.606-31.046 23.606-11.652 0-22.734-8.573-31.046-23.606-8.264-14.946-13.454-35.763-13.454-58.894s5.19-43.948 13.454-58.894c8.312-15.033 19.394-23.606 31.046-23.606 11.653 0 22.734 8.573 31.046 23.606 8.265 14.946 13.454 35.763 13.454 58.894Z"/>
  <ellipse cx="555.212" cy="232" fill="#223B41" rx="8" ry="15"/>
  <path fill="#223B41" d="M742.212 247c3.2-9.6 1.333-23.667 0-29.5l15.5 5.5c6.4 7.6 2.667 15.167 0 18l-15.5 6Z"/>
  <path stroke="#223B41" stroke-linecap="round" stroke-width="5" d="m757.712 223-191.5-72.5m6.5 160 185-69.5M554.712 220l46-14.5m-46 38.5 46 16.5M659.712 310c-2.833 1.167-5.3 5.4 1.5 9 6.8 3.6 5.167 8.5 3.5 10.5-2.667 2.333-11.3 4.1-24.5-7.5s8.5-18.833 21-21m-19 26c-2.833.667-7.7 3.3-4.5 8.5s19.333 8.5 27 9.5c.331.033.666.05 1 .049m-3-13.549c1.667.333 9 2.273 9 8 0 4.053-2.974 5.537-6 5.549m-25.5-5.549c-2.792 1.706-6.622 6.039-1.339 10.5m26.839-4.951c4.4 6.038-.167 9.15-3 9.951-.695.103-1.541.193-2.5.255M638.873 350c.394.333.839.667 1.339 1 6.088 4.058 14.749 4.59 20 4.255M638.873 350c-1.447 3.414-1.986 10.959 6.339 15.535.617.339 1.283.661 2 .965 10.4 4.4 13-2.833 13-7v-4.245m28-33.255c-5.667-4.5-16.7-10.8-15.5 0 1.2 10.8 8.833 15.5 12.5 16.5M688.212 365c-3-2.833-8.1-12.1-4.5-26.5M691.212 310.5c25.5 19.5 56.7 60 69.5 98 7.833 20.833 23.1 64.7 21.5 73.5m75.5 39.5-37.5 29.5c-32 22-59.833 19.5-74 9-44.4-30-25.869-116.906-31.563-155.031-1.937-12.969-6.253-22.905-19.937-24.469-5.167-.667-16.1-2.9-18.5-6.5"/>
  <path stroke="#223B41" stroke-linecap="round" stroke-width="5" d="m663.712 277-4 37m26.5 5 10-54.5m-42 103.5c0 9.5-4.5 22 5.5 25 12.21 3.663 13.5-7.5 16-19l6.5-34.5M835.212 426c-10.333 8.333-35.4 31.3-53 56.5"/>
  <path stroke="#223B41" stroke-linecap="round" stroke-width="5" d="M818.212 437.5c-.333-9 .8-29.2 8-38 9-11 39.5 125.5 32 136m0 0c-1.666.833-6.1 1-10.5-5m10.5 5c15.5-12.333 48.7-44.9 57.5-76.5"/>
  <path fill="#223B41" d="M947.833 994.313c-61.558-166.462-56.477-310.814-36.994-355.791C977.712 688 1105.71 647.5 1149.08 630c58.01 61.358 7.89 389.64-24.41 546.11-12.43 20.46-39.22 9.95-51.06 2.14l-14.79-108.66-17.02 95.16c-9.47 15.91-37.49 12.79-50.314 9.23l-43.653-179.667Z"/>
  <path stroke="#223B41" stroke-linecap="round" stroke-width="5" d="M933.282 418c-20.183 32.248-50.794 117.903-21.57 218 28 22.5 88.498 44 234.498-6 7.5-6 7.05-2.519 6.25-34.853-1-40.417-.5-130.71-11.01-177.147M825.712 400c19.167-31.5 77-102.5 143-130.5"/>
  <path stroke="#223B41" stroke-linecap="round" stroke-width="5" d="M1269.71 441.5c16.67 20.333 33.2 84.3 0 121.5s-92.16 73.5-117.5 87m0-97 43.5-47.5c2.84-3.333 7.5-12.1 3.5-20.5M757.712 223c2.5 2.833 6 10.4 0 18M741.212 217c1.833 5.833 3.5 19 0 30"/>
  <path stroke="#223B41" stroke-width="5" d="M964.428 1187.39c11.923 0 24.343-8.98 28.317-13.47 22.055 6.16 38.505 1.29 43.965-1.92v19.88c-13.71 14.37-56.634 17.32-75.263 10.9-11.179-5.13-7.224-15.39 2.981-15.39ZM1057.68 1188.72c7.81-1 16.76-6.23 20.26-8.72 16.21 8.97 33.27 6.23 39.77 3.74v11.2c0 7.47-6 9.34-9.75 10.59l-35.27 10.58c-9.01 2.28-24.01 4.36-30.77-5.6-7.58-11.19 6.01-20.55 15.76-21.79Z"/>
  <path stroke="#223B41" stroke-linecap="round" stroke-width="5" d="m2.712 581.5 12 17m8.5 0V578m8.5 20.5 12-20.5M348.558 1051l-56.533-20.67a2.004 2.004 0 0 1-1.313-1.88v-54.195a2 2 0 0 1 2.488-1.94l.142.036M348.558 1051v-57.5m0 57.5 35.643-39.75c.329-.36.511-.84.511-1.33v-51.449M348.558 993.5l-55.216-21.149m55.216 21.149 36.154-35.029m-91.37 13.88 35.215-35.407a1.998 1.998 0 0 1 2.171-.442l53.984 21.969M563.712 1060.16v46.35c0 .48.174.95.491 1.31l26.232 30.18m-26.723-77.84 26.723 26.16m-26.723-26.16 45.51-7.27c.623-.1 1.257.1 1.709.54l25.781 25.04M590.435 1138v-51.68m0 51.68 44.653-8.53a2.006 2.006 0 0 0 1.624-1.97v-49.03m-46.277 7.85 46.277-7.85M444.712 789.5l18 14m11.5 0V772m12 31.5 13.5-20.5M663.712 745l-94 4M664.712 745l124 11M789.712 756l-25 116M764.712 872l-103 18M661.712 889V766M661.712 767l127-10M661.712 767l-92-18M567.712 749l6 92M573.712 841l88 49M662.712 745v20"/>
  <rect width="37.243" height="19.996" x="707.924" y="794.881" stroke="#223B41" stroke-width="3" rx="8.5" transform="rotate(-3.54 707.924 794.881)"/>
  <path stroke="#223B41" stroke-linecap="round" stroke-width="5" d="M532.712 612c17.629 28.048 65.815 81.175 117.526 69.296l72.474-53.457M532.712 612l82-27"/>
  <path stroke="#223B41" stroke-linecap="round" stroke-width="5" d="M614.712 585c15.382 14 58.517 42 108 42M578.712 626c7.111-1.667 23.467-7 32-15M599.712 644c4.445-1 14.667-4.8 20-12M623.712 657c5.667-1 20.6-5.6 27-20"/>
  <path fill="#223B41" fill-opacity=".3" d="m660.993 916-89.781-73.5 90 50 106-18.5 10 1.5L660.993 916Z"/>
</svg>