<svg xmlns="http://www.w3.org/2000/svg" id="Layer_1" viewBox="0 0 60 60">
  <g id="XMLID_2_">
    <circle id="XMLID_25_" cx="30" cy="30.9" r="20.4" fill="#e9eaeb"/>
    <path id="XMLID_24_" fill="none" stroke="#d8d9d8" stroke-miterlimit="10" stroke-width="2" d="M7.2 48.2c-3.6-4.8-5.7-10.7-5.7-17.1C1.5 15.3 14.3 2.6 30 2.6s28.5 12.8 28.5 28.5c0 6.4-2.1 12.3-5.7 17.1"/>
    <g id="XMLID_3_">
      <path id="XMLID_23_" fill="#fff" stroke="#2b5183" stroke-miterlimit="10" stroke-width="2" d="M30 37c2.3 0 6.6-3.1 7.1-4.1.6-1 .8-1.9 1-3.1.1-.3.8-1.8 1-2 1-1.3 1-5.1 1-5.1l-1-1s-.2-3.2-.4-4.8c-.5-4.5-3.7-7.4-8.7-7.4s-8.2 2.9-8.8 7.5c-.1 1.6-.4 4.8-.4 4.8l-1 1s.1 3.8 1 5.1c.2.2 1 1.8 1 2 .2 1.2.4 2.1 1 3.1.6.9 4.8 4 7.2 4z"/>
      <path id="XMLID_22_" fill="#30c1e5" stroke="#2b5183" stroke-miterlimit="10" stroke-width="2" d="M30 57.4c7.1 0 13.6-2.5 18.3-7.1v-4.1c-.6-2-2.2-3.1-4.1-4.1L37.1 39s-3.7 3.1-7.1 3.1-6.1-3.1-6.1-3.1l-8.2 3.1c-1.9 1-3.5 2-4.1 4.1v4.1c4.7 4.6 11.2 7.1 18.4 7.1z"/>
      <g id="XMLID_6_">
        <path id="XMLID_21_" d="M23.9 39.1V34" class="st4"/>
      </g>
      <g id="XMLID_4_">
        <path id="XMLID_20_" d="M36.1 39.7V34" class="st4"/>
      </g>
    </g>
  </g>
</svg>