<svg xmlns="http://www.w3.org/2000/svg" xml:space="preserve" style="enable-background:new 0 0 200 200" viewBox="0 0 200 200">
  <style>
    .st0{fill:#008060}
  </style>
  <path class="st0" d="m128.7 124 8.3 9.2h-2.1c-11.5 0-20.9 4.4-20.9 13.8 0 7.6 9.4 13.8 20.9 13.8 11.5 0 20.9-6.2 20.9-13.8 0-7.3-9.5-17-14.4-23h-12.7zm16.2 22.7c0 3.9-4.5 7.1-9.9 7.1-5.5 0-10-3.2-10-7.1 0-3.9 4.5-7.1 10-7.1 5.4-.1 9.9 3.1 9.9 7.1m-44 2c0 7.6-12.4 7.6-12.4 0v-14.8H77.8v15.9c0 15.5 33.5 15.6 33.5 0v-15.9h-10.4v14.8z"/>
  <path class="st0" d="M159.7 133.9h8.7v26.8h-8.7z"/>
  <path class="st0" d="m41.3 124.9 3.7 4.5-20.6 31.3h12.4l3.4-5.5h23.5l3.5 5.5h12.9l-24.7-35.8H41.3zm3.2 22.9 7.1-11.7 7.4 11.7H44.5zM165 38.6c-8.3-.1-16 2.7-22.1 7.4-5.9-4.5-13.1-7.2-21-7.3-8.3-.1-16 2.7-22.1 7.4-5.8-4.5-13.1-7.2-21.1-7.3-8.2-.1-15.8 2.6-22 7.3-5.8-4.5-13.1-7.1-20.9-7.2C16.4 38.5.3 54.2 0 73.7c-.3 19.5 15.4 35.6 35 35.9 8.2.1 15.9-2.6 22-7.3 5.8 4.4 13.1 7.2 21 7.3 8.3.1 15.9-2.6 22.1-7.4 5.8 4.5 13.1 7.2 21 7.3 8.3.1 15.9-2.7 22.1-7.3 5.8 4.5 13.1 7.2 21 7.3 19.5.2 35.6-15.4 35.9-34.9.2-19.6-15.6-35.7-35.1-36m-.9 66.8c-8.2-.1-15.6-3.3-21.1-8.5-6.1 5.5-13.5 8.7-22 8.6-8.2-.1-15.6-3.3-21.1-8.5-5.9 5.5-13.9 8.7-22 8.6-7.8-.1-15.4-3.2-21-8.5-.9.8-1.9 1.7-3.1 2.5-5.3 3.8-11.8 6.1-18.8 6-12.8-.2-23.8-8.1-28.5-19.2-1.2-.1-2.3-.3-3.2-.6-1.3-3.7-2.1-7.8-2-12 .2-18.3 14.9-33.1 33-33.7.5.7 1 1.6 1.5 2.8h.2c8.1.1 15.8 3.4 21.5 9l-.3-4.4c5.6-4.4 12.5-7.1 20-7.4.3.4 1 1.4 1.6 2.8 7.9.1 16 3.6 21.5 8.9l-.2-4.2c5.5-4.5 12.6-7.3 20.2-7.5.5.7 1 1.6 1.5 2.7h.2c8 .1 15.9 3.8 21.6 9.2l-.3-4.5c5.6-4.5 12.6-7.2 20.2-7.5.3.4 1.4 2.8 1.6 2.8 16.8.8 30.3 10.9 31 31.8.4 17.2-14.7 31.1-32 30.8"/>
  <path class="st0" d="M46.2 85.7c-1.4-3.8-2.1-7.8-2-12 .1-7.8 2.8-15 7.3-20.7 1.7-.1 3.5-.1 4.5-.1-5.4-5.2-12.6-8.3-20.2-8.4-16.3-.1-29.8 13-30 29.3-.2 14.2 9.8 26.3 23.1 29.3l1.5-1.8c1.5.3 3.1.4 4.7.5 6.2.1 11.9-1.9 16.9-5.6l4.1.1c-2.8-2.8-5.1-6.2-6.6-9.9-1.3-.2-2.3-.4-3.3-.7m-11.1 14.6c-14.4-.2-25.9-12-25.8-26.4.2-14.4 12.1-25.9 26.5-25.7 5.4.1 10.3 1.8 14.4 4.6-4.5 5.9-7.2 13.1-7.3 21-.1 8.2 2.6 15.9 7.3 21.9-3.2 2-8.6 4.7-15.1 4.6"/>
  <path class="st0" d="M61.6 65.7c.6-1.5 1.6-2.2 1.6-2.2-1-3.4-3.7-7-6.3-9.6-4.9 5.2-8 12.2-8.2 19.9-.1 5.2 1.9 13.5 5.9 18.1.8.9 1.4 1.9 2.4 2.8l.1-3.8c3.8-4.5 5.8-10.4 5.9-16.3 0-3.1-.5-6.1-1.4-8.9M56.9 89c-3-4.3-4.7-9.6-4.7-15.2.1-5.4 1.8-10.3 4.6-14.5 3 4.3 4.7 9.6 4.6 15.2.1 5.4-1.6 10.4-4.5 14.5m47.6-23.3c.6-1.5 1.6-2.3 1.6-2.3-.8-2.9-3.8-7.2-6.2-9.6C95 59 92 66 91.9 73.7c-.1 8 3 15.4 8.2 20.8l.1-3.5c3.2-5.1 5.6-10.1 5.7-16.5 0-3-.5-6-1.4-8.8m-4.6 23.1c-2.9-4.3-4.6-9.5-4.5-15 .1-5.3 1.7-10.2 4.5-14.3 2.9 4.3 4.6 9.5 4.5 15-.1 5.3-1.7 10.2-4.5 14.3"/>
  <path class="st0" d="M132.4 85.6c-1.4-3.8-2.1-7.8-2-12 .1-7.8 2.9-15 7.4-20.7h4.4c-5.5-5.2-12.5-8.3-20.3-8.5-8-.1-15.4 3-20.8 8.1 5.6 5.8 8.7 13.8 8.6 22-.1 7.8-3.2 15.5-8.5 21.1 3.8 3.5 8.5 6.1 13.7 7.3.4-.6 1-1.2 1.5-1.9 1.5.3 3.1.4 4.7.4 6.7.1 12.4-2.3 17.2-5.6l3.8-.1c-2.7-2.8-4.9-6.1-6.4-9.7-1.3.1-2.4-.1-3.3-.4m-11.3 14.6c-5.4-.1-10.4-1.8-14.5-4.6 4.4-5.8 7.1-13 7.2-20.9.1-8.2-2.6-15.8-7.2-21.9 4.3-3 9.6-4.8 15.3-4.7 5.4.1 10.4 1.8 14.5 4.7-4.4 5.8-7.1 13-7.2 20.9-.1 8.2 2.6 15.8 7.2 21.9-3.2 2-8.7 4.7-15.3 4.6m71.2-36.9C190 55 178.1 44.4 165 44.4c-8-.1-15.3 3-20.7 8.1 5.6 5.9 8.8 13.9 8.7 22-.1 7.6-3.2 15.7-8.6 21.1 3.8 3.5 8.5 6.1 13.7 7.3.4-.6 1-1.2 1.5-1.9 1.5.3 3.1.5 4.7.5 15.1.2 27.7-12 27.9-27.1 0-3.1-.5-6.1-1.4-8.9.5-1.4 1.5-2.2 1.5-2.2m-28.1 36.8c-5.4-.1-10.4-1.8-14.5-4.6 4.4-5.8 7.1-13.1 7.2-20.9.1-8.2-2.6-15.8-7.3-21.9 4.3-3 9.6-4.8 15.3-4.7 14.4.2 25.9 12.1 25.8 26.5-.2 14.3-12.1 25.8-26.5 25.6"/>
  <path class="st0" d="M147.6 65.6c.6-1.5 1.6-2.2 1.6-2.2-.9-3.4-3.7-7-6.3-9.6-4.9 5.2-7.9 12.2-8 19.9-.1 8.2 3.1 15.6 8.4 21l.1-3.6c3.8-5.2 5.5-9.8 5.6-16.6 0-3.1-.4-6.1-1.4-8.9M143 88.8c-3-4.3-4.6-9.5-4.6-15.1.1-5.3 1.7-10.2 4.5-14.3 3 4.3 4.7 9.5 4.6 15.1 0 5.3-1.7 10.2-4.5 14.3m-53.7-3.1c-1.4-3.8-2.1-7.8-2-12.1.1-7.8 2.9-15 7.4-20.7l4.2-.1c-5.6-5.2-12.3-8.2-20.2-8.3-8-.1-15.2 3-20.6 8.1 5.6 6 8.8 13.5 8.7 22-.1 7.9-3.3 15.5-8.7 21.2 3.8 3.5 8.7 6.1 13.7 7.2.5-.6.9-1.2 1.5-1.9 1.5.3 3.1.4 4.7.5 5.6.1 12.8-1.8 17-5.6h4c-2.7-2.8-4.9-6.1-6.4-9.7-1.3-.1-2.3-.3-3.3-.6M78 100.2c-5.4-.1-10.3-1.7-14.4-4.6 4.5-5.8 7.2-13.1 7.3-21 .1-8.3-2.7-15.9-7.3-22 4.3-3 9.5-4.7 15.1-4.6 5.4.1 10.4 1.8 14.5 4.7-4.4 5.8-7.1 13.1-7.2 20.9-.1 8.2 2.6 15.8 7.2 21.9-3.1 2.1-8.6 4.8-15.2 4.7"/>
</svg>