<svg xmlns="http://www.w3.org/2000/svg" xml:space="preserve" id="Layer_1" x="0" y="0" style="enable-background:new 0 0 200 200" version="1.1" viewBox="0 0 200 200">
  <style>
    .st0{fill:#008060}
  </style>
  <path d="M.6 74.7 3 75.9c.6.3 2.9 1.5 2.9 1.5v.2c0 .1-.2.9-.3 1.3-.1.5-.3 1.5-.4 1.7 0 .2-.1.6.2.7.3.1 1.7.8 2.4 1.1.6.3 3 1.4 3 1.4v1c0 .3.1 1.4.2 1.7.1.3 0 .7.4 1 .4.2 1 .5 1.6.7.7.2.9.3 1.9.5 1 .3 2.2.6 2.2.6s.1.7.3 1.4c.2.8.4 1.7.6 2.2.2.5.4.5.7.7.3.1 1.4.3 1.9.4.4.1 1.4.2 2.1.3.7.1 2.1.2 2.1.2s.1.1.1.3c.1.1.6 1 .9 1.4.3.4.6.9.9 1.2.3.3.5.7.9.8.4.1 1.7.4 2.6.5.9.1 2.4.3 3.2.4.8.1 2.2.1 2.2.1s.1.6.3 1.1c.2.5.3.8.8 1.4.5.6.8.7 1.3.8.5.1 1.7.2 2.2.2h5.2s.1.3.2.5.5 1 .7 1.2c.2.3.3.5.8.9.4.4.7.5 1.2.6.5.1 1.4 0 2.2-.1.8-.1 2.1-.3 2.6-.5.6-.1 2-.5 2-.5s.3.6.6 1c.3.5.6.8.8 1 .2.2.4.3 1.3.4.9.1 2-.2 2.9-.5.9-.2 2.2-.6 2.2-.6s0 .2.1.6c.1.4.5 1.4 1 2.5s.8 1.9 1.3 2.8c.5.9 1 1.8 1.7 2.8.7 1 1.5 2 2.1 2.6.5.6 2.7 2.8 3.4 3.4.7.6 2.3 1.8 3.1 2.3.7.5 2 1.2 2.7 1.6.7.4 2.5 1.2 3.3 1.6.7.4 1.9.8 1.9.8s.2.5.4.8c.1.3.8 1.7.9 1.8.1.1.3.2.5.1.2 0 1.2-.4 1.5-.6.3-.2 1.3-.5 1.3-.5s.5.8.7 1.1c.2.3.8 1.1.8 1.3.1.1.3.1.5.1.1-.1.7-.5 1.2-.7.4-.2 1.5-.8 1.5-.8s.5.6.7.8c.2.2 1 1.2 1.2 1.3.1.2.3.2.5.1.1-.1.9-.7 1.2-.9.3-.2 1.2-.9 1.2-.9s.7.8 1 1c.3.3 1 1 1.2 1.1.2.1.3 0 .3 0s.2-.1.2-.2c.1-.1.7-.7 1-.9.2-.2 1-.9 1-.9s.2.2.4.3c.2.1.8.6 1.2.9.4.3.7.5.9.6.1.1.3.1.4 0 .1 0 .8-.9 1.1-1.3.3-.4.8-1 .8-1s.9.5 1.2.7c.2.1 1.3.7 1.5.8.1.1.3.1.4 0 .1-.1.7-.9.9-1.2l.8-1.2s.9.4 1.2.5c.4.1 1.4.5 1.6.6.2.1.4 0 .5-.1.1-.1.5-.9.7-1.4.2-.5.7-1.4.7-1.4s1.1-.4 2-.8c.9-.4 3.1-1.6 4.3-2.3 1.2-.7 2.7-1.8 3.5-2.5.8-.7 2.4-2.1 2.8-2.4l1.4-1.4c.4-.4 2.1-2.6 2.6-3.2.4-.5 1.5-2.4 1.7-2.8.2-.5 1-1.9 1.1-2.3.2-.4.7-1.9.7-1.9s.4.2.9.3c.5.2 1.1.3 1.6.4.5.1.9.1 1.1.1.2 0 .7-.4 1-.6.3-.2.6-.6.8-.9.2-.3.5-.9.5-.9l.6.2c.2.1 1.4.4 1.8.5.4.1 1.5.3 1.9.4.5 0 1 .2 1.6.1.5-.1.9-.5 1.2-.8.2-.2.6-.8.8-1.1.2-.3.4-1 .4-1s.3.2.7.3c.3.1 1.5.3 2.1.4.6.1 1.8.2 2.4.2.6 0 1.2 0 1.6-.1.5 0 .6-.2.8-.5.2-.2.4-.6.6-.8.1-.3.4-.9.5-1.3.1-.4.3-1 .3-1h2.9c.6 0 2.6-.1 3-.1.3 0 .8-.1 1.4-.2.5-.1.7-.3.9-.5.2-.2.4-.5.6-.9.2-.4.3-1 .4-1.2.1-.2.2-1.1.2-1.1s.3.1.7.1c.5 0 1.2.1 1.8.2h2.4c.4 0 1.3 0 1.5-.1.2-.1.6-.3.8-.5.2-.2.7-.8 1-1.1.2-.4.6-1.1.8-1.5.1-.4.4-1.5.4-1.5h.8c.4 0 1.6-.2 2.3-.2.7-.1 1.3-.2 1.8-.3.5-.1.7-.3 1-.5.3-.2.6-.8.7-1.1.1-.3.2-1 .3-1.5.1-.4.1-1.3.1-1.3h.6c.3 0 1-.2 1.6-.3.5-.1 1.6-.4 1.9-.6.3-.1.7-.4.9-.6.2-.3.5-.8.6-1.3.1-.5.1-1 .2-1.5v-1.2s1-.3 1.5-.4c.6-.1 1.8-.7 2.1-.8.3-.1 1.2-.6 1.2-.7.1 0 0-.7 0-.9 0-.3-.2-1.1-.4-1.6-.1-.4-.6-1.4-.6-1.4s1.4-.6 2-.8c.5-.2 2.2-1.1 2.4-1.2.2-.1.3-.1.4-.3.1-.2.5-.7.5-.9.1-.1 0-.2-.2-.4s-.7-.9-1.1-1.4c-.5-.5-1.7-1.7-1.8-1.7-.1-.1-.4-.1-1.2 0-.7 0-4.7.4-6.6.6-1.9.2-5.6.4-6.7.4-1.1 0-4.7-.1-6.4-.2-1.7-.1-10.2-.6-12.1-.6-1.9 0-11.3.5-12.9.6-1.6.1-7 .3-8.6.3-2.5 0-4.9-.3-6-.4-1-.1-4.7-.5-6.2-.5s-2.5.1-3.8.2c-1.3.1-3.5.4-4.9.7-1.4.3-3.1.8-3.1.8s-2.3-1-3.4-1.5c-1.1-.4-3.9-1.3-6.4-1.8-2.5-.5-6.1-.8-8.6-.8s-5.1.3-7.5.7c-2.4.4-5.5 1.2-6.7 1.6-1.2.4-3.5 1.3-3.5 1.3s-1.4-.4-2.6-.6c-1.2-.2-6.7-.6-8.4-.6-1.7 0-10.5.4-12.4.5-1.8.1-7.4-.2-9.4-.4-2-.1-10.2-.4-12-.4-1.8 0-9.1.1-10.3.2-1.3.1-7 .4-7.8.4h-5.7c-1.4 0-4.8-.2-5.6-.3-.8-.1-3.7-.4-4-.4-.3 0-.6 0-.9.3-.3.3-.6.7-1 1.1-1.3.5-2.8 2.2-2.8 2.2s.1.2.2.5c0 .4.1.7.4.8m10.6 6.9c-.2-.1-1.9-.8-2.3-1-.5-.2-1.2-.5-1.4-.7-.1-.2-.1-.5-.1-.7s0-.5-.3-.7c-.3-.2-.6-.5-.6-.5l.1-.5h1.9c.4 0 3.1.1 4 .1.9 0 3.8.1 4.5.1.7 0 4.6.1 5.4.1H49c.5 0 .9 0 1-.1.1 0 .4-.2.6-.1.2.1.3.3.4.4.1.1.3.2.4.3.1.1.3.2.4.4.1.2.1.2.3.3.2.2.2.2.2.3-.1.1-.4.5-.5.7-.1.2-.2.4-.2.5-.1.1-.5.1-.5.1s.2-.2.2-.4-.3-.6-.9-.6c-.6 0-2.1.1-2.8.2-.7.1-5.2.5-6 .5-.8.1-7.1.5-8.2.6-1.1.1-6 .4-7 .4-1 .1-4.7.3-5.8.3-1.2.1-3.8.2-4.8.2s-3 .1-3.4 0c-.4.1-.9-.1-1.2-.2m63.4 24.2c0 .1.1.3 0 .3-.2.1-.5.3-.6.3-.1.1-.3 0-.5-.2-.1-.1-.4-.2-.7-.4-.3-.2-.3-.4-.3-.6 0-.2.1-1.1.1-1.3-.1-.2-.2-.5-.2-.5s.4-1 .5-1.2c.1-.2.2-.5.2-.5s.1.5.2.8c.1.2.4.5.4.8.1.2.5 1.3.6 1.5.1.2.2.4.2.6 0 .1 0 .2.1.4m-4.5-11c-.2-.4-.4-.4-.6-.5-.2-.1-.3 0-.6-.1-.3-.2-.5-.5-.7-.5-.2 0-.2-.1-.3 0-.2.1-.4 0-.4 0s.9-.9 1.4-1.3c.4-.5 1.3-1.3 1.7-1.7l1.1-1.1s.2.2.5.3c.3 0 .7.1.9.1.3 0 .7 0 .8-.1.1-.1.3-.2.3-.2l-.4.6c-.3.3-.9 1.3-1.3 1.9-.4.6-1.2 1.9-1.4 2.1-.2.2-.5.7-.6.9-.1.1-.2.3-.2.3s0-.3-.2-.7m-.5-10.9s-.7.6-1 .8c-.2.3-.7.6-.8.7-.1 0-.5-.1-.7-.3-.2-.1-.8-.2-1-.3h-.4s.5-.5.9-.7c.3-.3 1-.7 1.3-1 .3-.2.6-.4.7-.4.1 0 .2 0 .3.1.1.1.3.1.3.2v.4c.1.1.2.1.2.2.2.1.2.3.2.3m0 .7c.2-.2.7-.6.7-.6s.2 0 .2.2c0 .1.1.1.2.1s.4-.1.4 0c.1 0 .2.1.2.2 0 .2 0 .3.1.3 0 0 .2 0 .2.1v.1l-1.1 1.1c-.3.3-.9.9-.9 1-.1.1-.1.2-.1.2s-.1-.3-.4-.6c-.3-.2-.4-.3-.7-.4-.3-.1-.5-.1-.5-.1s.6-.6.9-.8l.8-.8m-1.8-2.7c-.1.2-.2.3-.5.6s-.6.5-.8.7c-.2.2-.5.5-.7.5-.2 0-.4-.1-.6-.2-.1 0-.6-.2-.7-.3-.1-.1-.3-.1-.4-.1-.1 0-.5.1-.5.1V83s.9-.5 1.2-.6c.3-.2 1.2-.6 1.6-.8.4-.2.8-.4 1.1-.4.2 0 .4.1.5.2-.1.1-.1.3-.2.5m-1.4-1.8c-.2.1-1.1.6-1.4.7-.3.1-1.1.5-1.3.6-.2 0-.5-.1-.7-.1-.2-.1-.3-.1-.4-.1h-.4V80.9l1.4-.7c.7-.3 1.9-.7 2.2-.8.3-.1.6-.2.7-.1.2.1.3.2.2.3 0 .1-.2.4-.3.5m-.3-2.3c-.1 0-.1.1-.2.3-.2.2-.3.4-.5.5-.2.1-.6.2-1.1.3-.5.1-1.2.4-1.5.4-.3.1-.3.2-.8.1-.4-.1-.6-.1-.7-.2h-.4v-.4s.8-.3 1.3-.5c.6-.2 1.6-.4 2.1-.5.5-.1.8-.2 1-.2h.8c-.1 0 0 .1 0 .2m-4.9 2.7c.3.1.5.2.6.4.1.2 0 .4-.2.6-.1.2-.1.3-.1.4v.3s-.2.1-.3.2l-.3.1s0-.2-.1-.3c-.1-.1-.5-.3-.7-.2-.2.1-1.2.4-1.5.6-.4.2-1.4.6-1.7.8-.4.1-.6.3-.9.2-.4-.1-.7-.1-.9-.2-.3-.1-.6-.3-.7-.3-.1 0-.4-.1-.4-.1s0-.2.2-.3c.1-.1.5-.2.6-.3.2-.1.7-.2 1.3-.5.6-.2 1.6-.5 2-.6.5-.2 1.4-.4 1.6-.5.3-.1.6-.3.8-.3 0-.2.4-.1.7 0m-5.3 4.8 1.2-.6c.4-.2 2-.9 2.5-1.1.5-.2 1.3-.6 1.4-.7.2-.1.3-.2.5-.2s.7.1.9.2c.3.1.6.1.7.2.1.2.1.5.1.6 0 .1-.1.4-.1.6 0 .1.1.5.1.5l-.4.2h-.4s-.1-.2-.2-.3c-.2-.1-.4-.2-.7-.1-.1.1-1.1.6-1.4.8-.3.2-1.2.8-1.3.8-.2.1-.3.3-.7.2-.4 0-.6-.1-.8-.2-.2-.1-.6-.4-.8-.5-.1-.1-.6-.2-.6-.3v-.1m4 1.8c.5-.3 1.8-1 2.3-1.3.5-.3 1-.6 1.2-.7h1.2c.3 0 .6 0 .6.2s0 .3-.1.5v.5l-2.5 1.9c-.4.3-1.3 1.1-1.4 1.2-.1 0-.4-.2-.8-.4s-.6-.2-.8-.2c-.1 0-.4-.1-.6-.3-.2-.1-.3-.1-.5-.2-.2 0-.5.1-.5.1v-.2c.2 0 1.4-.7 1.9-1.1m2.3 2.4c.4-.4 1.7-1.4 2.1-1.7.3-.3 1.2-1 1.3-1 .1-.1.3-.1.4-.1.2 0 .5-.1.7-.1.2 0 .5 0 .5.2s.1.7.1.8c0 .2 0 .4.1.5.1.1.1.2.1.2l-.4.4c-.2.2-1 .9-1.3 1.2l-1.2 1.2c-.2.3-.6.6-.6.6s-.1-.4-.3-.6c-.2-.2-.7-.3-1-.3-.3 0-.7-.3-.9-.4h-.3s-.2.1-.3-.1c0 .1.6-.5 1-.8m3.7 1c.3-.3 1.4-1.3 1.7-1.6.3-.2.5-.5.7-.7.3-.1.7-.3.8-.2.2.1.3.3.4.5.1.2.3.5.7.7.4.1.6.2.8.1h.3l-.6.6-1.2 1.2c-.4.3-1.3 1.3-1.6 1.6-.3.3-.7.6-.7.6s0-.3-.2-.5c-.3-.3-.6-.2-.9-.2-.3 0-.5-.1-.7-.2-.2-.1-.3-.3-.4-.3-.1 0-.3.1-.4.1h-.3l1.6-1.7zm6.6-2.2.1-.1s.5-.6.9-1l1-1.1c.2-.2.3-.4.3-.4s-.3.7-.3.9c-.1.3-.1.8-.1 1.1 0 .2-.1.5-.2.8v.6s-.2.1-.3.2c-.1.1-.3.2-.3.2s0-.4-.2-.7c-.2-.2-.2-.3-.4-.4-.3 0-.5-.1-.5-.1m-1.6 9.1c.1 0 .6 0 .9-.1.4-.1 1-.2 1.1-.2.1.1.1.2.2.3v1.7c0 .4 0 1.3-.1 1.6-.1.3-1 2.1-1.2 2.7-.2.5-.8 1.6-.9 1.8-.1.2-.2.3-.2.4-.1.1-.2-.2-.5-.5-.3-.4-.6-.3-1-.2-.3.1-2.2.6-2.5.6-.3.1-.9.2-1.2.2-.3-.1-.4-.3-.6-.5-.2-.2-.3-.4-.5-.4s-.4-.1-.4-.1 1.7-1.8 2.1-2.2c.4-.4 2.5-2.6 2.9-3.1.4-.5 1.2-1.4 1.4-1.6.2-.3.4-.4.5-.4m2.5-1.9c-.1.3-.2.4-.2.5l-.1.3s-.2.2-.3.2l-.3.1v-.3c0-.1-.2-.3-.3-.5-.1-.2-.2-.4-.1-.8s.3-.8.4-1.2c.2-.3.3-.6.5-1.2.2-.5.4-1 .7-1.3.3-.4.4-.6.5-.8.1-.2.3-.2.3-.2s.1.2.2.3c.1.1.3.3.2.4 0 .1-.5 1.1-.7 1.4-.1.3-.5 1.5-.5 1.8-.1.6-.2 1.1-.3 1.3m1.1-10.4c-.3.4-1.4 1.6-1.9 2.1-.4.5-.8 1-.9 1.1-.2.2-.3.4-.3.4h-.1s.1-.2.1-.5c0-.2-.2-.6-.4-.7-.2-.1-.3-.1-.4-.1-.1 0-.2.1-.3.1h-.2s.5-.6.7-.8c.2-.2.8-.8 1.1-1 .2-.2.4-.4.5-.4.1 0 .4.1.7 0 .2-.1.7-.6.7-.9 0-.3-.1-.6-.4-.8-.2-.2-.5-.3-.7-.3-.2 0-.5.1-.7.2-.2.1-.3.1-.3.1v-.4c0-.2-.1-.5-.2-.7-.1-.2-.4-.4-.7-.4-.3 0-.4.1-.6 0-.1-.1 0-.3-.1-.5s-.3-.6-.5-.7c-.4.1-.6.1-.8.1-.1 0-.1-.1-.1-.3 0-.3-.1-.8-.2-.9-.1-.1-.5-.4-.7-.4-.2 0-.3-.1-.3-.2s.1-.4.1-.6c0-.2 0-.6-.3-.7-.2-.2-.6-.3-.7-.5-.1-.2-.3-.4-.4-.4h-.5c-.2 0-.6.1-.9.1-.3.1-.5.1-.6.1-.1-.1-.5-.2-.7-.2-.2 0-.8 0-1.1.1-.4 0-.8.1-1.1.1-.3 0-.5-.1-.7-.2-.2-.1-.3-.2-.5-.2-.2-.1-.2-.2-.2-.2v-.2c0-.1.1-.2.1-.2s1.1 0 1.9-.1c.8 0 1.8 0 2.4.1.5.1 1.4.1 1.8.1.3 0 .9-.1 1.7 0 .8 0 2.3.1 3.3.2 1 .2 1.9.3 2.7.6.8.3 2.3.9 2.7 1.4.5.6.8 1 .8 1.7-.1.7-.4 1.5-.6 1.9-.2.4-.8 1.4-.9 1.6-.1.3-.9 1-1.3 1.4m-14.3-6.6c.2.1.3.3.3.4-.1.1-.1.2-.2.3-.1.1 0 .2-.1.3v.3l-.5.2h-.2s.1-.3 0-.3c-.1-.1-.4-.3-.7-.3-.3 0-1.2.2-1.5.3-.3.1-1.4.4-1.8.6-.4.1-.8.3-1.2.3-.3 0-.6-.2-1-.3-.2-.2-.3-.3-.4-.3-.1-.1-.3-.2-.3-.2s.2-.4.4-.4c.1 0 .7-.3 1-.3.3-.1 1.5-.4 2-.5.5-.1 1.6-.3 2.1-.5.5-.1.9-.3 1.1-.3.1 0 .4.1.5.2 0 .1.3.3.5.5m-.7-2c-.1.1-.2.4-.3.6-.1.2 0 .4-.1.4s-.6.1-.6.1.1-.2 0-.3c-.1-.1-.5-.2-.7-.2-.3 0-1.6.1-2.1.2-.4 0-1.6.2-1.9.2-.3 0-.5 0-.7-.1-.2-.1-.8-.3-1-.5-.2-.1-.3-.2-.3-.2l-.3-.1.1-.4c.1-.1.2-.3.2-.3h6.8c.3 0 .6.1.7.1h.2c-.1.2.1.5 0 .5m-44.3 10c-.7-.2-1.9-.5-2-.7-.2-.2-.3-.4-.3-.6 0-.2-.4-.7-.6-.8l-.6-.3v-.4h1c.4-.1 1.8-.1 2.7-.1 1 0 4.6-.2 5.8-.3 1.2-.1 6.4-.3 7.4-.4 1-.1 7.9-.5 8.9-.6 1-.1 6.7-.5 7.6-.6.9-.1 3.9-.4 5-.5 1.1-.1 1.2-.2 1.4-.2.2 0 .3-.1.5.1s.5.6.7.7c.2.1.9.6.9.8 0 .2-.2.5-.3.7-.3 0-.3.4-.3.4l-.7.1s.1-.2.1-.3c0-.1-.1-.4-.4-.5-.3-.1-.8-.2-1.2-.1-.5.1-2.6.5-3.5.6-.9.1-5.9 1-7.1 1.2-1.2.2-6.1 1-7.2 1.1-1.1.2-5.6.8-7.2.9-1.6.2-3.5.3-4.5.4-1.1.1-2.1.2-2.9.1-.8 0-2.5-.5-3.2-.7m7.3 5.6c-.8-.1-1.8-.3-2.1-.4-.3 0-.6-.1-.8-.5-.1-.4-.1-.7-.4-.9-.2-.3-.5-.6-.7-.6-.2-.1-.5-.1-.6-.2-.1-.2 0-.4 0-.4h.6c.3 0 .6-.2.9-.2.4 0 1.5-.1 2.1-.1.6 0 2.4-.2 3-.3.6 0 3.6-.3 4.6-.5 1-.1 6.3-.9 7.2-1 .9-.1 5.3-.8 6.5-1 1.2-.2 5.3-.9 6.3-1.1 1.1-.2 2.3-.4 2.8-.5.5-.1.8-.3 1-.3.3.1.5.3.8.4.3.1.8.3 1.1.4.3.1.5.2.6.3 0 .1 0 .5-.1.7-.1.2-.2.4-.2.6 0 .2-.1.4-.1.4l-.6.2s.1-.3 0-.4c-.1-.1-.4-.4-.6-.4-.2 0-.5 0-.8.1-.3.1-4.2 1.3-4.8 1.4l-4.6 1.3c-.6.2-4.2 1.1-5.2 1.3-1 .2-4.8 1-5.8 1.2-.9.2-4.5.6-5.4.7-.9.1-1.1.1-1.8 0-.6.1-2 0-2.9-.2m13.3 5c-.5.1-2.5-.1-3.3-.2-.8-.1-3.1-.5-3.5-.5-.3-.1-.5-.2-.7-.5-.2-.2-.3-.4-.7-.6-.3-.1-.7-.4-1-.4-.2-.1-.4-.1-.5-.2-.2-.1-.3-.1-.4-.2-.1-.1-.1-.2-.1-.2s2.6-.3 3.2-.4c.6-.1 4.6-.6 5.5-.8 1-.2 5.1-1.1 5.8-1.3.7-.1 5.2-1.3 6.2-1.6.9-.2 3.9-1.1 4.7-1.4.8-.3 3.2-1 3.5-1.1.3-.1.5-.3.8-.3.3 0 1 .3 1.3.4.3.1 1 .2 1.2.3.1.1.2.2.2.4v1.4c0 .1.3.4.3.4l-.7.3c-.1.1-.5.2-.5.2s.1-.3 0-.4c0-.1-.4-.3-.5-.3-.1 0-.2 0-.6.1-.3.1-1.1.4-1.5.6-.4.2-2.7 1.1-3.3 1.3-.7.3-3.5 1.4-4.4 1.7-.9.3-4.9 1.7-5.6 1.9-.7.2-3.4 1-4 1.1-.6.2-.9.3-1.4.3m7.5 3.6c-.8 0-2.5 0-3-.1-.5 0-1.3-.1-1.6-.2-.4-.2-.5-.4-.7-.7-.2-.3-.7-.6-.9-.6-.2-.1-.6-.1-.7-.1-.1 0-.1-.3-.1-.3s.8-.2 1.1-.3c.2-.1 1.6-.5 2-.6.4-.1 2-.5 2.6-.7l4.2-1.4c.6-.2 4.2-1.5 4.9-1.8.7-.3 4.7-1.9 5.2-2.1.6-.2 1.1-.5 1.3-.6.2-.2.8-.5 1.2-.5.3-.1.9-.2 1.2-.2.3 0 .5 0 .6.1.1.2.1.3.1.5s.1.7.3.9c.2.2.6.4 1 .5.4.1.8.2.9.2h.2s-.8.5-1 .6l-1 .5s-.1-.2-.2-.3h-.8c-.3 0-.6.1-.9.3-.3.2-3 1.6-3.6 1.9-.5.3-4.7 2.5-5.3 2.7-.6.3-3.3 1.6-3.7 1.8-.4.2-.7.3-1.1.4-.4 0-1.3.1-2.2.1m8.8 2.7c-.8.1-2.5.4-2.8.4-.3 0-.8 0-1.1-.3-.3-.3-.4-.7-.8-.9-.4-.2-.6-.3-.9-.3-.5.1-.6-.1-.6-.1s3.3-1.7 3.7-1.8c.5-.2 5.4-2.7 6-3.1.6-.3 4.2-2.3 5-2.7.8-.4 1.9-1 2-1.1.2-.1.3-.3.5-.3.2-.1.4-.1.4-.1s.3.4.5.6c.2.2.6.6 1 .6.4.1.6.1.9 0 .3 0 .7-.1.7-.1s-1.2 1.1-1.4 1.3c-.2.2-2.8 2.3-3.3 2.8s-2.4 1.9-2.8 2.3c-.4.3-1.8 1.4-2.1 1.5-.3.2-1.1.4-1.5.6-.4 0-2.6.5-3.4.7m11.5.9c-.1.1-.6 0-.8-.1-.3-.2-.6 0-1 0-.4.1-1.1.3-1.6.4-.4.1-1.6.4-1.8.4-.3 0-.6 0-.8-.2-.2-.2-.6-.7-.8-.8-.2-.1-.5-.1-.6-.1-.1.1-.6.4-.7.1 0 0 1.8-1.3 2.1-1.6.4-.3 2-1.6 2.4-1.9.4-.3 2.3-1.9 2.9-2.3.6-.5 2.3-1.9 2.7-2.3.5-.4 1.3-1.3 1.3-1.3s.1.3.2.5c.2.1.4.4.7.6.4.1.9.2 1.2.1h.9c.2 0 .4.1.4.3v.7l-2.6 2.9c-.5.6-2 2.2-2.4 2.6-.3.6-1.5 1.9-1.7 2m20.2 21.3-.4.6-.3-.2s.2-.2.1-.4-.2-.4-.5-.5c-.3-.1-1.4-.6-1.9-.9-.5-.2-2.7-1.4-3.5-2-.8-.5-2.8-1.9-3.7-2.6-.9-.8-2.9-2.7-3.6-3.5-.7-.7-2.1-2.6-2.5-3.2-.4-.6-1.6-2.8-1.9-3.4-.2-.6-.4-1-.6-1.2-.2-.2-.3-.3-.4-.3h-.3s-.1-.2-.2-.6l-.2-.6s.5.7.9.7.5-.1.6-.1c.1 0 .5-.1.6 0 .1.1.3.3.3.5s.1.7.3 1c.2.4.9 1.9 1.3 2.6.4.7 1.7 2.5 2.2 3.1.5.6 2.3 2.5 2.7 3 .5.4 2.8 2.3 3.6 2.9.8.6 2.8 1.8 4 2.4 1.2.6 2.7 1.3 3.1 1.4.4.1.6.2.7.3l.2.2-.6.8zm.7-1.3c0 .1-.1.1-.2 0s.1-.3.1-.6-.1-.7-.3-.8c-.1-.2-.6-.4-.9-.5-.3-.1-1.5-.7-2.1-1-.6-.3-1.9-1.1-2.7-1.6-.8-.5-1.9-1.3-2.7-1.8-.7-.6-1.7-1.5-2.3-2.1-.6-.6-1.7-1.8-2.3-2.6-.7-.9-1.5-2-1.9-2.8-.5-.8-.9-1.8-1.1-2-.2-.2-.4-.4-.7-.6-.3-.1-.5-.2-.7-.2-.1 0-.4 0-.4-.1v-.2s.5 0 .9-.2 1.5-.5 1.9-.6c.4-.1.9-.3 1.1-.4.2-.1.4-.1.5-.1.1 0 .2.1.3.3.1.2.3.6.5.8.2.2.5.4.9.4s.8-.1 1.2-.2c.3-.1.9-.5 1.1-.6.1-.1.3-.2.4-.1.1.1.2.2.3.2.1 0 .2.1.3.3.1.1.9 1.4 1.4 2 .5.6 1.2 1.4 1.7 1.8.5.5 1.9 1.7 2.4 2.1.6.4 2.2 1.5 2.9 1.9.7.4 1.6.9 2.3 1.2.7.3 1.5.6 1.7.7.2.1.3.2.4.3.2.1.2.2.2.4 0 .1-.8 1.3-1.1 1.9-.3.6-.9 1.6-1.2 2-.2.4-.9 1.5-1 1.8-.4.1-.9.9-.9 1m4.3 1.4c-.1.3-.5 1.3-.7 1.6-.1.2-.2.5-.2.5l-.5.2s.1-.2.1-.4c-.1-.1-.4-.4-.5-.4-.2 0-.4 0-.6.1-.2.1-.5.1-.6-.1-.1-.2-.4-.7-.4-.8 0-.1-.1-.3 0-.6s1.1-2 1.3-2.3c.2-.3 1.3-2.1 1.5-2.6.2-.4.8-1.5.9-1.7.1-.2.2-.4.1-.6-.1-.2-.1-.3-.2-.3s-.3-.1-.3-.1l.6-.9s.3.1.6.1.6 0 1 .1c.3.1.8.4.9.5.1.2-.1.5-.3 1-.2.4-1.1 2.9-1.4 3.4-.3.6-1.2 3-1.3 3.3m4.4.3c-.1.4-.4 1.7-.5 1.9-.1.3-.3.8-.3.9 0 .1-.4.3-.5.3-.1 0-.2.1-.2.1s.2-.2.1-.4c-.1-.1-.2-.3-.4-.3s-.5.2-.6.1c-.2 0-.4-.2-.6-.6-.2-.5-.2-.5-.1-.9s.9-2.5 1.1-3c.2-.5 1-2.6 1.2-3.1.2-.5.5-1.2.5-1.4 0-.2-.2-.5-.3-.6-.1-.1-.2-.2-.3-.1h-.1l.3-.8h.6c.2 0 .5 0 .9.1s.9.1.9.3c.1.2.1.4 0 .7-.1.4-.8 3.1-.9 3.6-.2.6-.7 2.8-.8 3.2m4.6-4.5c0 .4-.3 3.3-.3 3.6 0 .3-.1 1.5-.1 1.9 0 .3-.1 1.1-.2 1.4 0 .3-.2.8-.2.9v.1s-.5.4-.7.5c-.2.1-.2-.1-.3-.2-.1-.1-.3-.1-.6-.3-.3-.1-.7-.5-.9-.8-.2-.3-.2-.6-.1-1 .1-.5.5-2.1.7-2.7.1-.6.5-2.2.6-2.8.1-.6.4-1.5.4-1.8 0-.3-.1-.6-.3-.8-.2-.2-.2-.2-.3-.2-.1 0-.2-.1-.2-.1l.1-.6H96.7c.3 0 .6 0 .8.1.2.1.4.2.4.6 0 .4-.1 1.8-.1 2.2M73.5 98.7c0-10.4 11.2-19.6 26.1-19.6 14.9 0 26.1 9.2 26.1 19.6 0 10.4-11.3 19.6-26.1 19.6s-26.1-9.2-26.1-19.6m13.3-24.9c-.2-.2-.6-.4-.9-.5h-.5c-.2-.1-.4-.3-.4-.3s.7-.3 1-.4c.3-.1 1.6-.6 2.5-.8.9-.3 1.8-.5 3-.7 1.1-.2 2.8-.5 4.2-.6 1.3-.1 3.1-.3 4.1-.2 1 0 3.4.1 4.4.3 1 .1 2.8.3 4 .6 1.1.2 3.2.8 4.2 1.1.9.3 2 .7 2.2.8.1.1.2.3.4.3.2.1.3.2.3.2s-.5.5-.8 1c-.9 1.6.2 3.5 1.6 4.6 1.9 1.4 5.3 3.5 5.9 6.7.1.7.1 2.1.1 2.1l-.5-.5c-.1-.2-.2-1-.4-1.4-.2-.4-.9-1.3-1.2-1.7-.4-.4-1.1-1.2-2.6-2.1-1.4-.9-2.9-1.7-4.4-2.3-1.6-.6-2.6-1-4.5-1.4-1.9-.4-4.3-.8-6.9-.9-2.6-.1-4.9.1-6.5.3-1.5.2-3.7.6-5.7 1.3-2 .6-2.5.9-3.1 1.2-.6.3-2.2 1.1-2.7 1.4-.6.4-1.5 1-2 1.3-.5.3-.6.6-1 .5-.5-.2-.6-.7-.6-.7s.4-.5.8-.8c.4-.4 1.3-1.2 1.9-1.6.6-.5 1.7-1.4 1.9-1.6.2-.2.7-.8.7-.8s.2.3.4.2c.3-.1.7-.4 1-.8.3-.4.7-1.4.6-2.3-.2-.8-.3-1.4-.5-1.5m60.9 4c-.1-.2-.4-.4-.7-.5-.3-.1-1.7-.2-2.1-.2h-2.2c-.6 0-1.1-.1-1.3-.2-.2-.1-.2 0-.3-.1-.2-.1-.3.1-.3.1s-.1-.3-.1-.4v-.1s.6 0 1-.1c.4 0 1.6-.2 2.3-.3.7-.1 2.2-.4 2.6-.5.5-.1 1.1-.2 1.3-.1.2.1.3.3.4.5 0 .2.2.7.2.8 0 .2.2.5.2.6 0 .1-.3.4-.4.5l-.6.6s.1-.4 0-.6m-6.8.2c.3.1 1.9.2 2.5.3.6.1 2.2.3 2.7.4.5.1 1.1 0 1.4.1.4.1.3.4.4.7 0 .2.1.6 0 .7 0 .1-.2.3-.5.5-.2.2-.4.3-.6.4-.1.1 0-.3-.1-.4-.1-.1-.3-.2-.7-.3-.3-.1-.9-.2-1.3-.3-.3-.1-1.7-.3-2.2-.4-.5-.1-1.1-.2-1.5-.3-.4-.2-.6-.5-.8-.5-.2-.1-.4-.1-.4-.1v-.3s.3-.3.4-.3c.1-.1.3-.2.7-.2m4.5 5.8c-.1-.2-.7-.4-1.1-.5-.4-.1-1.4-.4-2-.6-.6-.2-1.6-.5-1.9-.6-.3-.1-.7-.2-.9-.3-.2-.2-.5-.4-.6-.5-.1-.1-.4-.1-.4-.1s0-.7.1-.7.4.1.5 0c.1 0 .5 0 .8.1.3.1 2.1.6 2.8.7.7.2 1.7.4 2.3.5.6.1 1 .1 1.1.3.1.2.1.7.1.9 0 .2.1.8 0 .8 0 .1-.3.2-.5.3-.2.1-.3.1-.3.1s.1-.2 0-.4m-1.1 3.1c-.1.1-.2.1-.5.1-.2 0-.4.1-.4.1s.2-.2 0-.4-.3-.3-.7-.5c-.4-.1-1.2-.5-1.5-.6-.3-.1-1.7-.8-2.1-.9-.4-.1-1.2-.5-1.5-.6-.3-.2-.4-.2-.5-.3-.1-.1-.4-.2-.4-.2s.1-.2.1-.5c0-.2 0-.4.1-.4s.2.1.4 0c.2 0 .4 0 .5.1.2.1.8.3 1.1.4.3.1 1.9.7 2.5.9.5.2 1.5.6 1.9.7.4.2.7.2.9.3.2.2.3.4.3.7 0 .3 0 .3-.1.5-.1.1-.1.2-.2.2.1.1.2.3.1.4m-2.3 2.3c-.1.1-.3.1-.5.1-.2.1-.3.1-.3.1s.1-.1.1-.3c0-.1-.2-.4-.5-.4-.3-.1-.7-.1-.9-.2-.3-.1-.5-.2-.9-.4s-1.3-.8-1.7-1c-.4-.2-1.2-.7-1.5-.8-.3-.2-.4-.3-.5-.3-.1 0-.3-.1-.4 0-.1 0-.4-.1-.4-.1s.4 0 .5-.2c.1-.2.1-.6.1-.7 0-.2 0-.3.1-.3s.3.1.5.1.4 0 .7.2c.3.1 1.6.8 2.2 1.1.7.3 2 1 2.4 1.1.4.2 1.1.4 1.2.6.1.2.2.3 0 .6-.1.2-.2.3-.1.4-.2.2 0 .3-.1.4m-4.4 1.8c-.3-.1-.6-.2-.9-.2-.3-.1-.8-.4-1.1-.7-.3-.2-1.1-.8-1.4-1-.4-.3-.9-.7-1.1-.8-.3-.1-.7-.2-1-.2h-.6c-.1 0-.1.3-.3.2-.1-.1-.2-.1-.3-.2-.1-.1-.2-.1-.2-.1v-.3s.2-.1.4-.1.5 0 .7-.1c.3-.1.3-.1.4-.2.2-.1.3-.1.5-.3.2-.1.1-.3.2-.3h.6c.1.1.8.7 1.3.9.4.2 1.7 1 2.2 1.4.5.3 1.2.7 1.4.9.2.2.4.3.4.5s-.2.3-.3.5c-.1.2-.1.3-.1.5-.1.1-.1.2-.1.2l-.6.1s.2-.1.1-.3c.2-.1.1-.3-.2-.4m-2.9 2.2c-.1-.1-.4-.3-.7-.4-.3-.2-.7-.5-1.1-.8-.4-.3-1.3-1.2-1.5-1.4-.2-.2-.9-.8-1.1-.8-.2-.1-.7-.2-.9-.2-.2 0-.5-.1-.5-.1s-.1.2-.2.2h-.1l-.1-.1-.2-.2s0-.1.1-.3c0-.1 0-.3.1-.3s.4.2.7.2h.3s.1-.2.4-.3c.3 0 .4-.1.5-.1.1 0 .2 0 .6.1.3.1 1.2.8 1.5 1.1.3.3 1.7 1.3 2 1.6.4.3.8.6.9.7.1.1.5.5.4.6-.1.2-.3.4-.3.5 0 .2 0 .4-.1.5 0 .1-.2.1-.3.1h-.4s.2-.1.2-.2c.1-.1 0-.2-.2-.4m-3.2 1.6c-.2-.1-.4-.2-.7-.4-.3-.2-.5-.4-.8-.6-.2-.3-.7-.9-.9-1.2-.2-.3-.8-1-1.1-1.3-.3-.3-.6-.5-.9-.6-.3-.1-.4-.1-.5-.1-.1 0-.2.2-.2.3 0 .1-.1-.1-.3-.2-.1-.2-.5-.8-.5-.8s.5.2.8.2h.6s.2-.2.5-.3c.3-.1.6 0 .9.2.3.2 1.7 1.7 1.9 1.9l1.4 1.4c.3.3.8.7.9.9.1.2.1.3 0 .5-.1.1-.2.2-.2.3-.1.1-.1.4-.1.5-.1.1-.2.2-.4.2h-.4s.2-.1.2-.2c.1-.4.1-.6-.2-.7m8.9-18c-.1.1-.1.3-.1.4v.1s-.1.1-.2.1c-.1.1-.6.3-.6.3s0-.1-.1-.3c-.1-.2-.4-.3-.6-.4-.2-.1-.9-.1-1.2-.1-.3 0-1.1 0-1.4-.1-.3 0-.4-.1-.6-.1-.1 0-.3 0-.4.1l-.2.2h-.3c-.1 0-.2.1 0 .2.3.3.7.3 1 .4.4 0 .9.1 1.2.2.4.1.9.2 1.2.2.3.1.6.1.8.1.1 0 .3.1.3.2s0 .2-.1.3v.3c0 .1 0 .2-.1.2-.1.1-.4.2-.5.2h-.2s.1-.2 0-.3c0-.1-.2-.2-.4-.3-.3-.1-1-.3-1.3-.3-.3-.1-.9-.2-1.3-.3-.4-.1-.6-.2-.7-.1-.1.1-.1.2-.2.2h-.2c-.1.1-.2.2-.1.2.1.1.3.2.6.3.3.1 1.1.3 1.5.4.4.1 1 .4 1.4.4.3.1.7.2.8.4.1.2.1.4-.1.5-.1.1-.2.3-.2.3 0 .1-.1.3-.1.3s-.3.2-.4.2l-.3.1s.1-.1 0-.4c-.1-.2-.4-.4-.8-.6-.4-.2-1.1-.4-1.4-.6-.3-.1-1.2-.5-1.4-.6-.2-.1-.4-.1-.6-.1-.2.1-.3.2-.2.3.1.1.2.1.2.3 0 .1 0 .2-.1.2h-.1s.5.3.8.5c.3.2 1.2.6 1.4.7.2.1.9.4 1 .5.2.1.5.3.4.5-.1.2-.1.4-.1.5 0 .1 0 .2-.1.2-.1.1-.7.2-.7.2v-.2c0-.1-.1-.2-.4-.4-.3-.1-1.3-.7-1.5-.9-.2-.1-.9-.5-1-.6-.1-.1-.5-.4-.6-.5-.1-.1-.4-.2-.5 0-.1.1-.2.4-.1.5l.3.3s-.2.1-.1.2c0 .1.5.4.8.6.3.3 1.2.9 1.5 1 .2.2.7.5.9.6.1.1.2.3.1.4-.1.1-.2.3-.2.3v.4s-.1.1-.3.1c-.2 0-.5.1-.5.1s-.1-.1 0-.2c0-.1-.1-.2-.3-.4-.2-.2-.9-.7-1.2-.9-.3-.2-1-.7-1.2-.9-.2-.1-.4-.6-.6-.7-.2-.1-.4-.3-.6-.2-.2.1-.4.2-.4.4s-.1.3.1.4c.1.1.3.2.3.2s-.2.1-.1.2c0 .1.6.5.9.8.3.2 1.2 1 1.4 1.1.2.2.7.6.7.8.1.2 0 .5 0 .6-.1.1-.3.1-.5.2s-.4.1-.4.1.1-.2 0-.3c0-.1-.4-.3-.7-.6-.3-.2-1.2-1-1.5-1.3-.3-.3-.7-.6-.8-.9-.1-.2-.3-.6-.6-.6s-.6.1-.8.3c-.2.2-.2.5 0 .6.1.1.4.2.3.3l-.3.2s.3.1.6.5c.4.3 1.1.9 1.3 1.1.3.2.8.7.9.8.1.1.2.3.2.5s-.1.4-.1.5c-.1.1 0 .2-.1.2-.1.1-.4.1-.5.1h-.2s.2-.2.2-.3c0-.1-.3-.4-.5-.6-.2-.2-1.2-1-1.5-1.3-.4-.3-.9-.8-1-1.1-.1-.3-.1-.7-.3-1-.2-.3-.6-.6-.8-.9-.2-.3-.8-1.2-1.1-1.8-.3-.6-.6-1-.7-1.5-.1-.5 0-.8-.1-1-.1-.2-.3-.4-.4-.4h-.4s.2-.4.8-.8c.5-.3 1.4-.7 1.9-.9.5-.2 2.4-.6 3.2-.7.9-.1 3.2-.1 3.9-.1H140.3c.2 0 .5.1.5.2-.3 1-.3 1.2-.4 1.3m-14.3 9.9c.2.2.6.4.7.5l.7.7c.1.2.5.5.4.6 0 .2-.2.7-.3.8-.1.1-.3.3-.4.3h-.4s.3-.1.3-.2-.1-.2-.3-.5c-.2-.2-.3-.3-.6-.7-.2-.3-.4-.7-.4-.7h-.4s-.1-.5-.1-.9c-.1-.3-.2-.5-.2-.7-.1-.2-.1-.5-.1-.5s.9 1.1 1.1 1.3m-.7 4.2v-.2s.4.5.5.6c.1.1.5.4.6.6.2.2.8 1 1.1 1.4.3.4 1 1.4 1.2 1.6.1.2.6.8.5 1 0 .2-.1.4-.2.6-.1.2-.2.4-.3.4h-.5s.1-.2.1-.3c0-.1-.2-.4-.4-.5-.2-.1-.8-.4-.9-.5-.1-.1-.5-1.1-.6-1.4-.2-.4-.5-1-.8-1.3-.2-.3-.3-.6-.4-.7-.1 0 0 0-.2.1-.1 0-.2-.1-.2-.1s.2-.4.2-.6c.2-.3.3-.6.3-.7m8.1 15.7c-.3-.2-.7-.4-1.1-.5-.3-.1-1-.3-1.5-.5-.4-.2-.7-.3-.9-.5-.2-.3-.7-1.1-1-1.6-.3-.5-1-2-1.3-2.4-.2-.4-.3-.6-.3-.9 0-.2-.1-1.1-.1-1.4-.1-.2-.3-.6-.5-.7-.2-.1-.2-.2-.3-.2-.1 0-.3-.1-.3-.1V97.2s.6.1 1 .1h.9c.1 0 .3 0 .5.2s.2.5.3.7c0 .2 1.2 1.8 1.4 2.1.2.2 1 1.4 1.4 1.8.4.5 1.3 1.7 1.6 2.1.3.4.9.9 1 1.2.1.2.5.7.6.9.1.1-.1.3-.2.4-.1.1-.3.3-.4.5-.2.1-.4.4-.5.4-.1 0 0-.2 0-.3 0-.3-.1-.5-.3-.7m-6.2.4c-.1-.1-.3-.4-.6-.5-.3-.1-.8-.4-.8-.6-.1-.2-.1-.3.1-.6.2-.4.2-.8.1-1.2-.1-.3-.1-.4-.2-.5l-.2-.2s.2-.7.2-.9l.2-.6s.4.6.5.9c.1.2.5.7.7 1.1.2.4.8 1.3.9 1.6.2.3.4.6.3.9 0 .3-.3.7-.4.9-.1.2-.1.3-.3.5-.2.2-.5.2-.5.2s.2-.2.2-.4-.1-.4-.2-.6m-.7 1.3c.4.1.6.1 1 .1s.5-.1.7-.3c.2-.2.4-.6.5-.8.1-.2.2-.5.2-.5s.5.2.7.3l1.4.5c.4.1.9.2 1.1.4.2.2.3.3.3.4 0 .1-.2.5-.3.8-.1.3-.7 1.4-.9 1.8-.2.4-1.1 1.8-1.5 2.4-.4.6-1.9 2.4-2.4 2.9s-1.2 1.2-1.5 1.4c-.4.2-1 .3-1.4.6l-2.2 1.4c-.6.4-1.4.8-2 1.1-.6.3-2 1-2.5 1.2-.4.2-1 .5-1.3.6-.3.1-.5.2-.7.2-.2 0-.4-.2-.5-.3-.1-.2-.8-1.4-1.1-1.8-.2-.5-1.2-2.2-1.4-2.5-.2-.3-.3-.5-.7-.6-.3-.1-.4-.2-.5-.2h-.4c-.1 0-.2-.2-.2-.2s1-.3 1.4-.6c.4-.2 1.3-.5 1.8-.8.6-.3 2.1-1.1 2.8-1.5.7-.4 1.5-1 2.2-1.6.7-.6 1.8-1.6 2.2-2 .4-.4 1.5-1.6 1.8-2.1.3-.5.9-1.3.9-1.3l1.2.6c.3.1.9.3 1.3.4m-24.9 20.5v.5l-.9.9c-.2.2-1 .8-1 .8s.1-.3.2-.5c.1-.1.2-.4.1-.5-.1-.1-.7-.8-.9-.9-.2-.1-.4-.4-.5-.8 0-.3.1-2.2.2-3.1.1-.8.2-2.7.2-3.3.1-.6.2-1.4 0-1.7-.1-.3-.3-.6-.5-.7-.2-.1-.4-.1-.4-.1v-.6h.7c.1-.1.7-.1 1.1-.1.4 0 .8.1.9.4v1.3c0 .4.2 2.6.2 3 0 .3.2 2.8.2 3.4.3.6.4 1.8.4 2m4.5.2c0 .1-.5.6-.7.8-.2.2-1 1.2-1 1.2s-.1-.3 0-.4c.1-.1.3-.3.3-.5s-.2-.6-.4-.8c-.2-.2-.6-.4-.8-.6-.2-.2-.3-.3-.3-.8s-.2-3-.3-3.8c-.1-.8-.2-3.1-.3-3.4 0-.3-.1-.7-.3-.9-.2-.2-.5-.3-.6-.4-.1-.1-.3-.1-.3-.1v-.5s.6-.1.8-.1c.2-.1.8-.2 1.2-.2.3 0 .7.1.7.3 0 .2.1.8.2 1.1 0 .3.7 2.9.7 3.3.1.4.8 3.2.8 3.6.1.4.3 1.4.3 1.6v.6m4.1 0c-.2.3-.9 1.2-.9 1.2v-.5c.1-.1.1-.3.1-.5 0-.1-.2-.5-.4-.7-.2-.2-.6-.3-.8-.5-.2-.2-.3-.3-.5-.9-.2-.6-.6-2.3-.7-2.8-.1-.5-.7-2.9-.8-3.3-.1-.5-.2-1.1-.4-1.3-.2-.2-.6-.6-.7-.6H104.6l-.1-.5s.3 0 .6-.1 1-.4 1.3-.4c.3 0 .7 0 .8.1.1.1.2.4.3.7.1.4 1 2.5 1.2 3.1.2.6 1.1 2.8 1.3 3.3.2.5.6 1.5.7 1.7 0 .2.3.8.2 1-.1.1-.4.6-.6 1m5.1-2.3c-.1.2-.5 1-.6 1.3-.1.2-.6 1-.6 1s0-.6-.2-.9c-.1-.3-.2-.5-.5-.7-.2-.2-.7-.3-.8-.4-.2-.1-.3-.3-.5-.7-.2-.4-.8-2-1-2.5-.2-.5-.9-2.4-1.2-2.9-.2-.6-.6-1.6-.8-1.9-.2-.3-.7-.6-.8-.6-.2 0-.4-.1-.4-.1h-.2l-.2-.4 1.2-.3c.4-.1.8-.3 1.1-.4.3-.1.4-.1.5.1.1.1.3.4.3.6.1.2.9 1.6 1.1 2 .3.5 1 1.8 1.3 2.2.2.4 1 1.7 1.2 2 .2.3.4.7.5.9.1.2.4.7.5 1 .1.3.2.5.1.7m19.7-18.8c-.1.2-.4 1-.6 1.5-.2.4-.8 1.7-1.1 2.1-.2.4-1.3 2-1.7 2.6-.4.6-1.7 2.2-2.1 2.6l-2.4 2.4c-.4.3-3.2 2.2-3.7 2.5-.6.3-2.3 1.4-2.7 1.6-.4.2-1.7.8-2.1 1-.4.2-1.5.7-1.8.8-.3.1-.6 0-.8 0h-.8l-.1-.2s1-.4 1.6-.7c.5-.2 2.8-1.3 3.4-1.7.6-.4 2-1.1 2.7-1.6.7-.5 2.3-1.7 2.9-2.2.6-.5 2.3-2.2 2.6-2.6.3-.4 1.7-1.7 2-2 .3-.3.9-.9 1.3-1.4.4-.6 1.3-2.1 1.5-2.5.2-.5.4-.8.4-1 0-.2-.1-.4-.1-.4-.1 0-.4-.1-.4-.1l.1-.4c.1-.1.1-.2.1-.2s.3 0 .5-.1.6-.4.9-.7c.3-.2.6-.6.7-.8l.1-.2s.1 0 .1.1c-.1.4-.4 1.4-.5 1.6m6.1-2.3c-.1.2-.4.6-.6.8-.2.2-.6.5-.6.5s.1-.3.1-.5-.3-.4-.6-.5c-.2-.1-1.2-.3-1.6-.5-.4-.1-1.4-.5-1.6-.7-.3-.2-1.4-1.5-1.7-1.9-.2-.3-1.2-1.6-1.6-2-.3-.4-1.1-1.5-1.5-2-.4-.5-1.1-1.4-1.2-1.5-.2-.2-.2-.3-.4-.4-.2-.1-.2-.2-.2-.2l.1-.4V96h.9c.4-.1.6-.2 1-.1.3 0 .5.1.7.4.2.4.7.9 1 1.2.4.4 2.1 1.9 2.6 2.4s2.2 2.1 2.8 2.6c.6.5 1.4 1.2 1.6 1.4.2.2.7.7.8.9.2.3.1.6 0 .8m8.4-1.6c-.2.4-.6 1.1-.7 1.3-.1.2-.4.5-.6.6l-.2.1s.2-.3.2-.4c0-.2-.1-.4-.4-.6-.3-.1-.8-.2-1.3-.3-.4-.1-2-.5-2.6-.7-.6-.2-1.1-.3-1.5-.6-.4-.3-1.4-1.2-1.9-1.7-.5-.4-1.5-1.4-2.1-1.9-.6-.5-1.8-1.7-2.2-2.1-.4-.4-1.6-1.4-1.8-1.7l-.8-.8c-.1-.1-.3-.1-.3-.3-.1-.1 0-.3 0-.4 0-.1.1-.2.1-.2s.6.1.8 0c.2-.1.7-.2.9-.2.2 0 .5-.1.8.1.3.1 1 .5 1.4.8.4.3 1.9 1.5 2.4 1.9.5.3 2.8 2 3.3 2.3.4.3 2.6 1.7 3.1 2.1.6.3 1.6 1 2.1 1.3.5.3 1.1.6 1.3.8-.1.1.1.3 0 .6m8.9-2.3c-.1.3-.4 1-.5 1.2-.2.2-.3.7-.5.9-.2.2-.3.3-.4.3h-.1s.2-.2.2-.3c0-.1-.1-.4-.3-.6-.1-.1-.4-.2-.6-.2-.2 0-.8 0-1.3-.1-.6-.1-1.5-.2-2.2-.3-.7-.1-1.1-.2-1.7-.4-.6-.2-1.8-.9-2.4-1.3-.6-.4-2.7-1.6-3.3-2.1-.6-.4-3.5-2.5-4-2.8-.4-.3-1.5-1.1-1.9-1.4-.4-.3-1-.8-1.3-.9-.2-.1-1-.3-1.2-.5-.2-.1-.5-.2-.6-.3-.1-.1 0-.4 0-.4s1-.2 1.3-.4c.2-.1.8-.2 1-.2.2 0 .9.4 1.4.6.4.3 2.4 1.3 3 1.6l3.8 1.9c.6.3 2.5 1.2 3.2 1.5.7.3 3.1 1.4 3.7 1.6.6.3 1.6.6 2.2.8.6.2 1.3.4 1.6.5.3.1.9.3 1 .4 0 .4 0 .7-.1.9m9.4-3.8c-.1.2-.2.8-.3 1.1-.1.3-.3.8-.5 1-.2.2-.6.3-.6.3s.2-.1.2-.4c0-.2-.1-.3-.3-.4-.2-.1-.3-.2-.5-.2s-.9 0-1.3.1h-2.8c-.7 0-1.3.1-1.8 0s-1.1-.2-1.8-.4c-.8-.2-2.6-.9-3.5-1.2-.8-.3-3.3-1.4-3.9-1.7-.6-.3-3.1-1.5-3.9-1.9l-2.6-1.3c-.6-.3-2-1.1-2.3-1.3-.4-.1-.7-.3-1-.4-.3 0-.7-.2-.9-.3-.1-.1-.4-.2-.4-.2v-.4s1-.2 1.4-.4c.4-.1.9-.4 1.4-.3.5.1 1.4.4 2 .6.6.2 2.5.9 3 1.1.5.2 5.1 1.7 5.8 1.9.7.2 4.6 1.4 5.5 1.6.8.2 4.6 1.2 5.5 1.4.9.2 2.4.4 2.8.5.5.1.9.2.9.4 0 .3 0 .7-.1.8m8.8-3.5c-.2.3-.4.9-.7 1.3-.3.4-.5.6-.7.7-.2.1-.3.2-.3.2s.2-.3.1-.4c0-.2-.3-.4-.6-.4-.3-.1-.8 0-1.4 0-.5 0-2.2-.1-3.6-.3-1.4-.2-3.6-.6-5.1-.9-1.5-.4-3.6-.9-5-1.3-1.5-.4-4-1.1-5.5-1.7-1.6-.5-3.6-1.2-4.4-1.5-.9-.3-3.4-1.2-3.8-1.4-.4-.2-.7-.2-1-.3h-1c-.3 0-.7-.1-.9-.2-.2-.1-.3-.1-.4-.2-.1-.1 0-.2 0-.2s.5 0 .8-.1c.2-.1.9-.2 1.1-.3.3-.1.4-.1.4-.3v-.7c0-.1.1-.3.1-.3s.6.1.8.2c.3 0 1.1.2 1.4.2.3.1 4.2 1.1 4.9 1.2.6.1 5.1 1.2 5.8 1.4.8.1 4.4.9 5.2 1.1.8.2 6.2 1.2 7.1 1.3.9.1 4 .6 4.7.7.7.1 1.8.2 2 .2.2.1.4.1.3.4.2.6-.1 1.3-.3 1.6m7.4-4.6c-.1.3-.2.8-.4 1-.1.2-.2.4-.4.5-.2.1-.3.1-.3.1s.1-.3.1-.5c-.1-.2-.4-.5-.6-.5-.2 0-.9.1-1.3.2-.5.1-1.4.2-1.9.2-.6 0-1.3.1-1.7.1-.4 0-1.1-.1-1.7-.2-.6-.1-2.9-.4-3.7-.5-.8-.1-3.4-.6-4.5-.8-1.1-.2-5-1-5.7-1.2-.7-.1-3.6-.8-4.4-1-.7-.2-3.9-.9-4.6-1.1-.7-.2-2.8-.7-3.3-.8-.6-.1-1.7-.4-2-.5-.3 0-.6-.1-.9 0-.3 0-.8.2-1 .3-.2 0-.2.1-.4 0-.3 0-.4-.2-.4-.2l.9-.3c.3-.1.8-.3.9-.5.1-.2.2-.3.2-.5s-.1-.3-.1-.3.9 0 1.3.1c.4 0 2.2.3 2.7.4.6.1 3.3.5 4 .6.7.1 5.8.8 6.7.9 1 .1 5.3.7 6.1.8.8.1 5.7.6 6.4.7.8.1 3.5.3 4.4.4.9.1 2.9.2 3.8.2.9 0 1.5 0 1.7.1.2.1.4.2.3.4.1.3-.1 1.6-.2 1.9m5.9-5.3c-.1.4-.4 1.1-.7 1.3-.2.2-.5.3-.5.3s.1-.3 0-.4c-.1-.2-.4-.4-.6-.4-.2 0-1.5.3-2.1.4-.6.1-1.7.2-2.5.2s-2.6-.1-3.5-.1c-.9-.1-3.4-.2-4.6-.4-1.2-.1-4.6-.5-6.2-.7-1.6-.2-4.7-.6-5.9-.7-1.1-.1-4.7-.6-5.7-.8-1-.1-3.5-.5-4.2-.6-.7-.1-3-.4-3.6-.5-.7-.1-1-.2-1.3-.2H146.5s.7-.4.9-.6c.3-.2.6-.4.7-.7.1-.2.1-.3.1-.3s2 .1 2.5.1 2.7.2 3.3.2c.6 0 4.1.3 5.2.4 1.1.1 6.1.4 7.1.5 1 .1 5 .3 6 .4 1 0 4.8.2 6 .3 1.2 0 5.6.2 6.3.2h3.6c.4 0 .9-.1 1.2-.1.3 0 .6 0 .6.3.2.3.1 1.5 0 1.9m4.8-5.2c0 .2.1.5.1.6-.1.1-.6.3-.7.4-.1 0-.2.1-.2.1s.1-.2 0-.3c-.1-.1-.4-.3-.5-.4-.2 0-.5 0-.8.2-.4.1-1.4.5-2.1.6-.6.1-.9.2-1.9.2h-4.5c-1-.1-4.1-.1-5.5-.2-1.4-.1-5-.3-6.2-.3-1.2 0-5.1-.3-6-.3-.9-.1-5.4-.3-6.3-.4-.9-.1-5.6-.4-6.3-.5-.7-.1-2.4-.2-2.9-.2s-1.2-.1-1.5-.2c-.2-.1-.2-.2-.5-.2h-.5s.6-.6.7-.8c.2-.2.3-.4.4-.4.1 0 .5 0 .7-.1.3-.1 2.2-.1 2.7-.1h4.8c.8 0 5.8-.1 6.6-.1h5.4c.9 0 5.4 0 6.5-.1 1.1 0 6.6-.1 7.6-.1.9 0 5.2-.1 6-.1.8 0 2.3 0 2.8-.1.5 0 .9-.1 1.1-.1.2 0 .2.2.3.3 0 .1.3 1 .4 1.4.2.5.3 1 .3 1.2m-73-7.9c.9-.2 3.4-.6 4.4-.7 1-.1 2.8-.2 3.6-.2.9 0 2.7.1 4.1.2 1.4.2 3.3.4 4.6.5 1.3.1 3.4.1 4.4.1.9 0 2.7-.1 3.6-.1.9 0 4.4-.1 5.5-.2 1.1-.1 4.2-.2 5.4-.3 1.2-.1 4.7-.1 5.7-.1s5.4.2 6.5.2c1.1.1 3.8.2 4.8.3 1 .1 2.5.1 3.3.2h7.4c1-.1 3.8-.3 4.8-.4 1-.1 3.6-.3 4.4-.4.8-.1 1.6-.2 2-.1.3 0 .8.3.9.4.1.1.6.7 1 1.1.4.4.7.8.8.9.1.2.3.5.2.6 0 .1-.1.3-.2.4-.1.1-.7.3-.7.3s0-.3-.2-.4c-.2-.1-.5-.2-.8-.1-.2.1-1.1.5-1.6.7-.5.2-1.3.6-1.6.6-.4 0-1.8.1-2.8.1-1 0-3.8 0-5 .1-1.2 0-5.4.1-6.3.1-.9 0-4.7.1-5.9.1-1.2 0-4.6.1-5.7.1-1.1 0-6 .1-7 .1h-4.9c-.8 0-1.9.1-3 .1-1 .1-2.5.2-2.9.2-.4 0-1 0-1.2-.1-.2-.1-.2-.1-.3-.1-.1 0-.5-.1-.5-.1l-.1-.2s.5-.1.8-.2c.4-.1.7-.3 1.4-.4.7-.1 2.4-.5 3.2-.6.9-.1 4.7-.8 5.8-1 1.1-.1 4-.5 5-.5 1-.1 3.9-.3 4.9-.3 1-.1 3.3-.2 3.8-.1.6 0 2.5 0 3.3.1.8.1 1.2.1 1.2.1l.1-.5s-.8 0-1.5-.1c-.7 0-2.5-.1-3.1-.1-.6 0-2.8 0-3.6.1-.8 0-1.9-.1-2.9-.1-1.2-.1-3.7 0-4.8 0-1.1.1-4 .4-5 .5-1 .1-4.2.6-5.6.9-1.5.3-3.8.7-4.9.9-1.1.2-2.5.5-3.7.6-1.2.1-3.7.2-4.6.1-.9 0-3.6-.1-5-.1-1.3 0-3.6 0-4.9.2-1.3.2-2.4.4-3.1.7-.7.2-1.4.5-1.8.8-.5.3-.7.7-.7.9 0 .1.1.2.1.2l.4.1s-.4.3-.6.4c-.2.2-.4.6-.5.9 0 .3-.2 1.1-.2 1.5 0 .3-.1.5.1.8.1.3.7 1.2.9 1.7.2.4.8 1.3 1 1.6.2.3.4.7.7 1 .2.3.6 1.1.6 1.3v2.9c0 .3 0 .5-.1.6-.1.1-.2.2-.2.4s-.1.5-.2.7c0 .2-.2.6-.2.6l-.2-.5c0-.1.1-.4 0-1 0-.5-.8-2.3-1-4-.1-1.1-.8-2.2-1.3-3-.5-.7-.8-1.5-1.4-2.4-.6-1-2.2-1.9-3.2-2.7-.8-.5-1.8-1.8-1.8-2.7 0-.4-.2-1.1-.8-.8.1-.2.3-.4.6-.7.5-.4 1.5-1 2.4-1.4.9-.5 3-1.1 3.9-1.3M84.3 71c.5-.2 3.1-1.1 3.9-1.3 1-.3 3.3-.8 4.7-1 1.4-.2 4.2-.5 6.8-.5 2.3 0 4.4.2 5.5.3 1.1.1 3.4.5 4.3.8.9.2 2.4.6 3.3.9.8.3 2.2.7 2.7 1 .5.2.8.3.9.4.1.1.1.2.4.3.3.1.7.3.7.3s-.1.1-.4.2c-.2.1-.5.2-.7.3l-.4.2s0-.3-.1-.4c-.1-.1-.8-.4-1.5-.7-.6-.2-1.6-.6-2.6-.8-.9-.3-2.6-.8-3.8-1-1.1-.2-2.3-.4-3.4-.5-1.1-.1-3.6-.3-4.9-.3-1.3 0-3.8.1-5.1.3-1.2.1-3.3.5-4.5.8-1.2.3-2.8.7-3.4.9-.7.2-1.4.5-1.6.5h-1.4c-.1 0-.4.2-.5.1-.1-.1-.3-.2-.3-.2s.9-.3 1.4-.6m-81.7.3c.3-.3.7-.9.9-.9.2-.1.9-.1 1.3 0 .4 0 3 .3 3.6.3.5 0 2.8.1 3.3.1.6 0 3.4.1 4.4.1 1 0 3.9.1 4.8.1.9 0 3.3-.3 4.1-.3.8 0 3.1-.2 4.2-.2h4.1c.7-.1 3.6-.1 4.6-.1 1 0 3.8.1 4.8.1s5.1.3 6.1.3c1.1 0 6.4.2 7.5.3 1.2 0 2.9.1 3.8 0 .9-.1 5.4-.2 6.7-.3 1.4 0 4.9-.1 6.3-.1 1.4 0 4.9.4 6.1.5 1.2.1 2.3.4 2.7.5.3 0 .8 0 1 .2.2.2.4.5.7.8.3.2.8.3 1 .5.2.2.2.7.3.9.1.2.5.9.6 1.3.1.4 0 1.2-.3 1.7s-.8 1.1-1.3 1.6-1.3 1.1-2 1.7c-.7.6-1.9 1.5-2.5 2.4-.6.8-1 1.4-1.1 2.3-.1.8 0 1.3-.1 1.5 0 .1-.1.5-.4.7-.2.2-1.1 1.2-1.4 1.6-.3.4-.8 1.2-1 1.4l-.2.4-.2-.4s.4-.5.5-.6c.2-.2.1-.8.2-1.8.2-2.6 3.5-5.6 3.1-8.3-.4-2.1-3-3.9-5.6-4.3-1.5-.2-6.5-.6-7.6-.6-1.3 0-4.9-.1-6.1-.1-1.1 0-4.1 0-5-.1-.9 0-2 0-3.4-.3s-2.4-.5-3.8-1c-1.4-.4-2.5-.8-3.7-1-1.1-.3-2.5-.5-3.5-.6-1-.1-2.9-.2-4.3-.3h-6.1c-1.1 0-4.7.1-5.6.1h-2.4c-.4 0-.3.2-.5.3h-1.9c-.6 0-1.1 0-1.3-.1h-.6s0 .2.2.3c.2.1.8.1.9.1.2 0 1.6.1 2.2.1.5 0 1.4 0 2 .1.6.1 1.5.1 2.2.1h4.3c1 0 2.8 0 3.7.1.9 0 3 .1 4.7.3 1.7.2 3 .4 4.7.8 1.6.4 3.5 1 4.4 1.3.9.3 2.2.6 2.9.8.7.1 1.3.2 1.5.3.2.1.2.3.1.5s-.2.3-.2.5c-.1.2-.1.4-.1.4h-.6s.1-.1.1-.3c0-.1-.3-.3-.7-.4-.4-.1-2.1-.2-2.5-.3-.5-.1-2.1-.2-3-.2H21.6c-.9 0-3.9-.1-4.5-.1H14c-.8 0-3.7-.1-4.4-.1-.8 0-1.7-.1-2-.2-.3-.1-1.9-.9-2.6-1.2-.7-.3-1.9-1-2.2-1.1-.3-.2-.7-.4-.8-.4-.1-.1-.5.4-.7.6-.1.2-.4 0-.4 0s1.4-2 1.7-2.3" class="st0"/>
  <path d="M125.3 98.8C125.3 89.4 115 80 100 80s-25.3 9.4-25.3 18.7c0 9.3 10.2 18.7 25.3 18.7 15 .1 25.3-9.3 25.3-18.6m-40.6 9.1c0-.9 1.8-1.8 1.8-2.6V92.2c0-.7-1.9-1-1.9-2.2v-.3c.4-1 3.2-3.3 7.7-4.7 2.1-.6 4.6-1.1 7.5-1.1 1.5 0 2.9.1 4.2.3 5.7.8 9.8 3.6 10.1 7.1v.9c0 2.1-.9 3.8-4.1 5.6 3.5 1.6 4.9 4.9 4.9 7.3-.1 4.5-5.2 8.2-14.1 8.2H99c-8.9-.5-14.3-4.5-14.3-5.4" class="st0"/>
  <path d="M106.6 105.2c0-4.9-3.3-6.1-6.5-6.1-3.3 0-6.8 1-6.8 6.1 0 5 3.5 5.9 6.6 5.9h.2c3.4 0 6.5-1.5 6.5-5.9M100 97.2c3.5 0 6-1.4 6-5.5 0-4-2.4-5.5-6-5.5-3.3 0-6 1.6-6 5.5 0 4.3 2.7 5.4 6 5.5" class="st0"/>
</svg>