<svg xmlns="http://www.w3.org/2000/svg" xml:space="preserve" id="Layer_1" x="0" y="0" style="enable-background:new 0 0 200 200" version="1.1" viewBox="0 0 200 200">
  <style>
    .st0{fill:#008060}
  </style>
  <path d="M100 0C44.9 0 0 44.9 0 100s44.9 100 100 100 100-44.9 100-100S155.1 0 100 0m0 197.2c-53.6 0-97.2-43.6-97.2-97.2S46.4 2.8 100 2.8s97.2 43.6 97.2 97.2-43.6 97.2-97.2 97.2" class="st0"/>
  <path d="M43 60.7c.1.1.2.2.3.2l.1-.1c2-2.4 3.9-4.9 5.9-7.3l2.1-2.7c.7-.9.9-2.1.5-3.1-.6-1-1.7-1.7-2.9-1.7-1 0-1.8.6-2.4 1.4-.9 1.1-1.7 2.2-2.6 3.2-1.8 2.2-3.5 4.4-5.3 6.6.9.7 1.8 1.5 2.7 2.2.6.5 1.1.9 1.6 1.3" class="st0"/>
  <path d="M100 4.5C47.3 4.5 4.5 47.3 4.5 100s42.7 95.5 95.5 95.5c52.7 0 95.5-42.8 95.5-95.5S152.8 4.5 100 4.5m-15.4 6 8.9-1 6.5 18.9 6.5-18.9 9 1 1 26.9-7-1-.7-17.9-6.3 17.9h-5l-6.3-17.9-.6 17.9-7 1 1-26.9zM24.3 54.7c-.7-.6-1.4-1.2-2.2-1.7l-.2-.2c.1-.2.2-.3.4-.5 1.9-2.3 3.7-4.6 5.6-7 2.2-2.7 4.3-5.4 6.5-8.1.4-.5.8-1 1.2-1.6.7-.9 1.7-1.6 2.8-2 2.3-.9 5-.3 6.8 1.4.9.8 1.5 1.9 1.8 3.1.3 1.2.2 2.4-.2 3.6.2-.1.3-.3.5-.4 2.1-1.5 4.8-1.9 7.2-.8 2.4 1.1 3.9 3.2 4.3 5.8.1 1 0 1.9-.2 2.9-.5 1.8-1.8 3.1-3 4.6-2.2 2.8-4.5 5.5-6.7 8.3-1.8 2.3-3.7 4.6-5.6 6.9-.1.2-.3.3-.4.5 0 0-.2-.1-.2-.2-.7-.5-1.4-1.1-2.1-1.6-2.7-2.2-5.4-4.3-8.1-6.5-2.7-2.1-5.5-4.4-8.2-6.5m75.7 105c-33 0-59.7-26.7-59.7-59.7S67.1 40.3 100 40.3c33 0 59.7 26.7 59.7 59.7S133 159.7 100 159.7m56.9-90.6-3.4-5.9 11.8-15.5-17.7 8.1-5-4.6L158.7 30l5 4.6-9.3 12.2 14.9-6.8 4.4 5.4-9.9 13 14-6.4 3.4 5.9-24.3 11.2z" class="st0"/>
  <path d="M42.8 43.7c.2-1 0-2-.7-2.8-.8-.9-2.2-1.2-3.4-.7-.8.3-1.3 1.1-1.9 1.8l-6.3 7.8s-.5.6-.4.6c.4.3.8.7 1.3 1l3.3 2.7c1.1-1.4 2.2-2.8 3.3-4.1 1.1-1.4 2.2-2.7 3.3-4.1.6-.7 1.2-1.3 1.5-2.2m.5 56.3H100V43.3c-30.9.8-55.8 25.8-56.7 56.7m56.7 56.7c30.9-.8 55.9-25.8 56.7-56.7H100v56.7z" class="st0"/>
</svg>