<svg xmlns="http://www.w3.org/2000/svg" xml:space="preserve" id="Layer_1" x="0" y="0" style="enable-background:new 0 0 200 200" version="1.1" viewBox="0 0 200 200">
  <style>
    .st0{fill:#008060}
  </style>
  <path d="M55.3 180.2c14.6 7.1 30.5 11.5 47.9 11.4 37.4-2.3 74.6-25.8 89.8-61.4 9.9-21.2 8.8-51.5-.8-72.6-10.4-24.9-36.9-42.3-61.2-49.2-4.1.6-8.3 2-10.5 5.8 16.9 5.9 33.2 14.5 45.9 29.8 17 19.2 21.7 50.4 11.2 74.2-13 30.7-45.2 49.6-77 52.4-20.5-1.7-38.7-8.9-54.6-21.6-25-20.2-35.5-52.5-24.8-82.9 8.2-25 34.5-44.6 58.5-51.8-2.2-4-6.6-5.3-10.7-5.9-9.5 3.1-18.7 6.9-27.3 12.1C16 35.7 1.2 62 .2 90.5c-2.6 38.4 21.5 72.9 55.1 89.7m45.2-7.7c32.4-2.8 65.2-21.6 78.6-53C191 92.9 184.8 59 164 38.6c-12-12.7-26.3-20.3-41.5-25.6.4-.8 1.6-1.3 2.5-1.9l10 3.3c-2.6-.4-5.2-1-7.8-.8 7.8 4.1 15.8 7.5 24.7 9.3 5.3 3.4 10.5 7.4 15.3 12-2.7-1.8-6.3-2.4-9.4-3.7 4.6 6.1 11 10.6 17.6 13.4l1.1.8c4.4 6 7.8 12.4 10.3 19.2-2.4-3.7-6-6.6-9.3-9.4 2 7.6 6.5 14.5 12.1 20.7 1.6 3.6 1.5 7.7 1.9 11.7.2 4.9.2 10.1-.5 14.8-.6-5.2-2.7-9.9-4.7-14.3-2.2 9-.6 19 2.2 27.1-2 7.7-5.6 14.7-9.6 21.5 1.6-4.6 1.2-11.1.8-16.4-2.4 4-4.5 8.1-5.8 12.6l-1.9 13c-4.7 5.9-10.7 11.4-16.7 15.7 4.6-4.8 6.3-10.8 7.8-16.8-4.7 3.7-9.6 8.7-11.9 14l-4 8.1c-7.5 4.6-15.6 8-24 10.5 6-3.4 11.7-9.1 15.4-14.9-6.4 2.9-13.4 5.4-18.4 11.7-2 1.7-2.8 5-5.7 5.4-4.5.9-9.3 1.4-14 1.8v-8.9zm45.2-152.1c-4.4-1.1-9.4-3.1-13.7-5.3 4.8 1.1 9.2 3.3 13.7 5.3m6.7-.4c4.2 3.2 8.7 6.7 12 11.1-4-3.7-8.5-6.7-12-11.1m21.5 22.7c-4.7-1.9-9-5-12.7-8.9 4.4 2.8 8.7 5.3 12.7 8.9m15 30.6c-4.1-4.2-7.3-9.4-9.3-14.7 3.4 4.8 6.9 9.5 9.3 14.7m.2 39.1c.1-7.3-.9-14-2-20.9 2.9 6.1 4.5 14.2 2 20.9M173.6 144c2.6-6.3 4-13 5.5-19.8.5 7.5-.5 14.5-5.5 19.8m-23.9 21.2c4.5-5.5 7.9-11.4 11.6-17.2-1.4 6.6-5.4 13.1-11.6 17.2M118 178.6c6.2-4.2 12.1-9.3 18.1-14-4.6 6.3-11 11.9-18.1 14m-17.5 3.6c8.7 5.1 21.5 5.8 31 2-6.1-1.4-11.6-4.3-18.6-3.6 5.3-1 10.4-2.4 15.6-4 9.6 2.3 20.3.9 27.9-5.1-6.2.1-13.2-.8-19 1.3 6.4-2.8 13.3-7.1 19.6-11.5 9.7-.5 19.1-4.4 24-13.4-5.2 2.2-11.2 3.1-16 6.5 5.5-5.1 10.4-11.1 14.3-17.1 9.4-3.5 16.5-13.4 16.9-23.1-3.2 4.1-8.5 7.7-11 12.4 4-8.7 6.2-18 7.2-27.9 5.1-7.3 6.7-18.5 3-27-1.5 3.9-2.7 7.9-3.3 12.2-.8-8.1-3-16.3-6.1-23.7.8-7.8-1-14.9-6.8-20.2-1-1-2.1-2-3-2.9.5 3.7 1.6 7.4 3.1 10.9-3.8-7.2-13.1-12.9-15.9-20.8-3.4-5.1-9-7-13.7-9.9v.5c1.4 2 2.8 4.2 4.7 5.9-8.9-5.8-18.4-10.1-28.4-13.2 4.2-2.7 8.4.2 12.4 1.4 20.2 7.1 41.4 22.4 51.3 42.8 12.3 23 12.7 57.4.1 80.3-17.5 34-52.7 54.3-89.5 56.1v-8.9zm3.3.6c7.8 1.1 15.9 1.6 24.2 1.7-7.7 2-17.2 1.8-24.2-1.7m27.7-6.5c7.1-1.1 14.7-1.5 21.6-3.4-6.1 3.8-14.1 4.6-21.6 3.4m28.8-16.2c6.2-2.8 12.4-5.8 18.1-9.9-4.1 6-11 9.1-18.1 9.9m22-25.4c4.7-5 9.4-10.9 12.6-17-1.3 6.8-5.9 13.7-12.6 17m10.2-37.9c.1-7.6 0-15.3 2.7-21.8-.2 7.5-1.1 14.8-2.7 21.8M184.8 57c-2.8-5.6-6.1-11-7.1-17.3 3.1 5.5 5.6 11.3 7.1 17.3m-107-44.2c-24.1 7.6-50.3 27.7-58.6 52.8C9 94.4 17.9 125.7 40 146.4c17 15.8 37.2 23.9 59.8 26.2v8.7c-5.3-.2-10.6-.9-15.6-2-3.6-3.8-6.7-8.4-11.2-11.2-3.7-2.1-7.6-4-11.4-5.8v.4c3.7 5.7 9.4 11.1 15.2 14.6-8.1-2.5-16.4-5.9-23.9-10.5-3.2-6-5.2-12.6-10.8-17.6l-5-4.6c1 4.7 2.4 9.4 5.1 13.6l2.6 3.4c-6-4.2-11.8-9.7-16.7-15.4-.9-5.8-1.2-11.9-3.3-17.2-1.2-2.9-2.8-5.8-4.4-8.6-.4 5.3-.8 11.7.8 16.4-4.1-6.7-7.4-13.8-9.6-21.3C14.4 107 16 97 13.8 88c-2.1 4.4-4.1 9.1-4.8 14.2-1-8-.5-17.4 1-25.3 3.2-4.8 7.6-9 9.8-14.3 1-2.5 2.2-4.8 2.9-7.3-3.3 2.5-6.9 5.7-9.4 9.3 2.6-6.9 5.9-13.3 10.4-19.3 5.1-3 10.5-5.1 14.9-9.8l3.8-4.2c-3.1 1.1-6.7 1.8-9.5 3.8 4.9-4.9 10.3-8.9 16-12.3 8.6-1.5 16.4-5.2 24.1-9-2.7-.2-5.3.4-7.8.8L75 11c1 .4 1.9 1.1 2.8 1.8m4.4 165.8c-7.1-2.2-13.5-7.7-18.1-14 6 4.8 11.9 9.8 18.1 14m-31.9-13.5c-5.9-3.7-10.1-10.4-11.6-17.2 3.8 5.8 7.1 11.8 11.6 17.2M26.6 144c-5-5.3-6-12.2-5.6-19.8 1.6 6.8 3 13.4 5.6 19.8m-15.5-31.6c-2.5-6.7-.9-14.8 1.9-20.9-1 6.9-2 13.7-1.9 20.9m.2-39c2.2-5.3 5.8-10 9.2-14.8-2 5.4-5.2 10.3-9.2 14.8m15.1-30.8c3.6-3.2 8.2-6.1 12.6-8.8-3.8 3.8-7.9 7.2-12.6 8.8m9.4-11.5c3.3-4.4 7.8-7.7 11.9-11.1-3.1 4.3-8 7.4-11.9 11.1m18.6-10.7c4.1-1.8 8.8-4.2 13.7-5.3-4.4 2.1-8.8 4.1-13.7 5.3M24.7 34.7C37.7 21.9 53 14.2 69.3 9.2c1.7.2 3.2.6 4.6 1.3-9.6 3.1-19.5 7.4-28.3 13.2 2-1.9 3.6-4 4.8-6.3-5.9 2.9-13.7 6.7-16 13.8l-1 2.2C28.6 37.7 24.3 42.7 21 48c1.2-3.1 2.5-7.2 2.9-10.9C16.4 43 13 50.9 14.1 60.4 10.9 67.7 8.9 75.6 8 84c-.5-4.4-1.9-8.3-3.3-12.3-3.9 8.6-1.9 20 3.2 27.5 1 9.6 3.1 18.7 7 27.2-2.4-4.4-7.8-8.2-11-12.3.5 8.5 5.4 16.9 13.4 21.2 4.6.9 5.5 6.2 8.6 9.1 3 3.4 5.8 6.9 9.3 9.9-4.9-3.4-10.7-4.2-16-6.7v.5c5.2 9.1 14.6 12.6 24.2 13.2 6.1 4.5 12.6 8.4 19.4 11.4-5.6-2.1-12.8-1.1-19.1-1.3 1.6 1.6 4.1 2.8 6.3 3.8 6.4 2.9 14.7 2.8 21.8 1.3 5 1.5 10.1 3 15.3 4-7-.6-12.5 2.2-18.6 3.6 9.6 3.8 22.4 3 31-2l.2 8.7c-38.8-1.4-77.5-25.5-92.6-62.4-12.2-30.9-6.5-70 17.6-93.7M15.4 57c1.6-6.1 3.9-11.8 7.2-17.3-1.1 6.4-4.5 11.7-7.2 17.3M7.7 96.8C6.1 89.8 5.2 82.5 5 75c2.7 6.5 2.6 14.2 2.7 21.8m10.3 38c-6.7-3.3-11.4-10.2-12.7-17.2 3.3 6.2 7.6 11.8 12.7 17.2m21.9 25.3c-7.1-.8-13.8-3.7-18.3-9.9 5.8 4 12 7.1 18.3 9.9m28.8 16c-7.3 1.5-15.6.6-21.6-3.3 6.9 1.9 14.3 2.5 21.6 3.3m27.6 6.7c-7 3.5-16.4 3.8-24.1 1.7 7.9-.1 16.3-.6 24.1-1.7" class="st0"/>
  <path d="m30.6 58.4 11.9 20.4.5 9.2 1.8 24 1.3 9.6c.9 6 7 10.3 12.2 12.4 13.5 5.3 27.7 9.1 41.9 12.9 13.7-3.6 27.2-7.5 40.4-12.3 5.4-2 12.1-6 13.3-12.3 2.4-13.9 3.2-28.5 3.8-43.2l12-20.7-3-.4-41.5-5.1-25.7-2.6-20 2.1-48.9 6zm69.9-6.1 43.9 4.9 21.9 2.9-10.7 18.3c-.6 13-1.4 26-2.8 38.7-.8 4.4-1.5 9-5.7 11.8-4.2 3.1-9.1 4.5-13.9 6.3-10.7 3.7-21.8 6.6-32.7 9.7l-.1-8.6c14-3.5 29.1-4.5 42.1-10.5 3.8-1.7 5-5.6 5.3-9.3l1-39.9c2.3-3.9 4.6-7.8 6.8-11.7l-55.1-.1V52.3zm.7 67.4h45.1c-1.2 5.4-7.1 6.2-11.3 8l-11.2 2.8-22.5 4.4-.1-15.2zm-1.4-54.1h.6v15.1l23.6.1.2-.3V65.6h29.9l-2.8 5H125c-.4 1.4-.1 3.1-.2 4.6l.3.2h23.2c-.9 1.7-.4 4-.5 6l-22.9.2-.1 15.6.3.2h22.3v.6h-46.7l-.2.3v10.8l46.7.1c.2.1.1.4.1.5l-46.6.1-.1 8.2.3.3h46l-.2.6h-46l-.1 16c-.1.2-.4.1-.6.1l-.1-20.6-23.6-.1-.2.4v15.7c-6.2-1.4-12.5-2.7-18-5.6h17.2c.4-1.4.1-3.2.3-4.7l-.4-.2H53.8c-.4-2-.6-4-.7-6l22.1-.1.3-.3V98.2l-.5-.3H52.7v-.6h46.8l.3-.4V86.2L52.5 86v-.6l47.1-.1.2-8.3-47.4-.1c-.2-.2-.1-.5-.1-.7h47.3l.2-10.6zm47.5 33.2-.1 9.5h-46v-9.5h46.1zM52.5 87h46.4v9.5H52.7l-.2-9.5zm-.7-11.4L46 65.7h52.9v9.8l-47.1.1zm47.7-23.3v12.5H44.6l.1.7 6.7 11.3.8 38.4c.3 3.2.4 6.5 2.9 8.8 5 3.7 11 5.1 16.9 6.6l27.4 5.5h.1c.2 2.8 0 5.8.1 8.7-14-4-28.3-7.6-41.8-13.1-5.4-2-10.1-7.2-10.3-13.1-1.5-13.2-2.5-26.5-3-40.1-3.4-6.2-7.3-12.3-10.7-18.5l45.6-5.6 20.1-2.1z" class="st0"/>
  <path d="M123.9 87h-23.2v4.8l23.4-.1c-.1-1.6.2-3.2-.2-4.7M76.2 104h23.4v3.8H76.2z" class="st0"/>
</svg>