<svg xmlns="http://www.w3.org/2000/svg" xml:space="preserve" id="Layer_1" x="0" y="0" style="enable-background:new 0 0 200 200" version="1.1" viewBox="0 0 200 200">
  <style>
    .st0{fill:#008060}
  </style>
  <path d="M44.8 88h32.4c1 0 1.3.5 1.3 1.3V94c0 1.4.8 2.1 2.1 2.1h36.6c1.2 0 2.1-.6 2.1-2.1v-4.7c0-1 .4-1.4 1.3-1.4h20.3c1.4 0 2.4-.4 3.1-1.7l10-19.6c.2-.4.4-.7.4-1.2 0-1.4-1.2-1.8-1.9-1.8h-31.9c-.8 0-1.3-.2-1.3-1.3v-4.7c0-1.4-.8-2.1-2.1-2.1H80.6c-1.4 0-2.1.8-2.1 2.1v4.7c0 1-.5 1.3-1.3 1.3H56.3c-1.6 0-2.5.8-3 1.8L43 85.3c-.1.2-.2.5-.2.9 0 .8.5 1.8 2 1.8m8-7.9 4.9-9.5c.2-.4.5-.6 1.2-.6h24.6c.8 0 1.4-.3 1.4-1.4v-5.4c0-1 .4-1.4 1.3-1.4h25.3c.9 0 1.3.4 1.3 1.4v5.5c0 .9.4 1.3 1.4 1.3h29.1c.9 0 1.2.6 1.2 1.1 0 .2 0 .4-.1.5l-4.8 9.5c-.3.5-.8.5-1.2.5h-24.1c-1 0-1.4.5-1.4 1.4v5.5c0 .9-.4 1.3-1.4 1.3H86.2c-.8 0-1.4-.3-1.4-1.3V83c0-1-.5-1.4-1.4-1.4H53.9c-.7 0-1.2-.4-1.2-1.1 0-.1 0-.3.1-.4" class="st0"/>
  <path d="M122.6 60.2h.4l.6 1h.3l-.7-1c.4 0 .7-.2.7-.6 0-.5-.4-.6-.8-.6h-1v2.3h.3v-1.1zm0-1h.6c.2 0 .5 0 .5.3 0 .2-.1.4-.5.4h-.6v-.7z" class="st0"/>
  <path d="M123.1 62c1.1 0 2-.9 2-2s-.9-2-2-2-2 .9-2 2c-.1 1.1.8 2 2 2m0-3.6c.9 0 1.7.8 1.7 1.7 0 .9-.7 1.7-1.7 1.7-.9 0-1.7-.8-1.7-1.7 0-1 .7-1.7 1.7-1.7M26.2 131.7h8.6v12.8h6v-28.7h-6v11.5h-8.6v-11.5h-6v28.7h6zM185.9 144.5h6v-24.3h8.1v-4.4h-22.3v4.4h8.2zM146.1 115.8h-6v28.7h17.1v-4.4h-11.1zM73.3 144.5h5.5c1.6 0 2.7-.8 3.1-2.5l7.1-26.2h-5.3l-6.2 23.9c-.1.3-.3.4-.6.4s-.5-.1-.6-.4L70 115.8h-7l7.2 26.2c.4 1.7 1.5 2.5 3.1 2.5M4.5 144.5h13.4v-4.4H8.2c-1.7 0-2.2-.4-2.2-2.2v-15.6c0-1.7.4-2.2 2.2-2.2h9.7v-4.4H4.5c-3.1 0-4.5 1.6-4.5 4.5V140c0 3.2 1.6 4.5 4.5 4.5M52.5 120.2h9.8v-4.4H48.8c-3.1 0-4.5 1.5-4.5 4.5V140c0 3 1.5 4.5 4.5 4.5h14.8v-4.4H52.5c-1.7 0-2.2-.4-2.2-2.2v-6.3h11.9v-4.4H50.3v-4.9c0-1.6.4-2.1 2.2-2.1M111 127.9v-7.6c0-3-1.4-4.5-4.5-4.5H89.8v28.7h6v-24.3h7c1.9 0 2.2.5 2.2 2.2v3.5c0 1.7-.5 2.2-2.2 2.2h-3.3c-1.3 0-2 .8-2 2 0 .6.3 1.1.6 1.5l7.6 12.9h7.4l-7.9-12.1h1.3c2.8 0 4.5-1.3 4.5-4.5M125.4 144.5h6.6c2.9 0 4.5-1.4 4.5-4.5v-19.8c0-2.9-1.4-4.5-4.5-4.5h-13.2c-3.2 0-4.5 1.6-4.5 4.5V140c0 3.2 1.7 4.5 4.5 4.5h6.6zm-5.1-22.1c0-1.5.2-2.2 2.2-2.2h5.8c1.6 0 2.2.3 2.2 2.2V138c0 1.8-.6 2.2-2.2 2.2h-5.8c-1.7 0-2.2-.5-2.2-2.2v-15.6zM162.9 144.5h14.8v-4.4h-11.1c-1.7 0-2.2-.4-2.2-2.2v-6.3h11.9v-4.4h-11.9v-4.9c0-1.7.4-2.2 2.2-2.2h9.8v-4.4h-13.5c-3.1 0-4.5 1.5-4.5 4.5V140c0 3 1.5 4.5 4.5 4.5" class="st0"/>
</svg>