<?xml version="1.0" encoding="utf-8"?>
<!-- Generator: Adobe Illustrator 25.2.1, SVG Export Plug-In . SVG Version: 6.00 Build 0)  -->
<svg version="1.1" id="Layer_1" xmlns="http://www.w3.org/2000/svg" xmlns:xlink="http://www.w3.org/1999/xlink" x="0px" y="0px"
	 viewBox="0 0 200 200" style="enable-background:new 0 0 200 200;" xml:space="preserve">
<g>
	<path d="M52.2,170.9c-0.5-1.5-2.3-6.5-3.3-9.4c-1.1-2.9-2.8-8.3-3.1-9.3c-0.3-0.9-0.3-1.3-1.3-1.5c-1-0.1-3.6-0.3-4.9-0.2
		c-0.2,0-0.6,0-0.8,0.7c-0.2,0.6-2.2,6.7-3,9.2c-0.9,2.5-3.3,9.7-3.7,10.7c-0.3,1-2.5,7.6-2.9,8.7c-0.3,1.1-0.4,1.5,0.3,1.5
		c0.7,0,1.3,0,2,0c0.7,0,1,0,1.3-0.5c0.3-0.7,2.6-7.6,2.6-7.6h5.3c2.3,0,5.4,0,5.4,0s0.4,0.7,1.3,3.7c0.9,2.9,1.2,4.5,2.6,4.5h4.8
		c0.7,0,0.9-0.3,0.9-0.8c0-0.5-0.5-1.7-0.5-1.7S52.7,172.4,52.2,170.9 M40.6,170c-2.6,0-4.3-0.1-4.3-0.1s0.4-1.3,2-6.3
		c1.6-5,2.2-6.5,2.2-6.5s0.7,1.7,2.4,7c1.7,5.2,1.9,6,1.9,6S43.2,170,40.6,170"/>
	<path d="M128,170.9c-0.5-1.5-2.2-6.5-3.3-9.4c-1.1-2.9-2.8-8.3-3.1-9.3c-0.3-0.9-0.3-1.3-1.4-1.5c-1-0.1-3.6-0.3-4.9-0.2
		c-0.2,0-0.6,0-0.8,0.7c-0.2,0.6-2.2,6.7-3,9.2c-0.8,2.5-3.4,9.7-3.6,10.7c-0.3,1-2.5,7.6-2.9,8.7c-0.4,1.1-0.4,1.5,0.3,1.5
		c0.7,0,1.2,0,2,0c0.7,0,1.1,0,1.3-0.5c0.3-0.7,2.6-7.6,2.6-7.6h5.2c2.3,0,5.4,0,5.4,0s0.4,0.7,1.3,3.7c0.9,2.9,1.2,4.5,2.6,4.5h4.8
		c0.7,0,0.9-0.3,0.9-0.8c0-0.5-0.5-1.7-0.5-1.7S128.5,172.4,128,170.9 M116.4,170c-2.6,0-4.3-0.1-4.3-0.1s0.4-1.3,2-6.3
		c1.6-5,2.2-6.5,2.2-6.5s0.7,1.7,2.4,7c1.7,5.2,1.9,6,1.9,6S119,170,116.4,170"/>
	<path d="M67.4,151.5c0-0.9-1.5-0.8-2.3-0.8c-0.8,0-2,0-3.1,0c-1.2,0-1.5,0.5-1.5,1.8c0,1.3,0.1,7,0.1,9.5c0,2.5,0.1,16.3,0.1,17.9
		c0,1.6,0.7,1.7,1.8,1.7c1.1,0,2.8-0.1,3.9-0.1c1.1,0,1.3-0.6,1.3-2c0-1.4-0.1-11.7-0.1-13.9C67.6,163.3,67.4,152.4,67.4,151.5"/>
	<path d="M98.7,150.6c-1.1,0-2.2,0-3,0c-0.8,0-2.2,0-2.2,0.8c0,0.7-0.1,8.4-0.1,12.2c0,0-2.2,0-5.4,0c-3.2,0-4.8,0-4.8,0
		c0-3.8-0.1-11.5-0.1-12.2c0-0.9-1.4-0.8-2.2-0.8c-0.8,0-1.9,0-3,0c-1.1,0-1.4,0.5-1.4,1.8c0,1.3,0.1,7,0.1,9.5
		c0,2.5,0.1,16.3,0.1,17.9c0,1.6,0.7,1.7,1.8,1.7c1.1,0,2.7-0.1,3.7-0.1c1,0,1.2-0.6,1.2-2c0-1.2,0-8.6-0.1-12.3c0,0,3.3,0,4.7,0
		c1.4,0,5.4,0,5.4,0c0,3.7,0,11.1,0,12.3c0,1.4,0.1,2,1.2,2c1,0,2.6,0.1,3.7,0.1c1.1,0,1.8-0.1,1.8-1.7c0-1.6,0-15.4,0-17.9
		c0-2.5,0.1-8.2,0.1-9.5C100.1,151.2,99.8,150.6,98.7,150.6"/>
	<path d="M152,151.1c-0.9-0.1-6.8-0.2-8.1-0.2c-1.2,0-6.1,0-7,0c-0.9,0-6.8,0.1-7.3,0.1c-0.4,0-0.6,0.5-0.6,1.6
		c0,1.1,0.1,1.8,0.7,1.8c0.6,0,5.2,0,6.4,0c0.6,0,0.9,0,1.1,0c0.2,0,0.4,0,0.4,0.2c0,0.2,0.1,4.5,0.1,6.2c0,1.6-0.1,6.1-0.1,7.8
		c0,1.8,0.1,7.6,0.1,8.3c0,0.7,0,2.5,0.1,3.5c0,1,0,1.2,0.4,1.3c0.5,0.1,2.2,0.3,3.4,0.3c1.3,0.1,2.8,0.3,2.8-1.5c0-1.8,0-7.7,0-8.2
		c0-0.6,0-6.6,0-7.1v-7.1v-3.2c0-0.3,0.1-0.4,0.4-0.4c0.3,0,3.7,0.1,5,0.1h2.1c0.3,0,0.7,0.1,0.7-0.4c0.1-0.5,0.1-1.5,0.2-2.1
		C152.9,151.5,152.8,151.1,152,151.1"/>
	<path d="M159.5,157.2c0-1.8,1.3-3.3,4.3-3.3c4.6,0,5.9,2.1,6.7,2.1c0.3,0,0.4-0.2,0.4-0.6v-2.3c0-0.5-0.1-0.7-0.9-1.1
		c-0.9-0.4-3.3-1.2-6.6-1.2c-4.1,0-9.1,1.2-9.1,8c0,9.2,12.8,10.6,12.8,17.2c0,1.2-0.5,3.1-3.8,3.1c-5.7,0-7.1-2-8.4-2
		c-0.4,0-0.5,0.7-0.5,1.4v1.2c0,0.4,0,0.9,0.8,1.1c0.8,0.2,4.6,1.3,7.5,1.3c4.3,0,9.9-1.7,9.9-8.2
		C172.8,164.8,159.5,162.4,159.5,157.2"/>
	<path d="M198.7,151.5c-0.7,0-1.7,0-2.2,0c-0.4,0-0.5,0.3-0.5,0.9c0,0.6,0.1,3.7,0.1,5.6c0,3.7,0.1,12.8,0.1,15.3
		c0,6.2-4.6,6.2-5.8,6.2c-6.4,0-5.9-5.8-5.9-8.9c0-1.7,0-5.6,0-6.7c0-1.2,0-7.5,0-9.9c0-2.4-0.6-2.5-1.3-2.5c-0.6,0-1.3,0-2.1,0
		c-0.8,0-1.4,0.1-2.3,0.1c-0.9,0-1,0.4-1,1.1c0,0.6,0.1,14.8,0.1,19.9c0,5.1,3.3,10.1,12.8,10.1c9.5,0,9.3-7,9.3-8.9v-9.2
		c0-8.7-0.1-11.8-0.1-12.3C199.9,151.5,199.5,151.5,198.7,151.5"/>
	<path d="M11.7,150.5H1.4c-0.9,0-1.4,0-1.4,1c0,1,0,10,0,15.2c0,5.2,0.1,12.7,0.1,13.4c0,0.7,0,1.1,1.8,1.2c1.8,0.1,8.7,0,10.8,0
		c8.4,0,12.7-6,12.7-14.7C25.4,152.3,17.4,150.5,11.7,150.5 M10.7,178.1c-1.7,0-3.8-0.1-3.8-0.1v-23.4c0-0.8,0.6-0.7,1.1-0.7h2.4
		c3.7,0,8.2,0.1,8.2,11.8C18.6,177.5,14.5,178.1,10.7,178.1"/>
	<path d="M0,136h200V17.6H0V136z M24.2,46.3l45.6,45.5c0,0,112-9.9,112-21.6c0-7.1-50-13.3-74.5-15.3c-21.9-1.8-46.1-1.7-46.1-1.7
		L95.2,87L71,89.4L27.8,46.3c0,0,28.2-1.7,79.6,2.9c51.4,4.6,79.8,12.5,79.8,20.7c0,21.9-139.1,43.3-139.1,43.3l12.4-19.4L13,46.9
		L24.2,46.3z"/>
</g>
</svg>
