<svg xmlns="http://www.w3.org/2000/svg" xml:space="preserve" id="Layer_1" x="0" y="0" style="enable-background:new 0 0 200 200" version="1.1" viewBox="0 0 200 200">
  <style>
    .st0{fill:#008060}
  </style>
  <path d="M26.1 13v3.9l73.9-13 73.9 13V13L100 0z" class="st0"/>
  <path d="M26.1 20.7V73.3c0 21 4.9 42 14.7 62.2 22.9 47.5 58.3 64.2 58.7 64.3l.5.2.5-.2c.4-.2 35.8-16.8 58.7-64.3 9.8-20.2 14.7-41.2 14.7-62.2V20.7L100 7.8 26.1 20.7zm145.3 52.6c0 20.6-4.9 41.2-14.5 61.1-21 43.5-52.5 60.6-56.9 62.8-4.4-2.2-36-19.3-56.9-62.8-9.6-19.9-14.5-40.5-14.5-61.1V35.4c4.1-2.1 29.1-14 71.5-14s67.2 11.9 71.3 14v37.9z" class="st0"/>
  <path d="M125.9 150.2c-2.4-.6-5-1-7.7-.4-2.7.5-4.1 2-4.5 4.2-.3 1.6 1.6 2.6 3.3 2.2 1.8-.4 2.3-2.5 2.3-2.5s-1.1.9-2.3 1.1c-1.2.2-1.8-.6-1.5-1.4.6-1.5 1.6-1.9 2.6-2.1 1-.1 2.2-.2 4.4 0s3.3.6 2.7 1.6c-.7 1.3-1.5 1.4-2.6 4.2-.5 1.2-.4 1.8-1.1 1.8-.4 0-1.5-.2-2.3.5-1 .8-.8 2-.8 2s.6-1.2 2.5-1.2c.4 0 .2 1.1-.3 2-.4.9-2.6 6.6-7.1 6.6-4.8 0-5.5-4.7-5.2-5.3.5-1.2 1.3-.1 2.2-.3.9-.3 1.8-1.7.6-2.6-2.9-2-5.6 2.9-2.6 7.1 2.8 4.1 7.3 2.5 9.6 1.3s3.6-3.7 4.4-5.3c.8-1.6 1.5-3.3 1.5-3.3s1.6 0 2.4-.4c1.3-.6 1.9-1.8 1.9-1.8s-1 .6-3.8.5c-.3 0 .4-1.7 1.2-3.1.8-1.6 1.8-2.9 2.5-3.2.9-.3 3.5 0 6.5-.8 2.9-.8 5.1-2.5 5.1-2.5s-2.9 1.1-7.7 1.4c-2.1 0-3.8.3-6.2-.3M81.9 156.4c-3.5-1.4-5.5-2.1-5.5-3.8 0-2.8 3.5-2.1 4.3-1.8 4.6 1.5 6.2 4.9 6.2 4.9s-.7-4.5-.9-5.3c-.2-.8-.7-.7-.9-.7-.6 0-.6 1-.6 1s-11.3-4.7-11.3 2.7c0 3.5 3.7 4 5.3 4.9 3.4 1.8 7.5 2.8 7.9 5.5.3 2.4-1.8 5-6.4 5-4.6 0-6.5-4.4-6.4-5.2.2-.8 1-.3 1.7-.3s1.8-.7 1.3-2.1c-.4-1.1-4-1.2-4 2.4 0 5.1 5.1 6.6 7.3 6.6s6.7-.8 7.7-5.4c1.3-4.9-1.1-6.6-5.7-8.4M100.8 133.2l1.9.9c1.1.4 1.8.2 2 .1.3-.1 1.2-1.2 1.5-2.1.1-.4 0-.7-.2-.9-.7-.9-2-4.8-2.4-6.9-.2-.8 0-3 .2-4.7.1-1.5.2-2.4.2-2.7-.1-.4-.7-.7-1.3-1.1l-1-.7c-.5-.4-.5-1-.6-1.7l-.1-1c-.2-.9-5-5.8-5.7-5.8-1-.1-1.3 1.1-1.4 1.8 0 .4.4 2.2.9 3.9l.5 1.9c.5 3.1 3.8 8.5 5.1 10.9l.7 1.1c.3.6.2 1.2-.4 1.5-.5.3-4.7-.2-6.8-.6-.9-.2-2-.6-3-1.1-1.2-.5-2.3-.9-3-1-.8 0-1.1.1-1.4.2l-.5.1-.4-.2c-.6-.2-1.6-.7-4.5-.9-4.2-.4-4.5.4-4.7.9-.2.6 2.4 3.3 2.8 3.7.6.5 2.5 1.2 3.6 1 1.3-.2 3.4-.5 3.7-.4l.4.3.4.3c.4.1 2.7.3 3.4.3.8.1 3 .5 4.5.8l1.7.4c.7.1 2.5 1 3.9 1.7m1.7-5c.3 0 .6.3.6.6 0 .4-.3.6-.6.6-.4 0-.7-.3-.7-.6s.4-.6.7-.6m-22.4-1.1c-.6 0-1-.3-1-.7 0-.4.4-.7 1-.7.5 0 1 .3 1 .7-.1.4-.5.7-1 .7m8 .1c-.4 0-.7-.2-.7-.5s.3-.5.7-.5c.4 0 .7.2.7.5-.1.3-.4.5-.7.5m6.1 1.9c-1.2-.3-3.5-1-3.4-1.5v-.1c.4-.2 2.2.1 3.6.5 1.2.3 3.6 1 3.4 1.5v.1c-.4.2-2.1-.1-3.6-.5" class="st0"/>
  <path d="m99.4 28-.5 1-.5.7c0 .1.1.8.1.8 0 .1.5.5.5.5l-.2.7h-1.9l-1.6-.7-1.2-.4-2.8.1-.5.8v.1l1.2.4s.2.1.3.2l-.3.3-1.7-.1-1.2.5-.1.1.6.4 2.6.1 1.9.5.3.5s.3.4.4.5c-.1.1-.8.4-.8.4l-2.3 1-5 2.6-3.1.5-1.2.7-1 1.4-.6 1.7c0 2.8.1 2.9.1 2.9 0 .1.9.5 1.5.2.7-.4 2.3-.8 3.1-1 .3-.1.5.1.6.2 0 .2-.1.4-.4.5h-.2c-1.4.4-2.8.8-2.8 1.4l.2.4c.6.4 2.3.2 3.1 0l.9-.2c.8-.2 1.7-.5 2.4-.4.4.1.8.2 1.3.4.6.3 1.3.6 2.4.7 1.7.1 2.9.5 3 .6.2.5.1 1.2 0 1.7v.6c-.5 4.4-5.4 9.4-7.8 11.8-.7.6-1.1 1.1-1.2 1.2l-.3.6c-.2.6-.4 1.1-1.2 1.4-.4.2-1.4 1-2.6 1.8-1.7 1.3-3.8 2.8-4.4 2.8-1-.1-5.5-3.2-5.7-3.4-4.4-4.3-6.3-3.4-7.4-2.9l-.2.1c-1.3.6-2.7 4.3-2.8 5.1l-.6 2.3-.4 1.7c-.1.6-.7 2-1.2 3.3l-1.1 3c-.2.7-.6 1.7-1 2.4l-.4 1.1c-.3 1.4-.3 8.8.2 9.4h.1c.6-.1 1.8-1.3 2.4-1.9l.1-.1c.5-.5 1-1.9 1-2.4s-.3-1.7-.3-2c-.8-2.4-.5-4.8-.4-5.9l.1-.5c0-.5.5-1.1 1.1-1.6l.6-.7c.3-.5.7-.6 1.1-.8l.5-.3.1-.1c.4-.4 1-1 1.3-1.9l.5-2.3.1-.6c0-.1.1-.2.2-.2.2-.1.6.1.7.3l3.9 4.5c1 .9 2 1.9 2 2.1-.6.1-3.3-.5-3.8-.7-3.8-1.1-5.5-.9-6.8.7-1.5 1.9-1 7.7-.7 8.3.3.6 1.7 7.6 1.7 8.6.1.9.4 2.6.8 2.9l.1.1c.4.5 1.7 1.7 1.9 2.9.2 1.3 3 4.8 4.1 5.1.2 0 .3 0 .4-.1.8-.6 1.2-3.4 1.2-4.6 0-1.5-.5-2.2-1-3l-.2-.3c-.4-.6-1.1-.8-1.6-.9-.2 0-.5-.1-.5-.2 0 0-.1-2.2-.7-2.6-.5-.3-1.1-2.4-1.2-3.2-.1-.8-.4-2.7-.8-3.5-.4-.9-.8-2.4-.6-3.6.1-.5.5-.7.8-.7.5-.1 1.1.1 1.2.3.2.4 4.2 2.8 5.5 3.3.8.3 1.9 1.2 2.9 2.1.7.6 1.3 1.1 1.7 1.3.5.3 2 .3 3.1.3.6 0 1.3 0 1.3.1-.4.2-.4 1-.4 1.3.5 3.4 12.9 12.8 13.9 13.3 1.1.6 5.1 4.8 5.4 5.3.4.6.7 1.2.7 1.6-.1.7.2 1.5.8 2.1.5.6 1.2 1 1.9 1 .6 0 .9-.5 1.2-.9l.1-.1c.7-1 1.8-2.4 2-4.7.1-2.3 1.2-3.2 1.6-3.3.1 0 .3 0 .3.1.1.1 0 .3-.2.4-.5.3-.7 1.3-1 2.4l-.1 1.1c0 .8-.1 1.8-.9 2.7-1.2 1.3-2.7 4.4-3 8.3-.2 2.3.8 5.7 3.1 10l.1.3.6 1.1c.7 1 1.7 2.7 1.6 3.1-.1.6-.1 1-1.1 2.2-1.1 1.3-4.9 5.8-5.3 5.9-.8 0-.9.1-1.5.6l-.7.5c-.7.5-.8.9-1 1.2-.1.2-.2.5-.5.7l-.2.2c-.1 0-.2.2-1.7 1.8-1.8 1.8-2.6 3.7-2.3 5.7.1.6.6.8 2.2.9 1.6.1 5.2-2.4 5.3-3.3v-.3c.1-.7.4-2 .8-2.2.5-.2 1.3-1.2 2-1.9l.1-.1c.3-.4.4-.8.5-1.1.1-.3.1-.6.3-.9.1-.2.4-.3.6-.4.5-.2 1.1-.5 1.5-1.6.4-1.1 3-2.9 4.9-4.3.9-.7 1.7-1.2 1.9-1.5.3-.3.4-.9.4-1.6 0-.8-.2-1.6-.7-2.1-.7-.7-1.4-2.6-1.6-3.2 0-.2 0-.7-.1-1.6v-.1c0-2.3 3.4-4.6 4.9-5.6l.6-.4c5.4-4.8 6.4-8.3 6.6-9.3l.1-1.2c0-.8.1-1.6.6-1.7.2 0 .5.1.7.3.1.1.3.4.2.7-.2.7-.4 7.3-.4 7.6.1 0 .6.7.6.7l.1.1v-.1c0-.1.3-1.9.3-2.6 0-.7 1.2-3.8 1.4-3.8.1.4.3 1.5.3 2.6s-.2 2.2-.7 2.9c-.8 1-1.4 2.6-1.9 3.6l-.4.9c-.1.1-.1.2-.1.4 0 .9.4 2.7.7 3 .1.1.1.1.2.1s.2-.2.2-.9c0-2.7 2.2-4.7 2.3-4.7 2-1.6 2.4-4.5 2.4-6.8 0-1.7-.2-3-.3-3 0 0-.9-1.4-1-1.4.1 0 .3-.2.4-.3.1.1 1 1.3 1 1.3.2.2.6.8.6 1.1 0 1.4.2 2.3.3 3v.1c.1.8 1.2 3.1 1.2 3.2l.1.2v-.3s.1-1.2 0-2.3c-.1-.6 0-1.3.1-2.1l.2-1.8c0-1.5-.2-2.4-.7-3.2l-.3-.4c-.1-.2-.2-.3-.2-.4l.2-.1c4.2-1.4 6.2-4.5 7-6.3.8-1.8.9-4.6.9-5.2 0-.7 0-4.4-.6-6.2-.4-1.1-.2-2.3-.1-3.6l.1-2.2c0-1.5.8-2.6 1.5-3.7l.9-1.4c.6-1.2.3-2.2 0-2.5-.1-.1-.2-.1-.2-.1s-.1.1-.1.2c-.1.6-.9 2.1-1.4 2.3-1.2.5-1.8 1.9-2.2 2.9-.3.5-.5 1-.7 1l-.2-.2c-.7-1.3-.3-3.2 0-4.7v-.4c.3-1.3 1.8-3.1 2.7-4.2l.4-.5c.6-.8.8-3.4.7-3.6h-.1v.1s-.1 0-.1.2c-.2.8-1.7 2.5-4.2 4.7-.5.4-1.1 1.3-1.6 1.9-.3.5-.7.9-.8 1-.6-3.4.5-5.3 1.1-6.2l.2-.5c1.1-3 3.9-5.2 3.9-5.2v-.2c-.1-.1-.3 0-.6.1l-.1.1c-1 .5-3.9 1.9-5.7 5.3-1.3 2.5-1.8 5.2-1.8 7.3 0 1.1.1 1.9.4 2.5.6 1.7 1.7 5.9 2 7.5.2 1 .3 4.5.3 6.7V98l-.6 1.8s-.3 1.4-2.5 3.7c-2.3 2.3-4.8 3.1-4.8 3.1-1 .1-1.9 0-2-.1 0-2.7-4.6-8.9-6.9-10.9-2.4-2.1-4.3-3.6-7.6-5.6-3.3-2-6.9-10.4-7-10.5l-.3-1.1s-.2-2.3-.2-2.9c.1.1.3.2.3.2l1.1.7 1.3.5 1.7.3 1 .5.9.6 1.3 1 1.4.7 1.6.1V80l-1.9-.9-.7-1.2-.8-1.1-1-.6-1.2-.2s-.3-.2-.4-.3c.1-.1.3-.2.3-.2l1.3.2 1.2.8 1.3 1 1.2.5.2.1-.5-1.4-1-.9-1.4-1.2-1.2-.6-1.2-.4-1.3-.8v-.2c.2.1 1.8.7 1.8.7l2.4.7 1.2.5 1.9.9 1.5.3 1.9-.3 1.8-1.2.3-.8.1-.2-.6.2-1.6.8-1.1.3-1.3-.3-1-1-1.4-1.4-1.3-.7-1.5-.2-.9-.5v-.5c.2 0 1.9.2 1.9.2l2.1-.2 1.2.2 1.2.5 1.2.2h.2l-1.4-1.3-1.4-1-1.1-.4-1.9-.2v-.5c.1 0 .9-.1.9-.1l1.4.3 1.3.8 1.4.5 2.1-.3h.1l-.6-.8-1.1-.4-.9-.6-1.3-.9-1-.3-1.5-.2s-.7-.7-.8-.7c0 0 .1-.3.1-.4.1 0 .8.2.8.2l1 .5 1.5.5-.3-.6-.6-.6s-.4-.4-.5-.6c.1 0 .2-.1.2-.1l1.6.8 1.2.4.9.9 1.8 1 .2.1-.3-.9-1-1.2-.8-1.4-1.4-1.5-1.9-1-.7-.8-1.3-1.3s-.1-.5-.2-.7c.2.1 1.3.4 1.3.4l1.5.4 1 .7.9 1 1.4.6 3.5.5h.2l-.9-1-1.9-.8-1.1-.8-.6-1.1-.6-1.1-1-1-1.3-.7-1.3-1s-.3-.6-.5-1.1l.9.9 1.7 1.5 1.3.6 1.1.9 1.3 1.3 2.1.3h.2l-2-1.7-.4-1.4-1.1-1-.5-.6-.6-1.7-1.1-1.2-1.8-1.7s-.1-.3-.1-.5c.1.1.3.2.3.2l1.7 1 2 .6 2.1.5 2.4.4-.6-1.2-1.2-.5-1.1-.6-1.4-.6-1.2-.5s-.8-1-1.2-1.6c.4.3 1 .7 1 .7l1.1.1h3.3l1.3.7 1.1 1.2.2.1-.2-1.4-.7-.9-1.9-1.1-1.5-.6-2.3-.4-.4-.5-1.7-1.6-.8-.4-.4-.4h.9l1.3.8 1.8.6 2.3.3.8.9 1.2.8 1.4.2h.2l-2.8-3.5-1.4-.8-1.6-.5-1.4-1.6-1.7-1.1s-1-.3-1.3-.3c.1-.1.3-.6.3-.6l1.4-.6 2.1-.4c.1 0 .2-.5.2-.5 0-.1-.9-.7-.9-.7l-1.1-.3c-.1 0-.6.3-.6.3l-1.7.1-2.1-.5-2.2-1.8-.9-.5-3.6-.4-.8-1.3-1.1-1.2-1.4-1.3h-.7zM83.6 44l-.3.2c-.4.4-.6.5-1 .3-.2-.1-.3-.5-.3-.7 0-.5 0-1.1.4-1.4l.2-.2c.1-.2.3-.4.7-.4.3 0 .8.1 1 .3.1.1.2.3.2.6-.1.6-.6.9-.9 1.3m2.5-1.3v.2c-.1.2-.1.3-.4.2-.2 0-.3 0-.3-.1-.1-.1-.1-.2 0-.2v-.2c-.1-.2-.1-.4 0-.6 0 0 .1-.1.2 0 .2 0 .4.1.5.3.1.1 0 .3 0 .4m1.6 2.8c-.3 0-.5-.2-.5-.5s.2-.5.5-.5.6.2.6.5c-.1.3-.3.5-.6.5m4.5-6.9-2 1.3-1.3.5h-.2c-.7.2-1.3.2-1.4-.1-.2-.5.8-.9 2-1.4l.4-.1.8-.4c.6-.3 1.1-.5 1.6-.6.2 0 .5 0 .5.1.2.3-.3.7-.4.7M59.4 90.5c-.3 0-.6-.3-.6-.6s.3-.6.6-.6c.4 0 .7.3.7.6-.1.3-.4.6-.7.6m5.1-18.6c-.4 1.1-.9 2-1.2 2.1h-.2c-.4-.1-.2-1.4.2-2.5s.9-2 1.2-2.1h.2c.4.1.2 1.4-.2 2.5m2.4-4.5c-.6 0-1.1-.3-1.1-.6 0-.4.5-.7 1.1-.7.6 0 1.1.3 1.1.7 0 .3-.5.6-1.1.6m5.3 6.8-.2.1c-.3 0-.8-.3-1.4-.8-.5-.5-1-1-1-1.3 0-.1 0-.1.1-.1l.2-.1c.3 0 .8.3 1.4.8.6.5 1.1 1.2.9 1.4M70 102.9c.4 0 .7.3.7.7 0 .4-.3.7-.7.7-.4 0-.8-.3-.8-.7.1-.4.4-.7.8-.7m-6.7-23.4c.2-.3.5-.5.7-.5l.3.1c.2.2.2.7-.1 1.1-.2.3-.5.5-.7.5l-.3-.1c-.3-.2-.3-.6.1-1.1m1.6 12.9h-.1c-.3-.2-.7-1.3-1-2.7-.2-1-.5-2.8-.1-3h.1c.3.2.7 1.3 1 2.7.2 1 .5 2.9.1 3m9.3-6.2c-.6.4-2.3-.6-2.7-1l-2.4-1.8v-.1s2.2.5 3.4 1.2c1.1.7 1.7 1.1 1.8 1.4.1.1 0 .2-.1.3m3.7-9.2c-.6 1.5-1.3 2.7-1.8 2.9h-.3c-.1-.1-.2-.3-.2-.6 0-.7.3-1.8.7-2.9.6-1.5 1.3-2.7 1.8-2.9h.3c.1.1.2.3.2.6 0 .6-.3 1.8-.7 2.9m28.4 44.9-.1.1c-.1 0-.2-.1-.2-.1-.2-.3-.3-1-.3-1.7 0-.5.1-1 .3-1.3 0 0 1.2-2 1.2-2.1.1 0 .5-.2.7 0 .1.1.1.4 0 .7l-.5 1-.5 1.3-.6 2.1zm2.8 9.8v.2l-.1-.2c-.1-.1-2.1-3.4-1.6-4.2 0-.2.3-.2.5-.2.3 0 .5.2.7.4.9 1.1.5 3.9.5 4m-10.4 21.6c-.3.4-.7.6-1 .6l-.2-.1c-.1-.1-.1-.1-.1-.2 0-.3.2-.7.6-1.1.3-.4.7-.6 1-.6l.2.1c.2.3 0 .8-.5 1.3m3.6-5.4c-.3.3-.7.5-.9.5l-.2-.1c-.2-.2.1-.8.4-1.1.3-.3.7-.5.9-.5l.2.1c.3.2 0 .7-.4 1.1m31.6-42 1.2-1.8c1-1.5 2.3-3.4 2.6-4.3.4-1.2.4-3.9.4-5.9v-2.5h.2s2 5.7 1 8.8c-.9 2.8-2.2 4.1-3.2 5.2l-.8.8c-.6.7-1 .5-1.1.4-.2-.1-.3-.3-.3-.5v-.2m-11.8 5.4c.1-.4.6-.6.6-.6.1 0 1 .3 1 1 0 .8-.1 1.3-.2 1.8-.1.3-.3.5-.5.5s-.3-.1-.4-.3l-.1-.8-.1-.5-.1-.3c-.2-.3-.3-.5-.2-.8m-8.2 25.9c.4 0 .8.3.8.7 0 .4-.3.7-.8.7-.4 0-.8-.3-.8-.7 0-.3.3-.7.8-.7m-3.2 1.9h.1c.4.4-2.4 3.2-2.5 3.3-1.3 1.3-2.7 2.6-3.1 2.6h-.1c-.4-.4 2.4-3.2 2.5-3.3 1.2-1.3 2.7-2.6 3.1-2.6m-13-102.5c.3-.1.6-.2.8-.1l.2.2c.1.3-.1.6-.6.8-.3.1-.6.2-.8.1l-.2-.2v-.1c0-.3.3-.5.6-.7m-4 2.5c.1-.4.6-.7 1.1-.8l.9-.1h.1c.5 0 1 .4 1.3.9.3.6.3 1.2 0 1.7-.1.2-.3.2-.5.3-.7.1-2-.8-2.8-1.6-.2 0-.2-.2-.1-.4m1.8 7.4-.5.1-.3.1h-.2l-.1-.2c-.1-.2 0-.2.1-.3l.1-.1.8-.6c.6-.4 1.5-1 1.7-1.2.1-.1.3-.2.4-.1.1 0 .2.1.2.2s0 .3-.2.5l-.5.7-.3.5c-.2.3-.8.3-1.2.4m-8.9 22.6c.3-.5 1.9-1.9 3.9-1.8 3 .1 3.9 1.6 4.1 2 .1.1.1.2 0 .3-.1.2-.5 0-1.2-.2s-1.8-.6-2.8-.6c-1.3 0-2.4.3-3.1.4l-.9.1h-.1s.1-.1.1-.2m10 35.2s-5.6-4.3-7.5-6.1c-1.3-1.3-2.9-3.1-2.8-3.8 0-.1.1-.2.2-.3.7-.4 1.3-.2 2.7 1.6 1.3 1.7 7.5 8.4 7.5 8.5l-.1.1zM97.7 75c-.4.2-1 0-1.2-.1-.5-.2-.7-.5-.7-.9 0-.3.5-1 1.2-1s1 .1 1.1 1.4c-.1.3-.2.5-.4.6M99 56.1l-.1.3c-.4 1-1 1.8-1.6 2.6l-.9 1.2c-.7 1.1-2.1 2.5-2.5 2.8-.2.2-.4.1-.6 0-.1-.1-.2-.3-.1-.4l.8-1.4 2.3-4.4.1-.3c.8-1.4 1.9-3.3 2.5-3.5h.3c.8.5.7.8-.2 3.1m8.5 43.5c-.4.4-.6 1-.7 1.4 0 .3-.3.5-.4.6-.2 0-.3 0-.4-.1-.2-.2-.2-.9-.1-1 0 0 .4-2.4.5-2.5 0 0 .2-.3.6-.3l.5.2c.5.5.4 1.3 0 1.7m-1.6-33.3c-.3 0-.6-.3-.6-.6s.3-.6.6-.6c.4 0 .7.3.7.6-.1.3-.4.6-.7.6m.5-1.8c-.3 0-.6-.3-.6-.6s.3-.6.6-.6c.4 0 .7.3.7.6 0 .4-.3.6-.7.6m.5-1.8c-.5 0-.8-.3-.8-.7 0-.4.4-.7.8-.7.5 0 .8.3.8.7 0 .4-.3.7-.8.7m.4-2.1c-.4 0-.8-.3-.8-.6s.4-.6.8-.6.8.2.8.6c0 .3-.4.6-.8.6m.4-1.6c-.6 0-1.1-.2-1.1-.6 0-.3.5-.6 1.1-.6.6 0 1.1.3 1.1.6 0 .4-.5.6-1.1.6m.2-4.4c.3 0 .6 0 .9.1l.1.2c0 .3-.3.6-.9.7-.3 0-.7 0-.8-.1l-.2-.2c0-.4.4-.6.9-.7m-.7-1.3c0-.3.3-.5.8-.6.3 0 .6 0 .7.2l.1.3c0 .3-.3.5-.8.6-.3 0-.6 0-.7-.2l-.1-.3zm.9 3.8c-.5 0-.9-.3-.9-.6s.4-.6.9-.6.9.3.9.6-.4.6-.9.6m.2-5.1c-.4 0-.8-.2-.8-.6 0-.3.3-.5.8-.5.4 0 .7.3.7.5.1.3-.2.6-.7.6m0-1.8c-.4 0-.7-.2-.7-.5s.3-.5.7-.5c.4 0 .6.2.6.5.1.2-.2.5-.6.5m0-1.5c-.3 0-.6-.2-.6-.5s.3-.5.6-.5.6.2.6.5-.2.5-.6.5m.6-2.1c0 .3-.2.5-.5.5s-.5-.2-.5-.5.2-.5.5-.5.5.2.5.5m-.8-1c-.3 0-.5-.2-.5-.5s.2-.5.5-.5.5.2.5.5c0 .2-.2.5-.5.5m-.6-4.9c.3-.1.5-.2.7 0 .2.1.4.3.4.5 0 .1-.2.3-.4.3h-.2c-.6.2-1.5.4-1.6.6-.1.2-.7.5-1.1.4-.1 0-.3-.1-.2-.5v-.2c.1-.7.3-1.7 1.2-2.1.3-.1.5-.1.5 0 .1.1 0 .3 0 .5-.1.2-.1.4 0 .5.2.2.4.1.7 0m-.7-5c.3.2.2.4.1.4-.1.3-.7.5-1.1.4h-.2c-.2 0-.2-.1-.2-.2v-.1c0-.2 0-.3.2-.5.3-.2.8-.3 1.2 0m-1.2-2c.3 0 .6.3.8.6.1.2 0 .3-.1.4-.1.1-.3.1-.4.1-.1 0-.2-.1-.3-.3l-.4-.2c-.2-.1-.4-.1-.4-.3-.1-.3.3-.3.8-.3m-.2 33.2c.4 0 .7.2.7.5s-.3.5-.7.5c-.4 0-.7-.2-.7-.5s.3-.5.7-.5m-.7 1.5c.3 0 .6.2.6.4 0 .3-.3.4-.6.4s-.6-.2-.6-.4.3-.4.6-.4m-.6 1.2c.3 0 .6.2.6.4 0 .3-.3.4-.6.4s-.6-.2-.6-.4.3-.4.6-.4m-1 10.8c.8 3.6 4.7 9.1 5.3 9.9h.1s0 .1.1.1h-.1c-.1 0-.5-.2-1.4-.7-.1 0-1.3-.7-3.8-4.7-.4-.7-1.8-4.3-1.8-5.6v-.3c0-.1.1-.1.1-.2.3-.1.6-.1.8 0 .4.4.5 1 .7 1.5m-1.3-33.7c.1-.1.4 0 .5.2.1.2.2.6-.2.9-.6.6-1.1.9-1.9 1.2-.5.2-1.2.4-1.5.1-.1-.1-.1-.1-.1-.3v-.1c0-.5 1.1-.9 1.9-1.1.3-.1.7-.4 1-.6l.3-.3zm-1.6-1.6c.1-.1.6-.1.8.1.1.1.2.3 0 .7-.3.4-.7.7-1 .9l-.6.5c-.2.2-.5.3-.7.2-.1 0-.2-.1-.2-.4 0-.1 0-.2.1-.4.2-.7 1.2-1.3 1.6-1.6z" class="st0"/>
  <path d="M96.9 31.7c.1 0 1-.4 1-.4 0-.1-.1-.9-.1-.9l-2-2.3-.1-.1v.1l-.2.9-.6 1.5v.1l1.3.7.7.4z" class="st0"/>
</svg>