<svg xmlns="http://www.w3.org/2000/svg" xml:space="preserve" style="enable-background:new 0 0 200 200" viewBox="0 0 200 200">
  <path d="M100 62.2C44.8 62.2 0 79.1 0 100s44.8 37.8 100 37.8 100-16.9 100-37.8-44.8-37.8-100-37.8zm0 71.8c-53 0-96.1-15.1-96.1-34C3.9 81.3 47 66 100 66c53.2 0 96.2 15.3 96.2 34.1S153.2 134 100 134zm40-35.7c-2.3-.3-5.1 1.7-7.4 4.5-1.2 1.4-2.4 4.1-2.6 5.7-.3 1.6.2 3.2.8 3.7.6.5 3.2 1.8 7.2-2.3 2.3-2.3 4.5-5.9 4.5-5.9l-.7-.2c1.2-2.5.9-5.2-1.8-5.5zm-40-29.5c-51.4 0-93 14-93 31.2 0 17.3 41.6 31.3 93.1 31.3 51.4 0 93.1-14 93.1-31.3 0-17.2-41.8-31.2-93.2-31.2zm-43.4 47.8c-5.6 0-10.6-3.7-10.7-10.3-.1-4 3.2-8.9 9.2-10.4.7 0 1 .3 1 .6s-.3.6-.8.8c-1.7.6-4.8 4.1-4.8 7.2 0 2.4 1.5 5 4 5.6.7.2 1.3.1 2 .1 6.3 0 13.3-7 20.9-17.7-1.2.1-6.5.6-7.7 2.1-.6.5-1 .2-1.1-.3 0-.1.2-.6.4-.8 2.1-2.3 8.3-2.8 9.7-3 5.6-8.5 12.6-14 14.6-14.3h-.1c-5-1.2-9.5-2.1-13-2.1-12.5 0-18 5.3-17.7 10.3.1 2 1.7 3.3 4.1 2.8 2.6-.5 6.2-2.9 7.1-5 .2-.5.7-.5.9-.4.4.3.3.8.3.8-.6 2.4-4.5 9.4-11.2 9.4-3.7 0-6.3-3.5-6.2-6.9.1-6.4 6.6-12.8 22.6-12.8 3 0 6.4.3 10.2.9 4.3.8 15.1 2.6 23.9 2.7 3.2 0 7.4.1 10.7-.4 3.5-.6 2.8-.7 4.2-.7 1.3 0 1.3.5 1.3 1 0 2.1-7.2 6-13.4 6-9 0-18.4-4.1-23.3-5.4.2.2.3.5.2.8-.1.1-.7.8-1 1-1.3 1.2-5.7 4-10.4 12.1 3.9-.2 8.4-1 8.4-1s-.2-.8-.2-1.6c.2-2.8 1.8-4.4 3.9-4.1 1.2.2 1.9 1.2 1.9 2.2 0 1.1-.8 2.7-1.7 3.5-.6.4-1.2.9-2 1.3 0 .7 1 1.3 1.8 1.4-.2.7-.1 1-.5 1-1.9 0-2.7-1.9-2.7-1.9-2.6.5-5.1.8-10.2 1.3-12.8 20.8-16.8 24.2-24.6 24.2zm88.4-3.4c2.8-.1 7.9-5.4 9.1-6.7.3-.3.7-.9 1-.9.3 0 .8.3.8.6s-.6 1.2-1 1.8c-2.6 3.2-6.8 8.2-11.7 8.3-2.4 0-3.3-1-3.6-2.8-1.1 1-4.8 2.6-8.6 2.6-3.2-.1-4.5-1.9-5.1-3.4-.6-1.2-.8-3-.4-4.8-1.7.9-3.4 1-5.7 1-2.7-.1-4.4-1.3-5.2-4.4-3.1 5.7-3.2 5.9-6.4 11.8h-5.5l7-11.9c.9-1.6 1.4-2.9 1.7-4.3.2-.8-.4-1.5-1.2-1.5-.9 0-2.4.9-3.8 2.3 0 0-3.6 3.9-6.3 7.8-2.5 3.7-6.8 8-11.5 8-3.4 0-6.5-1.9-7.2-5.5 0 0-.3.8-3.4 2.6-.3.1-.9.5-1.1.4-.6-.5-.9-1.2-1-1.6.2.1.6-.3 1.8-1.2 2.4-1.8 2.9-3.2 2.9-3.2.6-1.2 1.6-3.2 2.3-4.5 1.9-3.9 5.3-7.8 10.8-8 .9 0 1.2.4 1.4.7.5.4.3 1.2.3 1.2-3.9.6-6.5 2.8-8.1 5-1 1.4-2 3.7-2.2 5.4-.4 2.9 1 4.8 3 5.3 3.7.6 6.8-2.1 9.3-6.3.6-1.1 1.1-3.9 1.1-5.5 0-1.5-.8-3.2-1.5-3.8 0-1.1.7-1.8 1.5-1.8.3 0 .5 0 .8.3 1.3 1.3 2 3.7 2 5.6 0 .6 0 1.3-.1 1.9 2.7-3.3 6.1-7.5 8.8-8.4.5-.3 1-.3 1.6-.3 4.8-.1 4.2 4.3 4.2 4.3 2.6-3 4.4-4.1 6.8-3.9 2.6.1 3.5 1.9 3.5 3.4-.1 1.7-1.3 3.6-3.4 3.7-1.9 0-3-.9-3.6-2.6-1.2.5-1.8 1.3-2.1 3-.4 2.1 1.2 3.8 3.3 3.8 3.5 0 5.1-1.5 6.4-2.7 4.4-4.1 6.8-8.5 13.2-8.4 3.8.1 4.8 3.1 5.4 4.4l8.3-14.1h5.1l-14 24.1c-.3.5-.9 1.5-.8 2.3.1 1.2 1.7.9 1.1.9zm-50.9-25c.4-.4 1-1.5.9-2.3-.1-.4-.3-.8-.7-.8-1 .2-1.5.6-1.8 1.6-.3 1-.2 1.7 0 2.5 0 0 .6.1 1.6-1z" style="fill-rule:evenodd;clip-rule:evenodd;fill:#008060"/>
</svg>