<?xml version="1.0" encoding="utf-8"?>
<!-- Generator: Adobe Illustrator 25.2.1, SVG Export Plug-In . SVG Version: 6.00 Build 0)  -->
<svg version="1.1" id="Layer_1" xmlns="http://www.w3.org/2000/svg" xmlns:xlink="http://www.w3.org/1999/xlink" x="0px" y="0px"
	 viewBox="0 0 200 200" style="enable-background:new 0 0 200 200;" xml:space="preserve">
<g>
	<path d="M48.7,102.3c0.6,2.8,1.2,5.6,2.3,8.3c0.7,1.5,1.3,3.1,2.3,4.4c1.8,2.6,4.2,4.5,7.2,5.8c1.2,0.5,2.4,1,3.7,1.3
		c3.5,1,7,1.6,10.6,1.9c3.4,0.3,6.9,0.5,10.4,0.7c5,0.2,10,0.3,13.9,0.3c4.2-0.1,7.3-0.1,10.3-0.2c4.3-0.1,8.6-0.3,13-0.6
		c3.2-0.2,6.4-0.5,9.6-1.1c2.6-0.5,5.2-1.1,7.6-2.2c4.1-1.8,7.1-4.6,9-8.7c0.8-1.7,1.5-3.4,2-5.3c1-3.5,1.6-7,2.1-10.5
		c0.5-3.5,0.9-7,1.2-10.5c0.4-3.5,0.6-7,0.6-10.5c0.1-5.6,0.2-11.3-0.3-16.9c-0.2-2.2-0.5-4.3-1.2-6.4c-1.1-3.5-3-6.5-6-8.7
		c-1.9-1.4-4-2.4-6.3-3.2c-3-1-6.1-1.5-9.3-1.9c-3.8-0.5-7.7-0.8-11.5-1c-4-0.2-8-0.3-12-0.4c-5.3-0.1-10.7-0.1-16.1,0
		c-6,0.1-12.1,0.4-18.1,0.9c-3,0.3-6,0.6-9,1.1c-2.5,0.5-5,1.1-7.3,2.1c-4,1.7-7.1,4.5-9,8.4c-1.1,2.2-1.7,4.6-2,7.1
		c-0.4,2.6-0.5,5.2-0.5,7.8c0,3.4-0.1,6.7,0,10.1c0.1,6,0.7,12,1.3,17.9C47.6,95.8,48.1,99,48.7,102.3 M51.3,69.7
		c0.1-2.9,0.2-5.7,0.4-8.6c0.2-2.5,0.4-5,1.2-7.5c1-3.1,2.6-5.7,5.3-7.7c1.5-1.1,3.2-1.9,5-2.4c2-0.7,4-1.1,6-1.3
		c2.8-0.4,5.7-0.7,8.5-1c2-0.2,4-0.3,6-0.4c3.3-0.2,6.6-0.3,10-0.4c4.9,0,9.8,0,14.7,0c3.7,0.1,7.4,0.3,11.1,0.5
		c3.9,0.2,7.9,0.6,11.8,1.2c2.6,0.4,5.1,0.9,7.4,1.9c2.9,1.2,5.3,3,7,5.7c1,1.6,1.6,3.2,2,5c0.4,1.8,0.7,3.6,0.8,5.4
		c0.5,5.4,0.5,10.9,0.4,16.4c-0.1,3.2-0.3,6.5-0.6,9.7c-0.2,2.6-0.5,5.3-0.8,7.9c-0.5,4.3-1.2,8.5-2.6,12.7c-0.4,1.4-1,2.8-1.7,4.1
		c-1.7,3.3-4.3,5.6-7.7,7.1c-2.1,0.9-4.3,1.4-6.5,1.7c-3.8,0.6-7.7,0.9-11.6,1.2c-5.3,0.3-10.6,0.4-16,0.4h-1.3v0.1
		c-4.6-0.1-9.2-0.2-13.8-0.3c-3.4-0.1-6.7-0.4-10.1-0.7c-2.8-0.2-5.5-0.6-8.3-1.3c-1.4-0.3-2.7-0.8-3.9-1.4c-3.3-1.5-5.8-4-7.4-7.3
		c-1.1-2.2-1.8-4.5-2.4-6.8c-0.8-3.2-1.3-6.5-1.7-9.7c-0.4-3.7-0.8-7.3-1-11C51.3,78.5,51.2,74.1,51.3,69.7"/>
	<path d="M23.1,142.8c0.3,0,0.5,0.1,0.7,0.1c0.7,0.1,1.5,0.2,2.2,0.3c0.9,0.1,1.4,0.6,1.5,1.4c0,0.1,0.1,0.2,0.1,0.3
		c0,1.2,0,2.5,0,3.7c0,0,0,0.1-0.1,0.1c-0.7,0.1-13.5,0.1-13.9,0v-2c0-0.6,0-1.3,0-1.9c0.1-0.9,0.6-1.4,1.5-1.5
		c0.4-0.1,0.8-0.1,1.2-0.1c0.6-0.1,1.2-0.1,1.8-0.2c0-0.6,0-1.1,0-1.6c0-0.5,0.1-1,0-1.5H0v3c0.3,0,0.5,0.1,0.7,0.1
		c0.7,0.1,1.5,0.2,2.2,0.3c0.9,0.1,1.4,0.5,1.5,1.4c0,0.3,0,0.5,0,0.8v11.3c0,0.3,0,0.6,0,0.8c-0.2,0.9-0.6,1.3-1.5,1.4
		c-0.8,0.1-1.5,0.2-2.2,0.2c-0.3,0-0.5,0.1-0.7,0.1v3c0.6,0.1,17.7,0.1,18.1,0v-3c-0.9-0.1-1.9-0.2-2.8-0.3
		c-1.1-0.1-1.6-0.6-1.7-1.7c0-1.2,0-2.5,0-3.7c0,0,0-0.1,0.1-0.1c0.8-0.1,13.4-0.1,13.9,0c0,1.2,0,2.4,0,3.6c0,0.2,0,0.3-0.1,0.4
		c-0.1,0.9-0.6,1.3-1.5,1.4c-0.4,0.1-0.8,0.1-1.2,0.1c-0.6,0.1-1.2,0.1-1.8,0.2v3h18.1v-3c-0.3,0-0.6-0.1-0.9-0.1
		c-0.7-0.1-1.4-0.1-2.2-0.2c-0.8-0.1-1.3-0.5-1.4-1.4c-0.1-0.3-0.1-0.6-0.1-0.9c0-3.7,0-7.5,0-11.2c0-0.3,0-0.6,0.1-0.9
		c0.2-0.9,0.7-1.3,1.6-1.4c0.4-0.1,0.9-0.1,1.3-0.1c0.5-0.1,1.1-0.1,1.6-0.2v-3H23.1V142.8z"/>
	<path d="M105.6,139.8v3c0.1,0,0.2,0,0.3,0.1c0.9,0.1,1.7,0.2,2.6,0.3c1,0.1,1.5,0.6,1.6,1.6c0,0.1,0,0.3,0,0.4v10.8
		c0,0.1,0,0.2-0.1,0.4c-0.2-0.2-0.3-0.4-0.5-0.6c-3.8-5-7.6-9.9-11.3-14.9c-0.6-0.7-1.2-1.1-2.1-1.1c-0.2,0-0.3,0-0.5,0H80.7
		c-0.2,0-0.3,0-0.5,0v3c0.2,0,0.4,0.1,0.6,0.1c0.8,0.1,1.5,0.2,2.3,0.3c0.9,0.1,1.4,0.6,1.6,1.5c0,0.3,0,0.5,0,0.8
		c0,3.7,0,7.5,0,11.2c0,0.2,0,0.4,0,0.6c-0.1,1-0.6,1.6-1.7,1.7c-0.4,0-0.8,0.1-1.3,0.1c-0.5,0.1-1.1,0.1-1.6,0.2v3
		c0.6,0.1,14,0.1,14.4,0c0.1-0.7,0.1-2.6,0-3c-0.3,0-0.5-0.1-0.8-0.1c-0.7-0.1-1.4-0.1-2.1-0.3c-0.9-0.1-1.4-0.6-1.5-1.5
		c0-0.2,0-0.4,0-0.6c0-3.5,0-6.9,0-10.4v-0.5c0,0,0.1,0,0.1,0c0.1,0.2,0.2,0.3,0.4,0.5c3.8,5,7.6,9.9,11.3,14.9
		c0.6,0.8,1.3,1.2,2.3,1.1c3.6,0,7.1,0,10.7,0c0.1,0,0.3,0,0.5,0v-0.7v-16c0-0.3,0-0.5,0-0.8c0.1-1,0.6-1.5,1.6-1.6
		c0.4,0,0.9-0.1,1.3-0.1c0.6-0.1,1.1-0.1,1.6-0.2v-3C119.2,139.6,106,139.7,105.6,139.8"/>
	<path d="M158.9,149.7c-0.3-2.9-1.5-5.3-3.8-7c-1-0.8-2.2-1.4-3.4-1.8c-2.4-0.9-4.9-1.2-7.5-1.2c-7.3,0-14.7,0-22,0
		c-0.2,0-0.3,0-0.5,0v3.1c0.8,0.1,1.6,0.2,2.4,0.2c1.4,0.2,1.9,0.6,1.9,2.1v11.6c0,0.3,0,0.5,0,0.8c-0.2,0.9-0.6,1.3-1.6,1.5
		c-0.4,0-0.8,0.1-1.3,0.1c-0.5,0.1-1.1,0.1-1.6,0.2v3.1h0.8c7.1,0,14.1,0,21.2,0c1.3,0,2.6-0.1,3.9-0.2c2-0.2,3.9-0.7,5.8-1.6
		c2.6-1.3,4.5-3.1,5.4-5.9C159,153.1,159.1,151.4,158.9,149.7 M148.2,154.1c-0.1,0.6-0.4,1.2-0.7,1.7c-0.7,1.2-1.8,1.7-3,2
		c-0.6,0.1-1.3,0.2-1.9,0.2c-2.4,0-4.7,0-7.1,0c-0.2,0-0.3,0-0.5,0v-13.8c0.1,0,0.3,0,0.4,0c2.5,0,4.9,0,7.4,0
		c0.8,0,1.7,0.1,2.5,0.4c1.3,0.4,2.1,1.2,2.6,2.5c0.5,1.1,0.6,2.4,0.6,3.6C148.6,151.7,148.5,152.9,148.2,154.1"/>
	<path d="M74.9,142.4c-1.7-1.2-3.6-2-5.6-2.5c-2.8-0.7-5.7-0.9-8.5-1c-2.7,0-5.3,0.2-7.8,0.8c-2,0.4-3.8,1.1-5.5,2.1
		c-3.4,2.1-5.2,5.1-5.3,9.1c0,3.9,1.6,7,4.9,9.1c0.9,0.6,1.9,1.1,2.9,1.4c2.3,0.9,4.7,1.3,7.1,1.5c3.6,0.3,7.2,0.2,10.8-0.5
		c2.1-0.4,4-1,5.8-2.1c3.3-1.9,5.2-4.7,5.5-8.5C79.4,147.9,78.1,144.7,74.9,142.4 M68.5,153.8c-0.5,2.5-2,4-4.5,4.6
		c-2.3,0.5-4.5,0.5-6.8,0c-2.4-0.6-3.9-2.2-4.3-4.6c-0.2-0.9-0.2-1.8-0.3-2.7c0.1-1.1,0.1-2.1,0.4-3.1c0.6-2.2,2-3.6,4.2-4.2
		c2.3-0.6,4.6-0.6,6.9-0.1c2.4,0.6,3.9,2.1,4.5,4.6C68.9,150,68.9,151.9,68.5,153.8"/>
	<path d="M195,157.5c-1.7-2.6-3.4-5.2-5.1-7.8c-1.9-2.9-3.8-5.7-5.6-8.6c-0.6-0.9-1.4-1.5-2.6-1.5c-5.5,0-11,0-16.5,0
		c-0.2,0-0.3,0-0.5,0v3c0.2,0,0.4,0.1,0.7,0.1c1.1,0.1,2.1,0.2,3.2,0.4c0.9,0.1,1.4,0.9,1,1.8c-0.1,0.1-0.1,0.3-0.2,0.4
		c-2.5,4.1-5,8.1-7.5,12.2c-0.1,0.2-0.2,0.3-0.3,0.5c-0.4,0.5-0.8,0.7-1.4,0.8c-0.4,0-0.8,0.1-1.2,0.1c-0.6,0.1-1.1,0.1-1.7,0.2v3
		c0.8,0.1,14,0.1,14.5,0v-3c-0.3,0-0.7-0.1-1-0.1c-0.6-0.1-1.2-0.1-1.8-0.2c-0.9-0.2-1.2-0.9-0.7-1.7c0.3-0.5,0.6-0.9,0.8-1.4
		c0.2-0.4,0.4-0.5,0.8-0.5c4.3,0,8.5,0,12.8,0c0.1,0,0.2,0,0.3,0c0.1,0,0.3,0.1,0.4,0.2c0.4,0.6,0.8,1.1,1.1,1.7
		c0.4,0.6,0.2,1.2-0.5,1.5c-0.4,0.1-0.8,0.2-1.3,0.3c-0.7,0.1-1.4,0.2-2.1,0.2v3c0.1,0,0.1,0.1,0.2,0.1c6.3,0,12.7,0,19,0
		c0.1,0,0.2,0,0.3,0c0,0,0,0,0,0c0,0,0,0,0,0v-2.9c-0.9-0.1-1.8-0.2-2.6-0.3C196.3,158.9,195.6,158.3,195,157.5 M171.8,151.3
		c1.4-2.3,2.8-4.5,4.2-6.8c0.3,0.3,4.1,5.9,4.5,6.7C180,151.4,172.6,151.4,171.8,151.3"/>
	<path d="M67.9,50c0.1,1.9,0.3,3.9,0.4,5.8c0.2,3.2,0.4,6.4,0.6,9.5c0.2,2.6,0.3,5.2,0.5,7.8c0.2,3,0.4,6.1,0.6,9.1
		c0.1,2.4,0.3,4.9,0.5,7.3c0.2,3.3,0.5,6.6,0.7,9.9c0.2,2.7,0.4,5.4,0.6,8.1c0.3,3.1,0.5,6.2,0.8,9.4c0,0.3,0.1,0.5,0.1,0.8
		c2,0.4,9.1,0.8,10.8,0.8c0.1-0.2,0.1-0.5,0.2-0.7c0.9-3.4,1.8-6.8,2.8-10.2c0.5-1.9,1.2-3.7,2.1-5.4c1.1-2.2,2.9-3.4,5.3-3.7
		c2.1-0.3,4.2-0.5,6.3-0.5c2.1,0,4.2,0.2,6.3,0.5c2.3,0.4,4,1.5,5.1,3.6c0.2,0.4,0.5,0.9,0.7,1.4c0.7,1.7,1.4,3.4,1.8,5.2
		c0.9,3.1,1.7,6.1,2.5,9.2c0.1,0.2,0.2,0.5,0.2,0.7c2.1,0.1,9.8-0.5,10.9-0.8c2-24.2,3.5-48.4,5.1-72.7c-2.5-0.4-5-0.5-7.5-0.6
		c-0.1,0.2-0.1,0.4-0.1,0.5c-1,4.6-2,9.1-3,13.7c-1.5,6.7-3.1,13.3-4.9,19.9c-0.6,2.2-1.3,4.3-2.3,6.3c-1.8,3.9-5,6-9.2,6.6
		c-1.6,0.2-3.2,0.3-4.8,0.3c-2.3,0-4.7,0-7-0.4c-2.9-0.5-5.3-1.9-7.1-4.2c-0.9-1.2-1.5-2.5-2.1-3.8c-0.9-2.3-1.6-4.8-2.3-7.2
		c-2.5-9.7-4.7-19.4-6.8-29.1c-0.2-0.9-0.4-1.7-0.6-2.6c-2.5,0.1-5,0.2-7.5,0.6c0,0.2,0,0.3,0,0.5C67.7,46.9,67.8,48.5,67.9,50"/>
</g>
</svg>
