<?xml version="1.0" encoding="utf-8"?>
<!-- Generator: Adobe Illustrator 25.2.1, SVG Export Plug-In . SVG Version: 6.00 Build 0)  -->
<svg version="1.1" id="Layer_1" xmlns="http://www.w3.org/2000/svg" xmlns:xlink="http://www.w3.org/1999/xlink" x="0px" y="0px"
	 viewBox="0 0 200 200" style="enable-background:new 0 0 200 200;" xml:space="preserve">
<style type="text/css">
	.st0{fill:#008060;}
</style>
<g>
	<polygon points="56.8,149.9 58.7,149.9 58.7,145.2 62.1,145.2 62.1,143.6 58.7,143.6 58.7,141 62.3,141 62.3,139.4 56.8,139.4 	"/>
	<g>
		<rect x="143.4" y="139.5" class="st0" width="1.6" height="10.5"/>
	</g>
	<polygon points="168.7,141 171,141 171,149.9 172.9,149.9 172.9,141 175.2,141 175.2,139.5 168.7,139.5 	"/>
	<g>
		<rect y="139.5" class="st0" width="1.6" height="10.5"/>
	</g>
	<polygon points="117.2,147.3 117.2,147.4 117.2,147.4 117.2,147.3 114.5,139.4 112.2,139.4 112.2,149.9 113.9,149.9 113.9,142 
		116.6,149.9 118.9,149.9 118.9,139.4 117.2,139.4 	"/>
	<g>
		<rect x="198.4" y="139.5" class="st0" width="1.6" height="10.5"/>
	</g>
	<g>
		<rect x="86" y="139.5" class="st0" width="1.6" height="10.5"/>
	</g>
	<polygon points="30.9,147.3 30.9,147.4 30.9,147.4 30.9,147.3 28.2,139.4 25.9,139.4 25.9,149.9 27.5,149.9 27.5,142 30.3,149.9 
		32.6,149.9 32.6,139.4 30.9,139.4 	"/>
	<path d="M100,50c-42.3,0-76.5,17.2-76.5,38.5c0,17.2,22.5,31.8,53.5,36.7L100,70.2l23.1,54.9c31-4.9,53.5-19.5,53.5-36.7
		C176.5,67.2,142.3,50,100,50 M135.1,107.8L100,67.1l-35,40.6c-17.3-4.8-28.6-13.2-28.6-23.5c0-16.4,28.3-31.7,63.6-31.7
		c35.3,0,64.2,15.4,64.2,31.7C164.2,94.5,152.6,103,135.1,107.8"/>
</g>
</svg>
