<?xml version="1.0" encoding="utf-8"?>
<!-- Generator: Adobe Illustrator 25.2.1, SVG Export Plug-In . SVG Version: 6.00 Build 0)  -->
<svg version="1.1" id="Layer_1" xmlns="http://www.w3.org/2000/svg" xmlns:xlink="http://www.w3.org/1999/xlink" x="0px" y="0px"
	 viewBox="0 0 200 200" style="enable-background:new 0 0 200 200;" xml:space="preserve">
<g>
	<path d="M108,164.8c13.3-1.4,26.1-6.4,36.8-14.3c3.7-2.7,10.2-8.9,13.2-12.6c7.6-9.4,12.9-20.5,15.5-32.6c1-4.4,1-5.3,1-14
		c0-8.1-0.1-9.8-0.8-13.5c-4.2-22-17.5-40.4-37.1-51.6c-6.9-3.9-15.8-7-24.3-8.5c-5.7-1-16.9-1.2-22.3-0.4
		C71.4,20,55,28.8,43.3,42.3C26.5,61.6,20.9,87.1,28,111.7c5.8,20,20.5,37.3,39.5,46.3c6.9,3.3,16.4,6,24,6.8
		C95.6,165.3,103.9,165.3,108,164.8 M89,155.6c-22.7-3.8-42.4-19.5-50.6-40.2c-3.1-8-4.4-13.8-4.6-22.2c-0.2-6.9,0.2-11.9,1.7-17.7
		c6.4-25.3,26.1-44.1,51.4-48.9c5.6-1.1,6-1,6.7,0.6c1.5,3.7,2.9,11.2,4.3,23.4c0.6,1.1-0.1,9.5,2.3,8.5c0.5-0.3,0.7-1.2,0.9-3.3
		c1.5-15.2,3.9-27.8,5.6-29.6c0.5-0.5,1-0.5,4.3,0.1c13.5,2.2,25.8,8.5,35.8,18.5c5.3,5.2,8.6,9.7,11.7,15.7
		c5.7,10.9,8.1,21.1,7.6,32.8c-0.2,6-0.8,9.6-2.3,15.1c-6.4,23.1-25.6,41.3-49.3,46.4c-2.3,0.5-5,1-5.9,1.2l-1.7,0.2l-0.6-1.4
		c-1.7-4.1-4-16.4-4.9-26.9c-0.2-2.6-0.5-5-0.6-5.4c-0.2-0.6-1.4-0.9-1.7-0.3c-0.1,0.2-0.6,4-1.1,8.6c-1.5,13.6-3.7,24.2-5,25
		C92.4,156.2,92.5,156.2,89,155.6z"/>
	<path d="M101,91.6l0.1-18.8l1.4-0.1c1.3-0.1,1.4-0.2,1.5-1.3l0.1-1.2l-3.8-0.1c-5-0.1-5.1-0.1-4.9,1.3c0.1,1,0.3,1.2,1.4,1.3
		l1.3,0.2l0.1,8.5c0.1,4.7,0,8.4-0.2,8.3c-0.2-0.1-2.1-4.5-4.3-9.9l-4-9.7l-4.8,0.1L80,70.4v1.1c0,1,0.1,1.1,1.4,1.2l1.4,0.1
		L82.7,90l-0.1,17.2h-1.6h-1.6l-3.8-17.5c-4.6-21.2-4.3-20.1-5-20.4c-1.5-0.6-1.7,0-5,15.1c-3.3,15.2-4.3,18.2-6.4,20.5
		c-1.5,1.6-3.5,2.4-5.6,2.4h-1.9l0.1-17.2l0.1-17.2l1.3-0.2c1.2-0.2,1.3-0.3,1.3-1.3v-1.1h-5.7H43l-0.1,1.1
		c-0.1,1.2,0.4,1.7,1.9,1.7l1,0v17.1v17.1h-0.9c-1.5,0-2.1,0.4-2.1,1.5c0,0.6,0.1,1.1,0.3,1.2c0.1,0.1,4.7,0.1,10.1-0.1l9.9-0.2
		l1.1-5.5l1.1-5.5l3-0.1c2.9-0.1,3-0.1,3.2,0.7c0.7,3,1.3,6.7,1.3,7.2c0,0.5-0.3,0.7-1.2,0.8c-1,0.1-1.2,0.2-1.2,1.2v1.1l8.8,0.1
		c7.6,0.1,8.8,0,9.2-0.5c0.8-1,0.2-1.9-1.3-2.1l-1.3-0.1l-0.1-13.5c-0.1-7.4,0-13.6,0.2-13.7c0.2-0.2,2.8,6,5.9,13.6
		c7.6,18.9,6.8,17.1,8,16.9l1-0.1L101,91.6z M65.5,95.4c0-0.9,2.7-13.2,2.9-13.2c0.3,0,2.9,12.8,2.6,13.2c-0.1,0.1-1.4,0.3-2.9,0.3
		C66.8,95.7,65.5,95.5,65.5,95.4z M118,110.2c3.1-0.9,5.5-4.2,6.7-9.4c0.7-3.1,0.6-3.7-0.9-3.7c-1.3,0-1.3,0-2.2,3.5
		c-1,3.8-2.2,5.8-3.9,6.3c-2.4,0.8-4.6-0.3-5.8-2.9c-0.7-1.6-0.8-2.4-0.9-11.2c-0.2-13.4,0.6-18.3,3.2-19.7c3.4-1.8,6.3,0.7,7.3,6.2
		c0.5,2.4,0.7,2.9,1.7,2.7c0.6-0.1,0.7-0.7,0.9-5.8c0.1-3.1,0.1-5.8,0.1-6.1c-0.3-0.8-1.9-0.5-2.3,0.4l-0.4,0.9l-1.8-1.1
		c-1.6-1-2-1.1-4.2-1c-1.9,0.1-2.7,0.4-3.9,1.2c-4.3,3-7.3,10.8-7.3,19.1c0,9.5,3.8,18,9,20.3C114.7,110.7,116.2,110.7,118,110.2z
		 M159.3,109.7c0.8-1,0.3-1.8-1.3-2l-1.4-0.2l-4.1-18.9c-2.3-10.4-4.1-19-4.1-19c0-0.1-0.5-0.1-1.1-0.1c-1.3,0-1-0.7-3.5,10.6
		c-0.9,4.3-2.6,12.2-3.8,17.5l-2.1,9.7l-1.8,0.1l-1.7,0.1l0.1-17.2l0.1-17.2l1.3-0.2c1.1-0.2,1.3-0.3,1.3-1.3v-1.1h-5.7h-5.7v1.1
		c0,1,0.1,1.1,1.3,1.3l1.3,0.2V90v17.1l-1.3,0.2c-1.1,0.2-1.3,0.3-1.4,1.4l-0.1,1.2l8.7-0.1l8.7-0.1l0.1-1c0.1-0.9-0.1-1-1-1.2
		c-0.6-0.1-1.1-0.3-1.1-0.4c0-0.1,0.4-2,0.8-4.2l0.8-4l3-0.1c2.9-0.1,3-0.1,3.2,0.7c0.7,3.1,1.3,6.7,1.3,7.2c0,0.5-0.2,0.7-0.9,0.7
		c-0.5,0-1.1,0.3-1.3,0.7c-0.5,0.9-0.5,1,0.2,1.6C149,110.5,158.6,110.5,159.3,109.7z M142.9,94.8c0.1-0.5,0.7-3.5,1.4-6.7
		c0.7-3.3,1.3-5.9,1.5-5.9c0.2,0,0.8,2.8,1.5,6.3c0.7,3.5,1.3,6.5,1.4,6.7c0.1,0.3-0.6,0.5-2.8,0.5
		C142.8,95.7,142.7,95.6,142.9,94.8z"/>
	<path d="M98.4,0c32.6,0.3,65.6,12.4,99,35.4l1.6,1.1l0.2,2c3.2,38.8-3.2,71.8-19.4,98.7c-16.2,27-42.2,47.7-78.4,62.1l-1.6,0.6
		l-1.6-0.6c-39.1-15.5-64.7-37.8-80-65.1C3.1,106.9-1.7,74.7,0.5,39.2l0.1-1.9l1.5-1.2C33.6,11.4,65.7-0.3,98.4,0 M190.9,41.2
		C159.5,19.9,128.7,8.6,98.4,8.4C68.1,8.2,38.3,18.9,8.9,41.6c-1.9,33.3,2.7,63.3,16.9,88.6c14.1,25.3,37.9,46.1,74.1,60.8
		c33.5-13.6,57.6-33,72.7-58C187.5,108,193.6,77.4,190.9,41.2z"/>
</g>
</svg>
