<?xml version="1.0" encoding="utf-8"?>
<!-- Generator: Adobe Illustrator 25.2.1, SVG Export Plug-In . SVG Version: 6.00 Build 0)  -->
<svg version="1.1" id="Layer_1" xmlns="http://www.w3.org/2000/svg" xmlns:xlink="http://www.w3.org/1999/xlink" x="0px" y="0px"
	 viewBox="0 0 200 200" style="enable-background:new 0 0 200 200;" xml:space="preserve">
<g>
	<path d="M84.8,83.2c-2.5,4-2.8,5.9-2.8,7.3c-0.1,1.3-0.1,3.6,2,5.4c3.5,3.1,8.4,2.6,12.7,2.6h35.7c1.5,0,2-0.4,2.8-1.5
		c2.9-4.3,4.1-9,4.1-13.3c0-9-5.9-20.4-20.8-25.5l-1.7,2.4c11.8,5.6,16.7,12.9,16.7,23.1c0.1,2.7-0.7,5.7-2.5,8.4H96.4
		c-2.1,0-2.4-2.3-1.6-3.7c3.1-5.4,6.2-10.2,9.9-15.2c3.5-4.7,7-9,10.6-13.6c1-1.3,0.3-2.5-1.6-2.9c-4-0.9-8.3-1.4-13.4-1.4
		c-28.4,0-38.8,16.3-38.8,28.3c0,13.1,10.5,28.3,38.9,28.3c15.8,0,26.1-5.1,32.1-11.6h-6c-5.2,4.8-14.2,8.2-26.1,8.2
		c-24.1,0-33-13.5-33-25.1c0.2-10.4,9.7-24.7,33.6-25.1c0.9,0,1.6,0.8,1,1.6C97.8,64.9,86.2,81.1,84.8,83.2"/>
	<path d="M192,129.9h-22.8c0.3-2.8,2.7-5.1,5.1-5.1h23.1l-0.1-4.8h-24.5c-7.7,0-13.9,6.4-14.1,13.9c0,0.5,0.3,0.8,0.9,0.8l27.8-0.1
		c1.4,0.2,2.5,1.3,2.5,2.6c0,1.5-1.4,2.7-3,2.7h-30.6V120h-9v20h-16.5c-4.5,0-5.4-2.7-5.4-5.2v-14.9h-14.9c-1.5,1-2.9,2.1-4.4,3
		l-8.8,5.4l-11.5-8.4H67.8H50.9c-4.6,0-8.1,1.2-10.7,3.2c-4.7,3.7-6.2,7.6-6.1,9.3h6.1c-2.7,2-4.5,4.4-5.4,7.2h-20
		c-3.6,0-5.9-2.5-5.9-5v-14.9H0v15.5c0,5.6,5.3,9.4,13.8,9.4h54h13.1c1.4-0.9,2.7-1.9,4.2-2.8l9.1-5.5l11.5,8.2h13.1l-17.4-13
		l8.9-5.8c1.9-1.2,3.9-2.3,5.8-3.4v13.1c0,5.5,1.4,9.4,12.6,9.4l63.1-0.1c4.9,0.1,8-3.3,8-7.3C200,133.2,196.4,129.9,192,129.9
		 M79.1,139.6H67.8H46.4c0.1-2.6,2.8-5.1,5.3-5.1h16.1h4.5v-5.1h-4.5H46.1c-0.3-1.5,2.5-4.4,4.7-4.4h17h6.5v-2.7l15.2,10.9
		L79.1,139.6z"/>
</g>
</svg>
