<?xml version="1.0" encoding="utf-8"?>
<!-- Generator: Adobe Illustrator 25.2.1, SVG Export Plug-In . SVG Version: 6.00 Build 0)  -->
<svg version="1.1" id="Layer_1" xmlns="http://www.w3.org/2000/svg" xmlns:xlink="http://www.w3.org/1999/xlink" x="0px" y="0px"
	 viewBox="0 0 200 200" style="enable-background:new 0 0 200 200;" xml:space="preserve">
<g>
	<path d="M150.2,42.5c-12.5-13.5-33-16.4-50.3-16.4c-17.4,0-38.5,2.9-50.8,17.1c-0.2,0.3-0.4,0.5-0.6,0.8c-6,7.2-9.8,17.5-9.8,31.4
		c0,42.7,34.8,49.5,61.2,49.5c26.6,0,61.4-6.8,61.4-49.5c0-13.8-3.7-24.2-9.8-31.4C151.1,43.5,150.6,43,150.2,42.5 M60,50.9
		c8.2-12.7,23.9-15.8,39.9-15.8c16.1,0,31.3,2.9,39.7,15.4c0.1,0.3,0.4,0.6,0.5,0.9c-14.2,8.3-30.4,8.6-40.2,29.5
		C89.3,60.6,73.2,60.4,59.2,52.4C59.4,51.9,59.7,51.4,60,50.9 M99.9,115.9c-23.6,0.2-45.9-6.6-45.9-40.5c0-2.5,0-5.1,0.4-7.2
		c0.1-0.5,0.2-0.9,0.4-1.4c8,2.7,15.9,5.4,23.9,8c9.4,3.9,15.6,9.4,21.3,21.6c5.7-12.3,11.7-18.5,21.3-22.4c8-2.9,16.1-5.7,24.1-8.6
		c0.1,0.2,0.1,0.4,0.1,0.6c0.4,2.7,0.6,6,0.6,9.3C146.1,109.3,123.6,116.1,99.9,115.9"/>
	<g>
		<polygon points="103.8,149.3 116.5,138.8 89.9,138.8 89.9,149.3 		"/>
		<path d="M189.5,138.8H166v9.5h18.6c5.4,0,4.6,3.5,4.6,3.5h-14.9c-1.8,0-7.7-0.3-10.5,4.2v-1.7c0-16-12.1-15.6-12.1-15.6h-31.5
			l-32.1,25.3v-15.6c0-10.2-10.5-9.8-10.5-9.8H54.1v9.5h18.6c5.4,0,4.7,3.5,4.7,3.5H62.5c-1.8,0-7.5-0.3-10.4,4.1v-4
			c0-14-12.7-13.2-12.7-13.2H0v35.1h11.9v-24.6h8.4v24.6h11.4v-24.6h3.8c5.6,0,4.8,4.5,4.8,4.5v20.1h11.8v-4.7
			c2.8,4.7,8.5,4.7,8.5,4.7h32.7l32.2-25.9v25.8h25.3c4.8,0,9.4-2.4,11.5-8.9c1.3,8.9,10.2,9.1,10.2,9.1H200v-25.3
			C200,138.4,189.5,138.8,189.5,138.8 M77.3,164.3H64.8c0,0-2.5,0.1-2.5-2.4c0-2.1,2-2.3,2.7-2.3h12.4V164.3z M147.6,163.5h-10.7
			v-14.9h10.8c0,0,5.1,0.4,5.1,6.9C152.8,162.1,150.4,163.5,147.6,163.5 M188.9,164.3h-12.5c0,0-2.6,0.1-2.6-2.4
			c0-2.1,2.1-2.3,2.8-2.3h12.2V164.3z"/>
		<polygon points="97,173.9 123.6,173.9 123.6,163.6 109.6,163.6 		"/>
	</g>
</g>
</svg>
