<svg xmlns="http://www.w3.org/2000/svg" xml:space="preserve" style="enable-background:new 0 0 200 200" viewBox="0 0 200 200">
  <path d="M100 1.1C44.8 1.1 0 45.4 0 100c0 54.6 44.7 98.9 100 98.9 55.2 0 100-44.3 100-98.9 0-54.6-44.8-98.9-100-98.9m0 194c-37.6 0-67-19.5-81.1-46.4l2.1-.7c3.6 6 8.4 11.2 14.8 18.3 7.9 8.7 32.8 25.4 64.1 25.4 33.3 0 62.5-17.2 78.9-43.6 1.3-.4 1.7-.9 1.2-2 7.5-13.2 12.6-29.8 12.6-46.1 0-10.2-1.5-18.5-3.9-26-1.8-5.6-4.3-11.2-5.4-13.4-.3-.5-.3-.8-.4-1.3.4.3.6.6.9 1.1 1.5 2.7 4.7 9.1 6.2 13.4 2.1 5.7 5.8 13.5 5.8 26.2.1 52-42.5 95.2-95.8 95.1m-80.2-48.5 70-50.4-6-3.4-62.4 51.9c-7-12.7-11.9-29-11.9-44.5 0-49.1 39.1-88.9 88.6-89.2L85.4 90.4l6 3.5 8-82.9c.1-1 .8-1 .8 0l.5 87.4L115 90l-13.6-79.1c48.7 1.3 89 40.6 89 89.1 0 15.6-4.8 32-11.9 44.8l-62.3-51.9-6 3.4 67 48.6c1.6 1.1 1.1 1.7-.6.7l-75.3-43.4v16.3l75.4 28.8c-15.8 25.8-44.3 42.3-77 42.3s-60.8-16.5-76.6-42.3l75.6-28.8v-16.3l-78.3 45.2c-1.8.9-2.3.4-.6-.8m-1.8.8c-3.3-6.9-6.8-16.5-8.3-24.2 0-.5-.1-.8 0-1.2.3.3.4.6.6 1.2 2.3 7 4.2 13.3 9.4 22.8l-1.7 1.4zm177.7-64.2c-.2-.3-.4-.7-.5-1.1-7.3-22.5-13.5-31.4-25.5-44.6C153.8 20.2 128 6.8 100.6 6.8c-52.5 0-95.1 42.6-95.1 95.1 0 15.6 3.4 29.1 6.1 35.9 3.2 7.8 8.8 18.4 9 18.9.2.6.3.8.3 1.3-.4-.3-.6-.5-.9-1-1.6-2.3-8.1-14.1-10.2-19.2-4.4-11.2-7.7-23.4-7.7-36.1 0-54.1 43.8-98 97.9-98 48.3 0 87.3 33.6 95.6 78.6.2.2.3.5.1.9" style="fill:#008060"/>
</svg>