<?xml version="1.0" encoding="utf-8"?>
<!-- Generator: Adobe Illustrator 25.2.1, SVG Export Plug-In . SVG Version: 6.00 Build 0)  -->
<svg version="1.1" id="Layer_1" xmlns="http://www.w3.org/2000/svg" xmlns:xlink="http://www.w3.org/1999/xlink" x="0px" y="0px"
	 viewBox="0 0 200 200" style="enable-background:new 0 0 200 200;" xml:space="preserve">
<style type="text/css">
	.st0{fill:#008060;}
</style>
<g>
	<polygon points="99.9,0 69.3,53 99.9,105.8 130.7,53 	"/>
	<polygon points="99.9,105.8 130.7,158.6 191.9,158.6 161.3,105.8 	"/>
	<polygon points="8.1,158.6 69.3,158.6 99.9,105.8 38.7,105.8 	"/>
	<g>
		<polygon points="30.7,185.5 25.8,173.9 20.7,173.9 20.7,199.3 25.3,199.3 25.3,182.8 30.7,194.8 36.5,182.8 36.5,199.3 41,199.3 
			41,173.9 36,173.9 		"/>
	</g>
	<g>
		<rect x="45.8" y="173.9" class="st0" width="3.2" height="25.4"/>
	</g>
	<g>
		<polygon points="51.7,177.8 57.2,177.8 57.2,199.3 61.7,199.3 61.7,177.8 67.2,177.8 67.2,173.9 51.7,173.9 		"/>
	</g>
	<g>
		<path d="M77.2,184.6c-3.6-1.8-5-2.7-5-4.5c0-1.6,1.1-2.5,3.2-2.5c2.3,0,3.4,2,3.4,4.1h4.6c-0.2-4.3-2.3-8-8-8
			c-5.2,0-7.7,2.7-7.7,6.6c0,3.6,2.3,5.7,5.7,7.7c4.8,2.7,5.9,3.4,5.9,5c0,1.8-1.4,3-3.6,3c-2.7,0-3.9-2.3-3.9-4.5h-4.3
			c0.2,4.8,2.3,8.6,8.2,8.6c4.3,0,8.2-2.5,8.2-7.2C83.8,188.7,81.3,186.9,77.2,184.6"/>
	</g>
	<g>
		<path d="M98.4,191.4c0,2.7-1.3,4.3-3.8,4.3c-3,0-4.4-1.6-4.4-4.3v-17.5h-4.5v17.5c0,6.8,4.8,8.4,8.9,8.4c3.8,0,8.4-1.8,8.4-8.4
			v-17.5h-4.6V191.4z"/>
	</g>
	<g>
		<path d="M118.5,185.9c1.1-0.3,3.7-2.3,3.7-5.7c0-4.1-3-6.4-7.7-6.4H106v25.4h9.3c4.6,0,7.8-3,7.8-7
			C123.1,188.2,120.1,186.4,118.5,185.9 M114.1,195.5h-3.7v-17.7h3.4c2.1,0,3.6,0.9,3.6,3.2c0,2.3-1.4,3.2-3.6,3.2h-1.8v4.1h1.8
			c2.7,0,4.3,0.9,4.3,3.4C118.2,194.3,116.6,195.5,114.1,195.5"/>
	</g>
	<g>
		<polygon points="165.6,183.9 156.5,183.9 156.5,173.9 151.7,173.9 151.7,199.3 156.5,199.3 156.5,188.2 165.8,188.2 165.8,199.3 
			170.4,199.3 170.4,173.9 165.6,173.9 		"/>
	</g>
	<g>
		<rect x="126.2" y="173.9" class="st0" width="3.2" height="25.4"/>
	</g>
	<g>
		<rect x="175.4" y="173.9" class="st0" width="3.2" height="25.4"/>
	</g>
	<g>
		<path d="M142.9,184.3c-3.7-2-5-2.9-5-4.5c0-1.6,1.3-2.5,3.2-2.5c2.3,0,3.4,1.8,3.7,4.1h4.3c-0.2-4.3-2.2-7.9-8-7.9
			c-5.2,0-7.7,2.7-7.7,6.6c0,3.6,2.3,5.6,5.7,7.5c4.8,2.7,5.9,3.6,5.9,5.2c0,1.8-1.3,2.9-3.6,2.9c-2.7,0-3.9-2.5-3.9-4.8H133
			c0.2,5,2.3,8.6,8.2,8.6c4.3,0,8.2-2.5,8.2-7C149.4,188.2,147,186.6,142.9,184.3"/>
	</g>
</g>
</svg>
