<?xml version="1.0" encoding="utf-8"?>
<!-- Generator: Adobe Illustrator 25.2.1, SVG Export Plug-In . SVG Version: 6.00 Build 0)  -->
<svg version="1.1" id="Layer_1" xmlns="http://www.w3.org/2000/svg" xmlns:xlink="http://www.w3.org/1999/xlink" x="0px" y="0px"
	 viewBox="0 0 200 200" style="enable-background:new 0 0 200 200;" xml:space="preserve">
<style type="text/css">
	.st0{fill:#008060;}
</style>
<g>
	<path d="M193.7,69.9H170c-3.1,0-5.8-2.6-7.3-4.8c-12.6-20.4-36.6-33.1-62.7-33.1c-27.1,0-51.5,13.4-63.8,34.9L36.1,67
		c-0.2,0.9-1.1,2.9-4.1,2.9H6.3c-3.5,0-6.3,2.8-6.3,6.3v42.3c0,3.5,2.8,6.3,6.3,6.3h21.4c1.6,0,3.1,0.9,4.4,2.8
		c0.3,0.4,0.8,1.1,1.3,1.8c1,1.3,2.2,3,3,4.2c13,21.2,37.4,34.4,63.7,34.4c25.4,0,48.4-11.1,61.5-29.6c0.3-0.5,0.8-1.2,1.3-1.9
		c1.7-2.4,4-5.6,5.8-9.2c1.2-2.1,1.9-2.4,3.5-2.4h21.3c3.5,0,6.3-2.8,6.3-6.3V76.2C200,72.7,197.2,69.9,193.7,69.9 M33.3,71.7
		L33.3,71.7c2.3-0.5,3.9-1.9,4.5-4.1c12-20.9,35.8-33.9,62.2-33.9c25.5,0,49,12.4,61.2,32.3c1.8,2.7,5,5.7,8.8,5.7h23.7
		c1,0,1.9,0.3,2.6,0.9l-5.9,5.5c-0.6-0.4-1.3-0.6-2-0.6H11.6c-0.7,0-1.5,0.2-2,0.6l-4.8-6c0.5-0.2,1-0.3,1.6-0.3H33.3z M50.4,147.5
		c-1.8-1.4-4-3.7-6.2-6.3c-1.6-1.9-3.1-4-4.6-6c-1.5-2.1-2.9-4.1-4-5.7c-1.3-2-2.1-3.4-2.3-3.8c-0.8-1.5-1.5-3.4-0.3-5.1
		c1.3-1.8,4.5-3.8,6.5-4.5l12.4,7.3l-0.6,0.9l-10.6-5.9c8.2,23.4,31.7,40.2,59.4,40.2c27.1,0,48.8-16.5,57.4-39.2l-9.3,4.9l-0.3-0.5
		c-0.1-0.1-0.1-0.3-0.2-0.4c0,0,0,0,0-0.1l12.8-7.4l8.2,6.5c-2.6,6.6-9.9,17.9-19.9,16.8c-13.1,14.6-28.3,21.6-48.6,21.6
		c-20.2,0-38.3-8.2-50.5-21l-6-2C45.7,141.8,48.4,145.4,50.4,147.5C50.4,147.5,50.4,147.5,50.4,147.5 M146.3,125.4
		c-6.9,19.6-28.5,27-46.3,27.3c-17.9-0.3-39.4-7.7-46.3-27.3c-0.2-0.5-0.2-0.9-0.1-1c0,0,0.1-0.1,0.2-0.1h92.3c0.1,0,0.2,0,0.2,0.1
		C146.5,124.5,146.5,124.9,146.3,125.4 M190.4,81.2V110c0,1.1-0.9,2-2,2H11.6c-1.1,0-2-0.9-2-2V81.2c0-1.1,0.9-2,2-2h176.9
		C189.5,79.2,190.4,80.1,190.4,81.2"/>
	<path d="M54.2,76.1h93.5c3.3,0,1.9-2.8,1.1-4.3c3.8,0.6,6.7,2.3,9.1,4.3C149.7,51,127,38.8,100.2,38.8c-27.1,0-49.4,14.7-57.6,37.9
		c2-1.6,5.9-3.7,8.8-4.2C51.3,74.2,52.1,76.1,54.2,76.1 M54.4,71c7.9-20.6,25.8-27.5,45.6-27.5c20.5,0,41.1,6.7,47.7,27.5
		c0,0,0.1,0.3,0.1,0.5c0-0.1,0-0.2-0.1-0.5c0.3,1.3,0.1,1.8-1.2,1.8H56C55.1,72.8,53.8,72.5,54.4,71"/>
	<polygon points="42.9,101.4 35.4,82.6 24.1,82.6 24.1,107.4 31,107.4 31,87.7 38.9,107.4 49.9,107.4 49.9,82.6 42.9,82.6 	"/>
	<g>
		<rect x="55.3" y="82.6" class="st0" width="7.6" height="24.8"/>
	</g>
	<polygon points="126.8,82.6 117.9,107.4 125.1,107.4 126.7,102.9 137,102.9 135.1,97.4 128.6,97.4 131.8,88.1 138.6,107.4 
		145.8,107.4 137,82.6 	"/>
	<path d="M81.7,92.2h-7.4v-4h14v-5.6H74c-3.8,0-6.8,1.8-6.8,7.1c0,2.5,0.4,8,8.4,8h7.6v4H67.9v5.7h15.5c3.6,0,7.1-2.9,7.1-7.7
		C90.5,94.9,87.9,92.2,81.7,92.2"/>
	<polygon points="167.2,101.4 159.7,82.6 148.4,82.6 148.4,107.4 155.3,107.4 155.3,87.7 163.3,107.4 174.2,107.4 174.2,82.6 
		167.2,82.6 	"/>
	<path d="M108,92.2h-7.4v-4h14v-5.6h-14.3c-3.8,0-6.8,1.8-6.8,7.1c0,2.5,0.4,8,8.4,8h7.6v4H94.1v5.7h15.5c3.7,0,7.2-2.9,7.2-7.7
		C116.8,94.9,114.2,92.2,108,92.2"/>
</g>
</svg>
