<svg xmlns="http://www.w3.org/2000/svg" xml:space="preserve" id="Layer_1" x="0" y="0" style="enable-background:new 0 0 200 200" version="1.1" viewBox="0 0 200 200">
  <style>
    .st0{fill:#008060}
  </style>
  <path d="M22 65.1c.4 12.5.9 27.6 1.4 42.6.2 6.4 1 12.7 2.8 18.8 6.3 20.9 17.9 38.4 34.1 52.9 10.3 9.2 21.9 16.1 35.4 19.7 4.5 1.2 8.7 1.3 12.8-.9 5.9-3.2 11.9-6.3 17.6-9.8 17.9-11 31.4-26.2 40.6-45 5.9-12 9.8-24.7 10.5-38 .5-9.2.5-18.4.5-27.6.1-21.1.1-42.1.1-63.2 0-1.7-.6-2.7-2.2-3.2-6.9-1.9-13.6-4.2-20.6-5.7C138.7 2 122.2.7 105.5.1 86.3-.5 67.2 1.8 48.3 6.3c-8.4 2-16.7 4.6-24.6 8.2-1.2.5-1.7 1.3-1.7 2.7v47.9m4.7 39c-.4-8.6-.8-17.1-1-25.7-.2-11.3-.2-22.5-.4-33.8 0-1.2.4-1.9 1.5-2.4 13.5-6.4 27.5-10.9 42.3-12.9 8.7-1.2 17.5-1.7 26.2-2.5h1.5c.4 0 .7.3.7.7v34.3c0 .4-.3.7-.7.7H74.2c-.4 0-.5-.3-.3-.6 1-1 2.6-.9 3.7-1.6.3-.2.3-.7 0-.8-1.8-1-4.8-.6-6.7 1-.6.5-1.3 1.1-1.7 1.8-.9 1.3-2 2-3.6 1.9-1.1-.1-2.2.1-3.4.2-.4 0-.7-.3-.6-.7.4-2 1.7-3.3 3-4.5.5-.5 1.2-.8 1.7-1.2.2-.2.3-.3.4-.5.2-.3.1-.7-.3-.8-.2-.1-.5-.1-.7-.1-2.9.6-5.2 2.1-6.6 4.8-.3.5-.5 1-.7 1.5-.4.8-.5 2.2-1.1 2.5-1.6.8-3.3 1.1-5.1 1.5-.2.1-.8-.7-.8-1.1.1-2 .8-3.8 2.2-5.2.4-.5.8-1 1.3-1.6.2-.3.1-.6-.3-.7-1.8-.2-3 .4-4 1.6-1.7 2-2.8 4.4-2.9 7 0 1-.4 1.5-1.3 1.8-.9.3-1.8.8-2.7 1.2-1.1.5-1.6.1-1.6-1 0-2.4.4-4.6 1.9-6.6.1-.1.2-.3.3-.5.2-.3 0-.6-.4-.7-1.2-.2-2.3.4-3.2 1.7-1.4 2.3-1.5 4.8-1.6 7.3 0 1.5-2.5 3.8-4 3.6-.4-.1-.7-.5-1-.8-.4-.5-.7-1.3-1.2-1.5-.7-.2-1.9-.3-2.3.1-.4.4-.4 1.6-.3 2.3.1.3.3.7.6 1 .2.3.2.8-.2 1-.5.4-1 .7-1.5 1-1 .7-1.2 1.7-.6 2.8.6 1.1 1.5 1.6 2.6 1.1 1.4-.6 2.6-1 4 .3.4.4 2 .2 2.4-.3.5-.5.4-1.7.2-2.5-.3-.9-.9-1.5.3-2.2 8.9-4.7 18.2-8.2 28.4-8.8h1.8c.1 0 .2 0 .4.1s.4.4.4.8c0 4 .1 7.9-.1 11.8-.1.9-1.3 1.8-1.7 2.8-.5 1.5-1.7.9-2.6 1.1-1.1.2-2.2.2-3.3.3-1.5.2-1.7-.5-1.5-1.8.4-2.8 1.8-5 4.1-6.5.1-.1.3-.2.4-.3.2-.2.1-.4-.3-.4-1.9-.1-4.8 1.4-5.7 3.2-.7 1.3-1.1 2.8-1.3 4.2-.3 2.6-.2 2.6-2.8 3.2-.9.3-1.8.5-2.7.7h-.3c-.2 0-.4-.3-.5-.7-.5-3.2.5-5.8 2.8-8.1.3-.3.2-.6-.2-.6-1.6-.1-3 .7-4.2 2.3-1.6 2.1-1.7 4.5-1.2 7 .2 1.1-.1 1.6-1.1 2-.9.4-1.8.8-2.7 1.3-1 .5-1.5.2-1.8-.8-.6-2.5-.3-4.9 1.2-7.1.1-.2.3-.4.4-.6.2-.3.1-.6-.3-.6-1.5.1-2.5.9-3.3 2.1-1.4 2.1-1.5 4.4-1 6.7.6 2.7.7 2.9-1.4 4.1-.3.2-.9.2-1.2-.1-.5-.4-1-.9-1.5-1.3-.9-.7-2-.8-2.7 0-.4.6-.6 1.9-.3 2.5.8 1.5.7 2.3-.8 3.2-1.3.8-1.5 2.3-.7 3.3.7 1 2.2 1 3.4.1.3-.3.7-.5 1-.9.7-.7 1.4-.7 2.1 0 .5.4 1.2.9 1.7.9.8-.1 1.8-.4 2.2-1 .3-.4.1-1.4-.1-2.1-.1-.4-.5-.7-.9-1.2-.3-.3-.2-.7.1-.9 8.7-5 17.8-8.1 27.9-8.9.4 0 .7.3.7.7v17.7c0 .4-.3.8-.7.8-.4.1-.8.1-1.2.1H28.7c-1.8 0-1.9 0-2-2.2m36.9 68.1c-.2 1-.5 2.1-.8 3.1-.1.4-.3.7-.5.7-.1 0-.3-.3-.3-.7v-1.9c0-.4.2-1 .5-1.3.1-.1.2-.2.3-.4.3-.3.6-.5.7-.4.2.2.3.6.1.9m34.9 1.2c-.6.6-1.8 1.1-1.2 2.1.2.3.2.7-.1 1-1 .8-1 1 .5 2.3.3.3.4.4.2.4-.2-.1-.3-.1-.4-.1-.5 0-1.1-.1-1.4.1-.3.2-.5 1-.4 1.2.2.4.8.6 1.3.8.3.2.8.1 1 .4.1.1-.2.7-.2 1-.1.5-.1 1-.1 1.5 0 .4-.2.9-.5 1.1-.5.3-1 .7-.6 1.7.1.2-.2.4-.3.7-.2.6-.6 1.4-.5 1.6.3.3.8.5 1.5.7.4.1.6.5.6.7 0 .3-.3.3-.6.2l-.6-.3c-.4-.1-.9-.3-1.1-.1-.4.3-.7.9-.6 1.3 0 .3.6.7 1 .9.5.2 1 .3 1.5.4.4.1.7.4.6.6-.1.2-.4.3-.8.1-.5-.2-1.1-.4-1.6-.6-1.2-.3-2.3-.6-3.5-1-.4-.1-.7-.1-.8 0 0 .1-.2 0-.3-.3-.1-.3-.6-.5-1-.5-.3 0-.6-.1-.9-.1-.4 0-.6-.4-.5-.7.1-.2.2-.5.2-.7 0-.5.2-1 0-1.4-.1-.3-.8-.7-1.1-.6-.4.2-.7.7-1 1.2l-.3.6c-.1.3-.4.4-.7.2-.3-.2-.8-.5-1.2-.6-.3 0-.6-.1-.9-.1-.4-.1-.6-.4-.4-.8.5-1.1 1-2.2 1.4-3.2.1-.2-.1-.5-.4-.8-.2-.3-.7-.4-1-.2-.3.2-.6.4-.6.6-.4 1.1-.4 2.3-.7 3.5 0 .1-.3.1-.5.1-.3 0-.5-.3-.4-.7.1-.8.3-1.5.1-2.1-.2-.5-2.4-.9-3.7-.8-.4 0-.8-.2-1-.5-.4-.7-1.1-1-2.1-.6-.4.1-.6 0-.5-.4.1-.5.2-.9.4-1.3.5-1.1-.1-1.5-.9-1.9-.7-.3-1.4-.7-2-.6-.6.1-1.1.4-1.7.8-.3.2-.6 0-.5-.3.2-.6.3-1.3.5-2 .1-.5.5-1.1.3-1.4-.2-.3-1-.7-1.3-.5-.4.2-.6.9-.8 1.4-.1.2-.2.4-.2.6-.1.3-.3.6-.5.5-.2 0-.3-.4-.3-.8 0-.3.1-.6.2-.8.4-1.1.6-2.2 1-3.3.3-.9-.4-1.2-1.2-1-.4.1-.8 0-1-.3-.1-.3-.2-.6 0-.6.1 0 .2-.1.3-.1 1.3.2 2.8-.1 4 1 .2.2.7 0 1.1-.1.4-.2.9 0 1.2.3l.4.4c.3.3.7.3.9-.1.3-.4.6-.8 1-1.3.2-.3.6-.3 1-.2.9.3 2.3.1 3.3 1.1.6.6 1.8.8 2.7.9.4 0 .9-.7 1.2-1.2.2-.2.4-.5.6-.7.2-.3.5-.5.6-.5.1.1.1.5-.1.8-.2.3-.3.6-.5.9-.2.3-.1.9.2 1.1.2.1.3.3.6.5s.7.1.8-.3c.1-.4.2-.9.3-1.3.1-.4.4-1 .7-1.2.4-.2.7 0 1 .4.2.3.6.6.9.4.3-.1.5-.2.8-.3.4-.1.9 0 1.1.3.1.2.3.3.4.5.2.3.6.3.9 0 .2-.3.5-.6.8-1 .2-.3.7-.5 1-.5.3.1.3.3 0 .5-.2.2-.3.3-.5.4-.2.3-.5.9-.4 1.1.3.4.8.6 1.3.8.4.2.9.2 1.4.3.4.2 1 .6 1.2.5.4-.3.8-.8.8-1.3.2-1.3.4-1.7 1.4-1.3.2.1.5.6.2.9m74.7-64.5c-1.8 14.8-6.2 28.6-14.2 41.3-6.5 10.3-14 19.8-23.7 27.2-9.2 7.1-19 13.4-29.5 18.3-.4.2-.8.4-1.3.6-.4.1-.7-.1-.7-.5v-58c0-.4.3-.8.7-.7 1.1.2 2.4 1.3 3.2.3.2-.3.6-.5 1-.4.9.4 1.8.8 2.5.6.5-.1.8-1.2 1.2-2.2.2-.4.6-.8 1-.9 4.4-1.8 8.4-4.9 12-8.6.3-.3.7-.5 1.1-.6 11-3.9 21.7-4.2 32 2.1.8.5 1.6 1.1 2.7 1.9.3.2.5.1.5-.3 0-.9 0-1.6-.3-2.1-.8-1.4-1.7-2.7-2.8-3.8-1-1.1-1.1-1.7.4-2.4s3-1.3 4.9-2c.4-.2.4-.4.1-.7-.5-.4-.9-.7-1.3-.8-2.6-.3-5.2-.3-7.1 2-.5.6-1.5 1.5-2 1.4-1.5-.3-2.9-1-4.3-1.7-.1-.1 0-1.1.2-1.4 1.1-1.3 2.3-2.4 3.6-3.6.3-.3.7-.6 1.1-.8.3-.2.4-.6.1-.8-1.4-1.1-4-1.2-5.7.1-1.4 1-2.7 2.4-3.5 3.8-.9 1.6-1.9 2.7-3.9 2.5-.6-.1-1.1 0-1.8.1-.4 0-.7-.3-.6-.7.5-2.7 1.9-4.6 4.3-6.1.4-.2.3-.5 0-.7-.4-.2-.6-.4-.9-.4-4.2 0-7.3 2.3-8.4 6.3-.9 3-1.1 3.3-4.1 3.7-.4.1-.6-.2-.4-.5.6-1 1.2-2 1.5-3.1.8-2.8 1.4-5.6 1.9-8.5.2-.9.4-1.3 1.4-1.3h37.6c1.4-.3 1.7.2 1.5 1.4m-146-92.4C35.7 12.7 44.5 10 53.6 8c18.4-4.1 37.1-5.8 56-4.9 18.6.8 37.1 2.8 55.1 7.9 2.9.8 5.8 1.9 8.6 3 .6.2 1.2 1.1 1.2 1.6.1 7.3.1 14.6.1 21.9 0 .2 0 .3-.1.5 0 .3-.4.4-.8.2-2.9-1.1-5.8-2.2-8.7-3.1-11.5-3.9-23.2-6.7-35.2-8.5-.4-.1-1-.2-1.4-.2-8.2-1.2-16.4-1.7-24.7-1.5-2.8.1-2.8.1-2.8 2.9 0 4.3.1 8.5-.1 12.8-.1 1.6.4 2.1 2 2.1 21.7-.1 43.3 0 65 0h5.5c.4 0 .7.3.7.7v.4c0 .4-.3.7-.7.7H103c-2.3 0-2.3 0-2.3 2.4v15.4c0 .3.1.7.2 1 .1.4.5.5.9.3.2-.1.5-.3.7-.4.3-.2.8-.3 1.1-.3 1.4 0 1.9-.5 1.6-1.6-.1-.4-.1-.8.1-1 .1-.1.3-.2.4-.3.1 0 .1-.1.2-.1.1-.1.4.1.7.4.8 1 1.7 1.1 2 .1.4-1 .5-2 1-2.9 0-.1-.2-.3-.5-.6s-.8-.2-1 .1c-.2.2-.5.5-.6.8-.2.2-.2.5-.3.8-.1.4-.3.7-.5.6-.2-.1-.3-.4-.2-.7.1-.2.1-.4.1-.7.1-.4.6-1.1.4-1.2-.4-.5-1-.7-1.5-1-.2-.1-.4-.2-.6-.4-.3-.2-.3-.5 0-.8.7-.6.8-1.3.4-2-.2-.3-.7-.5-1.1-.3-.4.1-.7-.1-.7-.5-.1-1.1-.1-2.1-.1-3.2 0-.2.3-.6.6-.7.2-.1.7 0 .8.2.1.2.3.4.4.6.2.3.5.4.8.1l1.1-1.1.4-.4c.2-.2.5-.3.6-.3.1.1 0 .3-.1.6-.1.1-.2.3-.3.4-.1.4-.3 1-.1 1.3.2.3.9.5 1.3.4.4-.2.7-.8.9-1.2.2-.3.2-.7.3-1.1.1-.4.4-.4.6-.1.7.9 1.3 1.4 2.1.8.3-.2.6-.2.8.1.4.7.7 1.3 1.8.8.1-.1.4.1.5.2.6.6 1.4 1 2 .2.2-.3.2-.8.3-1.3 0-.4.2-.7.5-.7.2 0 .4.3.4.7 0 .2 0 .5-.1.7-.1.5-.2 1.1 0 1.5.1.2.9.5 1.1.3.4-.3.6-.8.8-1.3.2-.4.3-.7.4-1.1.1-.4.4-.5.7-.2.3.2.5.4.7.6.3.3.8.3 1-.1.3-.3.6-.7.9-1.1.3-.3.8-.5 1.2-.4 1.2.2 2.6.4 4.1.7.4.1.6.4.4.8-.1.3-.2.7-.3 1 0 .4.1.7.3 1.1.2.4.6.6.9.5.3-.1.6-.2.6-.3.4-1 .6-2.1.9-3.3.1-.4.5-.6.9-.6 1.1.1 2.4-.3 3.6.7.3.2.9 0 1.7-.3.4-.1.6.1.4.5-.2.6-.5 1.2-.7 1.8l-.2.4c.4.5.8 1 1.4 1.4.6.4 1.4.7 2.1.6.9 0 1.5-.5 1.2-1.6-.1-.2.2-.5.3-.8.1-.5.5-1.1.3-1.6-.3-.8-.9-1-1.7-.5 0 0-.1 0-.2-.1s-.2-.2-.2-.4c0-.1.3-.2.8-.2 1 0 2 0 2.7.4.7.5 1.2.6 1.6.5.4-.1.8-.2 1.1 0 .4.4.8.7 1.2.7.5-.1.8-.6 1.4-1.1.3-.3.7-.4 1-.4.3.1.9.1 1.3.1 1.5.1 3 .4 4.4 1.2.3.2 1.1-.3 1.6-.7.1-.1.2-.2.3-.4.1-.2.2-.1.3.3.1.4.1.7.2 1 .1.4.4.8.8.8 1 0 1.2-.9 1.2-1.9 0-.4.3-.6.7-.5.3.1.5.2.7.3.3.1.7.6.8.5 1.1-.6 1.7.1 2.5.6.3.2 1-.5 1.5-.8.2-.1.2-.2.4-.4s.2-.1.1.3c-.5 1.1-.1 1.4 1.7 1.7.9.2 1.6 1.2 2.5.6.3-.2.6-.2.7.2 0 .1 0 .1.1.2.1.4 0 .9-.3 1.2-.8.9-.7 1.1.5 2.1.3.2.3.5-.1.6-.5.1-1 .2-1.4.5-.1 0-.1 1 .1 1.1.4.3.9.4 1.5.6.4.1.9.5.7.9-.4.7-1.5 1.5-.4 2.4.3.3.3.4-.1.5-1.5.4-.9 2-1.3 3-.2.4-.1.6.3.6h.5c.4 0 .7-.3.7-.7 0-.4.1-.7.3-.7.1 0 .3.3.3.7 0 .5.1 1.1.1 1.7 0 .4-.3.7-.7.8-.4.1-.8.1-1.2.1-13.4 0-26.7 0-40.1-.1-1.5 0-2 .3-2 1.9.2 4.3.2 8.6.2 12.9 0 1.7.6 2.1 2.2 2.1 12.9-.1 25.8-.1 38.7-.1h1.4c.4 0 .8.3.8.7 0 .2.1.3.1.5.1.4-.2.7-.6.8-.5 0-1 .1-1.5.1h-38.6c-2.4 0-2.4 0-2.4 2.5.1 5.1.1 10.3.1 15.4 0 1.8.1 1.9 1.8 1.1.2-.1.6.1.9 0 .3-.1.7-.3 1-.4.4-.2.5-.6.2-.9-.2-.3-.4-.6-.7-.8-.1-.1-.3-.3-.5-.4-.3-.2-.1-.3.2-.2 1.5.5 1.5.3 2.1-1.9 0-.2.3-.3.4-.5.1-.5.4-1.2.1-1.5-.2-.3-.6-.4-1.2-.6-.4-.1-.7-.4-.7-.7v-.5c.1-.6.7-1.4.5-1.7-.3-.3-.8-.5-1.4-.7-.4-.1-.6-.6-.6-1 .1-.6.1-1.3.2-2.1 0-.4.4-.6.7-.6.2.1.4.1.6.2.4.1 1 .4 1.3.2.4-.3.7-.8.7-1.3 0-1.1.3-1.2 1-1 .4.1.4.5.2.8-.6.7-1 1.4-.5 2.2.2.4.5.5.5.5s.3-.1.7-.2c.6-.2 1-.6.8-1.6-.1-.3.2-.6.4-.9.2-.3.5-.3.7 0 0 .1.1.1.1.2.2.4.6.7 1 .7.7 0 1-.3 1.2-1.4.1-.4.4-.6.8-.6 1.1.1 2.4-.1 3.3.7.3.3.4.5.4.5h1.4c.4 0 .5.3.3.6-.2.2-.3.4-.4.6-.2.4-.2.9-.1 1.3.1.3.7.6 1 .5.4-.1 1-.5 1.1-.9.3-.9.5-1.9.7-2.9.1-.4.5-.7.9-.6 1.7.2 3.2.5 4.7.7.4 0 .7 0 .7-.1s.1.1.3.4c0 .1.1.2.1.3.2.4.4.7.4.8.1.1.5.1.9 0h.3c.4-.1.6.1.5.5-.1.2-.2.4-.2.6-.1.5-.3 1.2-.2 1.5.1.3 1 .6 1.3.4.4-.2.5-.9.7-1.4.1-.3.1-.7.2-1l.3-.9c.1-.4-.1-.8-.5-.9l-.9-.3h-.3c-.1 0-.2-.1-.2-.3 0-.1.3-.2.7-.2.7 0 1.4.1 2.1.2.7.1 1.4.3 2.1.4.4.1.9.3 1.3.6 1 .9 1.3.9 2.2-.4.3-.3.7-.5 1.1-.5 1 0 2.1-.3 3.1.2.4.2.5.6.5.7 0 .1-.4.2-.8.1l-1.8-.6c-1.1-.5-1.5.1-1.8 1-.1.4-.1.8-.1 1.2-.1.6-.5 1.4-.2 1.8.2.3.7.4 1.4.5.4.1.6.4.5.7-.1.2-.1.4-.2.6-.1.5-.4 1-.2 1.4.1.3 1 .6 1.2.5.4-.3.6-.9.8-1.4.2-.3.2-.8.4-1.1.7-1.2.5-1.9-.9-2-.3 0-.6.1-.8-.1-.1-.1-.2-.3-.2-.5-.1-.3.1-.5.3-.5.2 0 .3 0 .5.1.5.2 1 .4 1.7.8.4.2.5.6.4 1-.3.9-.6 1.9-.8 3-.1.3 0 .7.1 1 .1.4 0 .9-.3 1.2-.4.4-.7.7-.7 1 .1.4.5.8 1 1.2.3.3.5.8.5 1.2-.1 1.4-.2 3-.3 4.8 0 .4-.4.7-.8.7h-2c-12.6 0-25.1.1-37.6.1-1.4 0-1.9.4-1.9 1.8-.3 12.6-10.3 22.9-21.4 26.3-1.8.6-3.7 1.1-5.6 1.3-1.8.1-2.1.9-2.1 2.5.1 9.5 0 19 .1 28.5v29.7c0 .3 0 .5-.1.9 0 .4-.4.7-.7.5-.7-.4-.5-1.2-.6-1.9-.1-5.8-.1-11.5-.1-17.3 0-2.2 0-4.4-.1-6.6-.1-2.3-.4-2.6-2.7-2.6h-31c-3.8 0-7.5.1-11.3-.1-.6 0-1.2-.3-1.8-.7-.3-.2-.6-.5-.5-.7 0-.2.4-.4.8-.4h44.1c2.4 0 2.4 0 2.4-2.4V149c0-2.1 0-2.1-2.1-2.1l-56.7.3c-2 0-2.4-.2-2.8-2.1-.1-.4.2-.6.6-.6.4.1.7.1 1 .2.5.1 1.1.3 1.4.2.3-.1.7-1 .6-1.1-.3-.5-.9-.8-1.4-1-1-.3-2-.6-2.8-.8-.4-.1-.6-.5-.6-.9.1-.7.2-1.3.4-1.8.1-.4.1-.7 0-.7s0-.3.2-.6c.1-.2.2-.3.3-.5.2-.3.1-.8-.3-.9-.3-.2-.7-.4-1.1-.5-.9-.4-2-.5-2.8-1.1-.8-.5-.4-.9 0-1.2.3-.3.5-.9.4-1.2-.2-1-1-1.2-2.2-.9-.4.1-.6-.1-.4-.4 0-.1 0-.1.1-.1.2-.4.6-.5 1-.4.6.2 1.2.5 1.6.4.2-.1.4-.6.6-1.2.1-.3.6-.6 1-.6.6.1 1.2.1 2 .2.4 0 .9.3 1.2.6.7.7 1 .6 1.9-.5.3-.3.4-.2.4.2 0 1.2.6 1.6 1.9 1.2.4-.1.6.1.5.5-.1.4-.2.8-.3 1.1-.1.5-.3 1-.2 1.4.1.3.8.6 1.1.5.4-.2.7-.6.9-1.1.3-.6.5-1.2.7-1.8.1-.3.2-.8.1-.9-.4-.3-.9-.5-1.3-.8-.2-.1-.4-.2-.6-.2-.3-.1-.5-.4-.5-.5.1-.2.4-.3.8-.2 1 .1 2 .2 2.7.7 1.2 1.1 1.9.8 2.4.1.2-.3.5-.3.6 0 .2.4.3.9.6 1.2.1.1.4.1.7 0 .4-.1 1-.1 1.3.1.7.4 1.4.7 2 1.1.4.2.6.5.6.6 0 .2-.4.3-.7.3-.2 0-.5 0-.6-.1-.6-.6-1.1-.9-1.8-.2-.2.3-.4 1-.2 1.1.4.2.8.4 1.2.4.4.1 1 .3 1.3.5.4.2.8.5 1.1.4.8-.1 1-.9.6-1.7-.1-.1.5-.5.6-.8.2-.4.5-.9.4-1.2-.2-.4-.7-.6-1.1-.8-.2-.1-.4-.2-.6-.2-.3-.1-.5-.4-.4-.6.1-.2.5-.3.9-.1 1.3.6 2.4 1.2 3.5 1.3 1 .1 1.3-.6 1.1-1.4-.1-.4 0-.7.4-.7 1 0 2 0 3 .1.1 0 .2.9.2 1.3-.1.5-.6 1.3-.4 1.5.3.4 1.1.4 1.6.6.2.1.6.3.6.4 0 .2 0 .5-.1.8-.1.4-.4.5-.6.2-.2-.3-.3-.4-.4-.5-.5-.2-1.1-.4-1.5-.2-.3.1-.6.9-.4 1.2.2.4.8.5 1.3.8.4.2.9.3 1.3.6.8.5 1.8.1 1.6-.5-.2-1 .3-1.5.8-2 .3-.3.3-.7 0-1-.3-.3-.7-.6-1-.8-.2-.1-.3-.2-.5-.2-.3-.1-.4-.4-.2-.8.1-.3.3-.3.6 0 .8.8 2.3.2 3 1 .3.3.7.5 1 .4.8-.4 1.3-.8.6-1.9-.2-.4-.1-.6.3-.6.5 0 .9-.1 1.1.1 1 1 1.8.8 2.6.1.3-.3.4-.2.2.2-.3.8-.7 1.6-.8 2.4 0 .2.3.5.6.8.3.3.8.3 1.1.1.3-.3.6-.5.8-.8.1-.2.2-.4.2-.6 0-.3.3-.5.7-.3 1.4.7 2.5 1.4 3.7 1.5.7 0 1.2.3 1.6.6.3.2.9.5 1.3.5h1c.4 0 .8.1.8.2.1.1-.1.3-.4.5-.2.1-.3.2-.4.4-.2.3-.4 1.1-.4 1.2 1.1.6 2.3 1.4 3.5 1.6.3.1.8-.6 1.4-1.4.2-.3.8-.5 1.2-.4.8.2 1.8.5 2.8.8l.9.3c.2 0 .5.1.7.2.4.1.5.4.4.7l-.3.6c-.1.5-.2 1.4 0 1.5 1.7.7 1.3 2.2 1.7 3.4 0 .1.1.3.1.4.1.2.5.5.8.4.6-.1.8-.5.8-1.3 0-2.2 0-4.4.1-6.6 0-1-.4-1.5-1.5-1.6-6.8-.6-12.6-3.3-17.9-7.5-.6-.5-1.6-.7-2.4-.7-15.2 0-30.4.1-45.6.2-1.3 0-2.1-.3-2.2-1.7-.1-.4.3-.7.7-.7h45.5c.4 0 .7-.1.8-.3.1-.1-.2-.5-.4-.8-3.2-3.2-4.5-7.2-5.3-11.5-.4-1.9-.5-3.9-.5-5.9-.1-12.9-.1-26.1-.2-39.3 0-2.7 0-2.7 2.6-2.7h23.9c1.5 0 2-.5 1.9-2-.2-11.7-.2-23.4-.3-35.2 0-1.5-.5-2.1-2-2-22.4.7-44.2 4.3-64.9 12.9-2 .8-3.9 1.7-6 2.6-.4.2-.7 0-.7-.4v-.7c0-6.7 0-13.4-.1-20.1 0-1.3.5-2.1 1.9-2.7" class="st0"/>
  <path d="M144.5 89.3c.4.1 1 .3 1.4.4.5.2.9.4 1.2.2.7-.3.8-.8.5-1.4l-.3-.6s-.3 0-.7.1c-.7.1-1.4.2-1.8-.7-.1-.1-.9 0-1 .1-.3.4-.5 1.3-.4 1.3.3.4.7.5 1.1.6M157.7 88.9c-.4.1-.8.2-.8.1l-.1-.1c-.6-.3-1.1-.6-1.7-.7-.1 0-.2.2-.3.5-.1.3.1.7.4.9.4.2.7.4 1.1.6.3.1.5.2.8.3.3.1.5.2.8.3.4.2.7-.1.8-.4 0-.2.1-.4.1-.6.1-.4.1-.8 0-.8-.3-.3-.7-.2-1.1-.1M72.5 68v38.9c0 4.3 1 8.4 3.2 12.2 4.3 7.4 11.1 11.5 19.2 13.6 2.4.6 5.1 1.3 7.5.9 7.1-1.2 13.6-4.2 19.1-9 5-4.4 7.8-9.8 7.7-16.7-.2-13.5-.1-27 0-40.4 0-1.5-.4-1.9-1.9-1.9-8.7.1-17.4 0-26.2 0H74.9c-2.2-.1-2.4.1-2.4 2.4m28.2-.6h24.2c1.6 0 2.2.4 2.2 2.1-.1 13 0 26-.1 39 0 6.1-3.1 10.7-7.5 14.6-4.9 4.5-10.8 7.3-17.3 8.5-1.1.2-2.3 0-3.4-.2-6.6-1.3-12.8-3.4-17.6-8.4-4.4-4.7-6.6-10.4-6.7-16.7-.2-12.3 0-24.7 0-37 0-1.4.4-1.9 1.9-1.9h24.3M154.9 27.5c2.4.8 4.8 1.3 7.2 2 2.9.9 5.7 1.8 8.6 2.7.4.1.7-.1.8-.5.4-2.6.2-2.7-2.5-3.6-3.1-1.1-6.2-2-9.3-3-1.8-.6-2.2-.9-1.6-2.8.1-.4.6-.6.9-.5l11.7 3.6c.4.1.7-.1.8-.5.2-2.2 0-2.4-2.3-3.2-3.5-1.2-7-2.2-10.5-3.3-.4-.1-.7-.5-.7-.9v-1.1c0-.4.3-.6.7-.5 4.1 1.2 8 2.3 12 3.4.4.1.7-.1.8-.5.5-2.3.3-2.5-2.2-3.3-2.7-.9-5.4-1.6-8.1-2.4-2.2-.6-4.3-1.1-6.5-1.6-.4-.1-.7-.1-.8.1-.1.1-.1.2-.1.2 0 4.8-.1 9.6 0 14.4 0 .5.7 1.1 1.1 1.3M28.2 33.6c0 .4.3.7.7.6 3.1-.6 3.4-1.1 3.5-4.1 0-1.2.5-1.7 1.5-2.1 3.7-1.3 7.3-2.7 11-4 1.6-.6 2.5-1.5 2.4-3.3-.1-1.7-.1-3.3-.1-5 .1-1.6-.9-2.3-2.3-2.5-.8-.1-1.8 0-2.6.3-4.4 1.5-8.9 3-13.2 4.6-.5.2-.9 1-.9 1.6-.1 3.4-.1 6.8-.1 10.3v3.6zm4.2-12.4c0-.4.3-.8.7-1 3-1 6-2 9.1-2.9.5-.1 1.7.3 1.7.5 0 .9 0 2.4-.5 2.6-3.3 1.4-6.7 2.5-10.3 3.8-.4.1-.7-.1-.7-.5v-2.5zM95.7 14.8c3.1 0 6.3.1 9.4.1 1.1 0 1.8.4 1.7 1.5 0 1.1-1 1-1.7 1h-8c-1.1 0-2.2.1-3.3.2-.4 0-.7.4-.7.8V20c0 .4.3.7.7.7 4.1 0 8.1-.1 12.1 0 4.2.1 4.3-1.5 4.5-4.8.1-.6-.2-1.1-.2-1.6-.2-1.5-.9-2.3-2.4-2.4-3.3-.1-6.5-.2-9.7-.3-.8 0-1.9.4-2.1-.9-.2-1.4.9-1.6 1.9-1.6 2.1-.1 4.1-.2 6.1-.2h4.7c.4 0 .7-.2.7-.5V8c.3-1.7-.3-2.3-2.1-2.3-3.1.1-6.3-.2-9.4-.2-5.1.1-6 .1-5.7 6.5.3 2.1 1.3 2.8 3.5 2.8M49.9 20.1V24c.1 2.4 1.3 3.3 3.6 2.7 3.7-.9 7.5-1.9 11.2-2.7 2.4-.5 3.3-1.4 3.4-3.9.1-2.8.1-5.6 0-8.4 0-2.2-1.3-3.3-3.4-2.9-4.2.7-8.3 1.7-12.5 2.5-1.7.3-2.4 1.4-2.5 3v4.4c0 .4.1.7.1.7s.1.3.1.7m5.4-6.1c2.4-.5 4.8-1 7.3-1.5 1.2-.2 1.9.4 1.9 1.7v2.6c0 4.2.6 3.5-3.6 4.6-1.8.5-3.5.9-5.3 1.4-1.3.4-2 .1-2-1.4v-5.1c0-1.2.5-2.1 1.7-2.3M71.9 22.5c2.6.3 3-.2 3-2.9v-.3c-.1-1.1.4-1.6 1.5-1.6 1.7-.1 3.5-.3 5.3-.5 3-.3 3.4-.1 4.4 2.8.2.4.7 1.1 1.1 1.1.7.1 1.5 0 2.4-.1.4 0 .6-.4.4-.8l-1.8-4.5c-.1-.4-.1-1 .1-1.3.7-1.5.8-2.5.7-5-.1-2.3-.9-3.3-3.3-3.2-4.5.3-9 .7-13.5 1.1-.4 0-1 .7-1 1.1-.1 4.4 0 8.9 0 13.3 0 .4.3.8.7.8m3.2-11.6c.1-.3.5-.8.9-.9 2.5-.3 4.9-.5 7.4-.7 1.2-.1 1.7.4 1.8 1.6.1 1.2 0 2.4-1.4 2.6-2.6.3-5.2.5-7.9.8-.4 0-.7-.3-.7-.7-.1-1-.2-1.9-.1-2.7M134 23c.7.1 1.4.3 2.1.4.4.1.7-.2.7-.6v-5.2c0-.4.3-.6.7-.6 3 .7 5.8 1.3 8.7 2 .3.1.5.7.6 1.2.1 1.4 0 2.9.1 4.3 0 .4.4 1 .8 1.2.6.3 1.3.3 2 .5.4.1.7-.2.7-.6V11.4c0-.3-.4-.8-.7-.9-.7-.2-1.3-.3-2.1-.4-.4-.1-.7.2-.7.6V15c0 .4-.3.7-.7.6-3-.6-5.7-1.2-8.5-1.8-.3-.1-.7-.8-.8-1.2-.1-1.1 0-2.3-.1-3.5 0-.4-.4-1-.7-1.1-.7-.2-1.4-.3-2.1-.3-.4 0-.7.2-.7.6v13.8c0 .4.3.8.7.9M115.5 20.9c2.1.1 4.2.3 6.3.6l8.1.9c.4 0 .8-.2.9-.6.4-2.1.1-2.3-2.2-2.7-3.3-.4-6.7-.8-10-1.2-.5-.1-1.2-.6-1.2-.9-.1-2.2-.1-4.4-.1-7 0-.4.3-.7.7-.7 4 .4 8 .7 12 1 .4 0 .7-.3.7-.7V7.8c0-.4-.3-.7-.7-.8-4.8-.4-9.3-.8-14-1.1-1.5-.1-2.5 1-2.5 2.5-.1 3.5 0 7 0 10.5-.1 1.4.6 2 2 2M151.2 52c.3.1.6 0 1 .1.3.1.6.2 1 .3.4.1.8-.1.9-.4.1-.3.2-.6.3-1 .1-.4.5-.5.9-.4.3.1.5.2.8.3.5.1 1 .2 1.5.1.2-.1.4-.8.3-1-.3-.4-.7-.7-1.2-.9-.3-.2-.7 0-.9-.1-.3-.1-.7-.3-1-.4-.4-.2-.8 0-.9.4-.1.3-.2.6-.4.9-.2.4-.5.8-.8.9-.3.2-.5 0-.5-.4 0-.3 0-.6.1-.7 1.1-.8 1-1.4.4-2.1-.3-.3-.8-.4-1.2-.2-.6.3-.9.8-.6 1.8.1.2-.4.5-.5.9-.1.4-.4.9-.3 1.1.1.3.6.5 1.1.8M171.2 56.7c-.4-.1-.8-.3-1.2-.4-.4-.1-1-.4-1.3-.3-.2.1-.4.3-.5.5-.2.3-.3.7-.2.8.1.1.1.4-.1.6-.1.2-.2.4-.3.5-.1.5-.2 1.1 0 1.5 0 .2.7.5.8.5.8-.6 1.1.1 1.6.4.4.2 1.2.2 1.3.1.5-1.1.9-2.2 1.1-3.4.1-.2-.5-.6-.9-.8 0-.1-.2 0-.3 0M112.4 53.8c.3.1 1-.1 1.1-.4.3-.8.5-1.7.8-2.7.1-.4-.1-.8-.4-1-.8-.3-1.6-.7-2.5-1-.3-.1-.8.2-1.1.4-.1.1-.3.4-.2.6.4.9 0 1.4-.7 1.9-.1.1-.2.6-.2.6 1 .5 2 1.1 3.2 1.6M56.1 143.1c-.3-.1-.6-.3-.9-.4-.3-.2-.7-.3-.8-.5-.1-.3.2-.6.2-.9.2-.5.4-1.1.4-1.6 0-.2-1-.6-1.2-.4-.4.4-.6 1-.8 1.5-.1.2-.1.6-.2.8l-.3.9c-.1.4.1.8.5.9.2.1.5.1.7.2.4.1.7.5.8.9 0 .1.1.3.1.5.1.4.4.5.7.2.2-.2.4-.3.5-.5.2-.2.3-.5.5-.8.3-.2.2-.6-.2-.8M120 60.3c.2-.3.1-.7.2-1.1.1-.5.6-1.2.4-1.4-.3-.4-.9-.5-1.5-.7-.3-.1-.6-.2-.9-.2-.4-.1-.9-.1-1.3-.2s-.7.2-.6.6c0 .1.1.3.1.4.1.4.2.7.2.7s.4 0 .8.1h.2c.4 0 .6.3.4.7-.1.2-.2.5-.3.8-.1.4 0 .9.2 1.3.2.2.9.4 1.1.3.5-.3.8-.9 1-1.3M129.5 57.6c-.4-.1-.8-.1-1.2-.1-.4 0-.7.3-.6.7v.3c.1.4.2.8.2.9.1.1.5.1.9.1h.4c.4 0 .7.2.6.4-.1.2-.2.3-.2.3-.3.5-.6 1-.7 1.6 0 .2 1 .7 1.2.6.4-.3.6-1 .9-1.5.1-.3.2-.6.3-1 .1-.4.5-1 .3-1.2-.2-.4-.8-.6-1.2-.8-.1-.2-.5-.3-.9-.3M43.5 140.5c.4.2.8.5 1.2.7.4.1.9.2 1.1 0 .3-.3.6-.9.5-1.2-.1-.3-.6-.7-1-.8-.5-.2-1.1-.2-1.6-.4-.9-.5-1.8-.2-1.7.8 0 .7.1 1.1-.6 1.6-.3.2-.2 1.2.1 1.5.2.3 1 .2 1.5.1.1 0 .3-.1.4-.3l.3-.3s-.2-.2-.3-.6c-.1-.4-.1-.7-.1-.8 0-.3.1-.4.2-.3M168.3 99.4v.2c-.1.5-.3 1-.4 1.5-.1.4-.2 1-.1 1.3.1.3.9.6 1 .5.4-.3.7-.8.9-1.2.1-.3.2-.6.2-1 .1-.4.3-.5.6-.2.8.9 1.4 1.4 2.2.3.2-.3 0-1.2-.2-1.3-1.1-.4-2.3-.7-3.5-1-.1 0-.4.6-.7.9M79.8 135.1c.1 0 .2.1.4.1s.4.2.3.5c0 .2-.1.3-.2.4-1 .8-.6 1.4.1 2.1.3.3.7.2.9-.1.2-.4.5-.8.6-1.1.2-.4.3-.9.4-1.4.1-.4.3-1 .2-1.3-.2-.3-.8-.4-1.2-.6-.4-.1-.8-.3-1.3-.3-.6-.1-1.1-.1-1.7 0-.1 0-.3.8-.2.9.6.3 1.1.6 1.7.8M140.4 93.7c.3-.3.5-.8.7-1.2.1-.2.1-.4.1-.5 0-.3.3-.4.6-.3l.6.3c.4.1 1 .3 1.3.1.3-.2.6-.8.5-1.2-.1-.4-.8-.9-1-.8-1.1.4-1.5-.2-1.9-.8-.2-.3-.7-.3-1 0-.2.3-.5.5-.5.8-.1.9-.1 1.7-.7 2.4-.2.2.2.9.5 1.3.1 0 .7 0 .8-.1M121.8 53.9c.3.2.7.2 1.1.3.5.1 1 .3 1.4.2.3-.1.6-1 .5-1.1-.3-.4-.9-.6-1.4-.8-.2-.1-.4-.1-.7-.1-.4-.1-.5-.3-.2-.6.8-.7 1.4-1.3.3-2.1-.3-.2-1.2-.1-1.3.1-.5 1.1-.8 2.3-1 3.5.1 0 .9.4 1.3.6M162.3 52.8c.4.2.9.3 1.3.3.5.1 1 .3 1.5.2.2-.1.5-.9.4-1.1-.3-.4-.9-.7-1.4-.9-.2-.1-.5-.1-1-.2-.4 0-.5-.3-.2-.5s.4-.3.4-.5l.3-.9c.1-.4-.1-.8-.5-.9-.3-.1-.6-.2-.8 0-.3.2-.4.9-.6 1.4-.1.4-.3.7-.4 1-.2.4-.5.9-.4 1.1.5.5 1 .7 1.4 1M140.7 60.2c.1.1.3.2.5.2.5 0 1.2 0 1.7-.2.1 0 .1-1.1-.1-1.2-1-.5-2-1-3.1-1.2-.3-.1-1.1.7-1.1 1 .2.9-.2 1.4-.7 2.1-.1.2.1.6.3 1 .2.4.5.7.6.7.2 0 .5-.3.7-.6.2-.3.4-.7.5-1 0-.2.1-.3.2-.5.1-.3.3-.4.5-.3M160.6 55.9c-.2-.1-.5.2-.8.2-.3 0-.6-.2-.9-.2-.6-.2-1.2-.6-1.6-.4-.7.4-.6.9-.3 1.3.2.3.7.8 1 .6.4-.2.9-.5 1.2-.1.3.3 0 .9-.3 1.2-.8.9-.8 1.4 0 1.8.3.1 1 .1 1.1-.1.5-1.1 1-2.2 1.2-3.3.2-.3-.3-.8-.6-1M161.3 97.5c.3.1.7.3 1 .4.3.2.6.4 1 .5.4.1.9.4 1.2.2.4-.2.7-.7.8-1.1.2-.5.3-1 .4-1.5.1-.5.2-1.1 0-1.5-.1-.2-.9-.4-1.2-.2-.3.2-.5.8-.6 1.3-.1.3-.1.5-.2.8-.1.4-.4.5-.6.2-.3-.3-.5-.6-.8-.9-.2-.3-.6-.3-.8.1-.2.3-.3.5-.4.7-.3.4-.2.8.2 1M149.5 55.4c-.2-.1-.3-.3-.5-.4-.5-.2-1.1-.3-1.6-.4-.4-.1-1-.1-1.4 0-.2.1-.5.8-.4.9.2.4.7.8 1 .8 1.5-.1 2.1.1.8 1.5-.2.2 0 1.1.3 1.4.2.2 1.2.1 1.3-.1.3-.8.5-1.6.8-2.7.2-.2 0-.8-.3-1M72.8 139.2c.1-.4.3-.5.6-.3.2.2.4.3.7.3.3 0 .6-.1.9-.2.4-.1.6-.5.5-.9-.1-.4-.2-.7-.3-.7-1 0-1.8-.8-2.6-.8-1.9-.2-.8 1.8-1.4 2.7-.2.3-.4.7-.3 1 .1.3.3.5.5.6.8.3 1.3-.4 1.4-1.7M84.7 140.7c-.2-.1-.5-.3-.7-.5-.3-.2-.4-.6-.1-.8.2-.2.4-.4.4-.5.1-.2 0-.5 0-.7-.1-.4-.4-.7-.8-.6-.4 0-.7.1-.8.3-.5.8-.8 1.8-1 2.7-.1.3.7 1.2.9 1.1.9-.2 1.3.2 1.7.7.2.3.7.7 1.1.6.5-.1.8-.5.7-1.2 0-.4-.9-.7-1.4-1.1M131.6 56.9l.9.3c.2 0 .4-.1.6 0 1.7.9 1.7.9 2.1-1 0-.1.1-.2.2-.3.9-1.6 1.1-1.8-.3-2.3-.4-.1-.9.1-.9.4 0 .6.2 1.3-.2 1.8-.3.3-.7.2-.8.2-.1-.1-.1-.1-.2-.1-.3-.1-.5-.2-.8-.4-.4-.2-.8 0-.9.4v.1c-.2.3 0 .7.3.9M109.4 63.6h.2c.4 0 .8-.2.9-.6 0-.2.1-.3.1-.4.1-.4.5-.5.8-.3l.6.3c.4.1 1 .2 1.3 0 .3-.2.5-1.1.3-1.2-.3-.2-.7-.4-1.1-.5-.4-.2-.7-.2-.8-.1-.1.1-.3-.1-.6-.3-.9-.7-1.7-.7-1.9.1-.2.7-.3 1.5-.5 2.4 0 .2.3.5.7.6M140.4 100.5s-.8.1-1.1.3c-.2.2-.2.7-.3 1-.1.3-.1.5-.2.8-.1.4.1 1 .5 1s.8-.5 1.1-.9c.3-.3.7-.2.9.1.1.2.2.3.4.4.3.2.8.4 1.2.3.3-.1.7-.7.7-1-.1-2.3-2.7-.5-3.2-2M165.4 93c.2.3.5.6.8.8.4.3 1 .3 1.5.4.4.1.8.3 1.2.1.2-.1.3-.2.5-.4.2-.3.2-.8 0-1.1-.2-.2-.3-.4-.5-.5-.9-.4-1.8-.6-2.7-.7-.2 0-.5.2-.7.4-.3.3-.4.7-.1 1M70.4 141.4c-.5-.3-1.1-.4-1.7-.4-.4-.1-1-.2-1.3 0-.3.2-.4.9-.3 1.3.1.3.7.5 1.1.7.5.2 1 .3 1.5.5.1.1.3.1.5.2s.6 0 .9-.3c.3-.3.5-.6.5-.9-.1-.4-.7-.9-1.2-1.1M59 140.6c-.4-.2-.8-.2-1.2-.3-.5-.1-1.1-.3-1.6-.2-.2 0-.4.9-.3 1.2.1.3.4.5.6.6.3.2.7.3.8.1.1-.1.4-.1.6.1.1.1.3.2.5.3.5.1 1 .2 1.4.1.3-.1.6-.9.5-1-.3-.3-.8-.6-1.3-.9M166.9 61c-.4-.2-.8-.3-1.2-.4-.5-.1-1-.4-1.4-.2-.3.1-.6.9-.5 1.2.1.2.3.4.6.6.3.2.7.3.8.2.1-.1.4-.1.7.1l.6.3c.5.1 1.1.3 1.5 0 .3-.1.4-1 .2-1.3-.3-.2-.9-.4-1.3-.5M69.9 137.4c.4-.2.6-.8.8-1.2.1-.3-.1-.9.1-1 .9-.7.8-1.3.4-1.9-.2-.3-.7-.5-1.1-.3-.1.1-.2.1-.4.1-.4.2-.7.6-.7 1-.1.5-.1 1-.2 1.5s-.3 1.1-.1 1.4c.2.3 1 .6 1.2.4M143.6 96c-.1.5-.3 1.1-.1 1.4.1.3.9.5 1.2.4.4-.2.6-.8.8-1.3.2-.4.3-.8.4-1.3.1-.5.3-1.1.1-1.4-.1-.3-.9-.5-1.2-.4-.2.1-.4.3-.5.5-.2.3-.3.7-.2.8.1.1.1.4-.2.7-.1.3-.2.4-.3.6M153.8 92.2c.2.4.8.6 1.2.8.4.2.9.4 1.3.5.4.1.8.4 1.1.2.3-.1.4-.4.7-.7.2-.3.2-.7-.2-1l-.9-.6c-.5-.2-1-.4-1.5-.5-.4-.1-1-.3-1.3-.1-.2.3-.5 1.1-.4 1.4" class="st0"/>
  <path d="M127.2 59.4c-.5.1-1 .1-1.5-.4-.3-.2-1-.1-1.5.1-.2.1-.4.9-.2 1.1.3.3.8.5 1.3.7.3.1.6 0 .9.1.5.2 1.2.7 1.5.6.7-.3.7-.8.6-1.4-.1-.4-.3-.7-.4-.8 0-.2-.3-.1-.7 0M167.7 54.5l.3-.9c.1-.4-.1-.8-.5-1-.3-.1-.6-.2-.8-.1-.4.2-.5.9-.7 1.4-.1.3-.1.5-.2.8-.1.4-.1.7-.2 1.1-.1.4.2.8.6.8.3.1.6.1.7 0 .2-.2.3-.6.4-1 .1-.4.1-.7 0-.8-.1 0 0-.1.1-.2.2.1.3 0 .3-.1M66.4 140.5c-.1-.2-.5-.3-.8-.4-.4-.1-.8.1-.9.5-.1.3-.2.5-.3.8-.1.3-.2.7-.3 1-.1.3-.1.7-.2 1-.1.4.2.8.5.8.3.1.5.1.6 0 .2-.2.4-.5.5-.9.1-.4.2-.7.1-.8-.1-.1-.1-.2.1-.3.1-.1.2-.1.2-.2.2-.5.7-1.2.5-1.5M132.1 54.4c.3.2 1.2-.2 1.8-.4.1 0 .2-.2.3-.3.2-.2-.1-.4-.4-.7-.2-.2-.1-.6.4-1.1.3-.3.3-1 .3-1.6 0-.2-.9-.5-1.1-.3-.4.3-.6.9-.8 1.4-.2.3-.1.9-.3 1-1 .8-.9 1.6-.2 2M47.5 135.8c.4-.2.9-.9.8-1.2-.4-.8 0-1 .4-1.5.3-.3.3-1 .1-1.4-.1-.2-.8-.5-1.1-.3-.2.1-.4.3-.5.5-.2.3-.3.7-.2.8.1.1 0 .4-.2.7-.1.2-.2.4-.3.5-.2.5-.3 1-.1 1.4 0 .4.8.7 1.1.5M62.8 139.1c-.4 0-1.2.6-1.2.8.1.9 0 1.6-.7 2.3-.1.1.3 1 .6 1.3.2.2 1.1 0 1.2-.3.3-.8.5-1.6.8-2.7.1-.4 0-.9-.2-1.1-.1-.1-.3-.3-.5-.3M155.3 99.4c-.1-.2-.9-.1-1.1.1-.3.3-.5.9-.4 1.3.1.3.7.6 1.1.7.4.1.8.1 1.1.1.4.1.7.2 1.1.3.4.1.7-.2.7-.6v-.6c0-.4.1-.7.1-.7s-.3 0-.7.1c-.6 0-1.3.1-1.9-.7M165.6 51.1c.5.3 1.2.6 1.8.6.3 0 .7-.1 1-.2.4-.1.6-.5.5-.9-.1-.4-.2-.7-.4-.8-.7-.3-1.5-.4-2.5-.7-.4-.1-.9 0-1.1.2-.1.1-.3.3-.3.5.1.5.6 1.1 1 1.3M161.9 59.5c-.4.2-.6.8-.8 1.2-.2.4-.3.9-.5 1.3-.1.4-.4.8-.2 1.2.1.2.3.3.7.6.3.2.8.1.9-.3.2-.4.3-.7.4-1 .2-.4.4-.8.5-1.3.1-.4.3-1 .1-1.3-.1-.3-.8-.5-1.1-.4M113.9 55.4c-.1.5-.2 1.1-.1 1.6 0 .2.9.5 1 .4.3-.4.5-1 .7-1.5.1-.3.2-.6.4-.9.1-.2.2-.4.4-.6.2-.3.2-.8-.1-1-.3-.3-.7-.5-1-.5-.3 0-.8.7-1 1.2-.2.3-.2.8-.3 1.3M126.1 49.5c.1 0 .2 0 .3-.1.2-.1.4 0 .5.2.1.1.1.2.3.2.4.2 1 .5 1.3.4.3-.1.7-.9.6-1.1-.2-.4-.8-.7-1.3-.9-.3-.2-.8-.4-1.2-.4-.5-.1-1.1-.1-1.6.1-.2.1-.4 1-.2 1.2.3.2.9.3 1.3.4M109.8 55.5c.2-.1.3-.2.4-.5.2-.3.1-.7-.2-1-.3-.2-.6-.5-.9-.6-.6-.2-1.2-.4-1.8-.5-.4-.1-1 0-1.3.2-.2.2-.3.8-.2 1.1.2.3.7.6 1.1.8.5.2 1.1.3 1.7.4.3.2.8.3 1.2.1M58.9 136.6c.5-1.2 1-2.5 1.4-3.7 0-.1-.3-.3-.6-.6-.3-.2-.8-.2-1.1.1-.3.3-.6.6-.5.7.4.9 0 1.4-.6 2-.2.2-.1 1 .1 1.2.3.3 1.2.4 1.3.3M49.6 139.1c0-.5-.1-.9-.2-1.3s-.1-.7-.1-.7-.3.1-.7.1c-.6.1-1.2.1-1.7-.6-.1-.2-.8-.1-1.1.1-.3.2-.5.9-.5.9 1.1.6 2.2 1.2 3.3 1.7.2.1 1-.1 1-.2M92.9 137.6c-.3-.2-.5-.3-.7-.3-.4.1-.9.6-1.2 1-.3.4-.4 1-.5 1.5-.1.4-.2 1-.1 1.3.2.3.9.7 1.2.5.4-.2.5-.8.7-1.2.2-.4.2-.8.4-1.2.1-.2.2-.4.4-.6.2-.3.1-.7-.2-1M162.5 95.2c.5-.2.9-.6 1.1-1 .3-.5.5-1.2.6-1.8.1-.4.1-1-.1-1.2-.2-.2-.5-.2-.7-.3-.4-.1-.8.2-.9.5 0 .2-.1.3-.1.4-.1.4-.1.8 0 .8.1.1 0 .2-.2.3-.1.1-.2.1-.3.2-.2.4-.5.9-.4 1.2.1.5.8 1 1 .9M161.1 100.5c.4 0 .8-.3.8-.7 0-.9-.4-1.4-1.7-1.3-.3 0-.6-.1-.8-.3-.6-.7-1.2-.7-1.8-.1-.5.5-.5 1-.1 1.4l.5.5s.2-.1.6-.1c.3-.1.6-.1.6 0 .5.8 1.2.7 1.9.6M144 98.8c-.4-.1-.9-.1-1.2.2-.2.1-.4.3-.3.4.2.6.7 1 1.1 1.4.5.3 1 .5 1.6.5.3 0 .6 0 .9-.1.4-.1.7-.5.6-.9 0-.3-.1-.6-.2-.6-.7-.4-1.5-.7-2.5-.9M157.4 58.1c0-.4-.4-.7-.8-.6-.6.1-1.1.3-1.6-.5-.1-.2-.8-.1-1.2.1-.2.1-.5.7-.4.9.2.4.6.7 1 .9.4.2.9-.1 1.2.1.6.5 1.1 1.2 1.7.3.3-.2.2-.7.1-1.2M143.1 58.1c.6.3 1.3.5 2 .6.5 0 1.2-.1 1.4-.4.2-.3-.1-1.2-.4-1.4-.8-.3-1.6-.6-2.6-.8-.4-.1-.9 0-1.1.3-.2.2-.3.4-.3.6.1.4.6.9 1 1.1M154.8 96.9c-.1.4-.2 1 0 1.3.2.3.9.6 1.2.4.3-.1.6-.7.8-1.1.2-.4.3-.9.4-1.3.1-.5.2-1.1 0-1.6 0-.2-.8-.5-.9-.4-.2.2-.4.4-.6.7-.2.3-.4.7-.2.8.1.1 0 .4-.2.7-.3.1-.4.3-.5.5M151.2 94.2h1.2s.1.3.3.6c.1.4.1.7-.1.8-.1.1-.2.1-.2.2-.1.5-.3 1.1-.2 1.6 0 .2.9.6 1 .5.4-.4.6-.9.8-1.4.1-.3 0-.7.1-.9.6-.6 1.1-1.4.2-1.9-.3-.2-.8 0-1.2.3-.4.2-.7.2-.6.2 0 0 .1-.3.1-.7.1-.6.3-1.2.4-1.8.1-.4.2-1 0-1.3-.1-.3-.9-.5-1.1-.4-.4.2-.6.8-.8 1.2-.1.3 0 .7 0 1-.1.4-.2.8-.3 1.3-.2.4 0 .7.4.7M125.6 58.1c.2.1.6-.1.8-.4.2-.3.4-.7.5-1 .2-.4.3-.9.5-1.3.1-.4.5-.9.3-1.1-.3-.3-.8-.6-1.2-.6-1.6.1-.7 1.8-1.2 2.6-.2.3-.5.7-.4 1 .1.2.1.4.2.5.1.2.2.2.5.3M155.8 60.1c-.5 0-.9-.2-1.4-.3-.4-.1-1-.3-1.2-.2-.3.2-.6.9-.4 1.2.2.4.7.6 1.2.8.3.1.9 0 1 .1.6.9 1.1.8 1.7.5.4-.2.6-.7.5-1.1-.2-.5-.5-1-1.4-1M150.8 98.7c.1-.2-.1-.5-.5-.7-.2-.2-.5-.3-.7-.2-1 .3-1.5-.2-2.3-.6-.2-.1-.4 0-.7.1-.4.1-.6.6-.5 1 .1.3.1.5.3.6.8.5 1.8.9 2.8 1 .2 0 .5-.2.8-.4.4-.3.8-.6.8-.8M138.4 96.2c.2.2 1.2 0 1.3-.2.2-.4.1-1.4-.1-1.5-.8-.3-1.6-.5-2.6-.7-.4-.1-.9 0-1.1.2-.2.2-.3.4-.3.5.2.5.9 1.3 1.1 1.2.7-.3 1.1-.1 1.7.5M114.5 58.2c-.2-.3-1-.3-1.4-.1-.3.1-.5.8-.4 1 .2.4.7.7 1.2.9.3.1.8-.2 1 0 .6.6 1.2 1.2 1.9.3.2-.3.1-.7.1-1.2-.1-.4-.1-.7-.1-.7s-.4.1-.7.2c-.6.2-1.1.3-1.6-.4M148.6 94.6c-.2-.1-.6-.1-.9 0-.4.1-.7.4-.7.8s0 .7.2.8c.8.3 1.6.5 2.6.8.4.1.9 0 1.2-.3.2-.2.3-.4.3-.5-.2-.5-1.1-1.2-1.2-1.1-.9.5-1-.3-1.5-.5M146.8 53c.2.4.4.7.5.7 1-.2 1.6.2 2.4.8.2.1.6-.1 1.2-.4.3-.2.4-.5.2-.8-.4-.4-.6-.8-.8-.7-1 .2-1.6-.2-2.3-.7-.2-.1-.5.1-.8.2-.5.2-.6.6-.4.9M160.5 54.9c.3.3.5.5.7.5.9-.2 1.5 0 2.1.7.1.1.9.1 1.1-.2.2-.3.3-1.2.2-1.3-1.2-.6-2.3-1.1-3.6-1.4-.1 0-.3.2-.6.6-.2.3-.2.8.1 1.1M49.9 141.1c-.2.4-.3 1-.2 1.3.2.3.9.6 1.2.5.4-.2.6-.8.8-1.2.2-.3.2-.8.3-1.1.1-.5.4-1.1.3-1.5-.1-.3-.9-.6-1.2-.5-.2.1-.4.3-.6.6-.2.4-.3.7-.2.8.1.1.1.4-.2.6 0 .1-.1.3-.2.5M125.2 52.2c.7-.2 1 0 1.5.5.2.3.8.3 1.2.2.2-.1.4-.2.5-.5.2-.3.2-.8-.1-1-.3-.3-.6-.6-.7-.5-.9.4-1.2-.2-1.8-.5-.4-.2-1-.1-1.5 0-.2 0-.3.8-.2 1 .2.4.8.9 1.1.8M95.7 138.7c-.3-.3-1-.6-1.4-.6-.2.1-.3.3-.5.5-.2.4-.2.7-.1.8.1.1.1.4-.1.6-.1.2-.2.3-.3.5-.1.4-.3 1-.1 1.4.1.3.9.6 1 .5.4-.4.7-.9.9-1.4.2-.4.3-.8.4-1.2.1-.3.4-1 .2-1.1M117.5 55.5c.7.3 1.5.5 2.3.7.4.1.8.3.9.5.1.2.3 0 .6-.3.2-.2.3-.5.2-.6-.2-.5-.7-1-1.2-1.3-.4-.3-.9-.5-1.4-.6-.3 0-.7 0-1.1.1-.4.1-.6.4-.6.8.1.3.2.6.3.7M151.6 59c-.2-.2-.5-.3-.7-.3-.4 0-.8.5-1.1.9-.3.6-.4 1.2-.5 1.8-.1.4-.1 1 .2 1.3.3.2 1.1.2 1.3 0 .4-.8.8-1.7 1.2-2.7 0-.3-.1-.8-.4-1M42.2 136.6c.3-.2.4-.6.1-.8-.7-.6-1-1-1.2-.9-.9.5-1.3-.1-1.9-.6-.3-.2-1-.1-1.3.2-.2.3-.2 1.2-.1 1.3 1 .5 2.1 1 3.3 1.3.3 0 .6-.2 1.1-.5M60.1 137c.1.2.3.4.5.5.3.2.7.3.8.2.1-.1.4 0 .7.2.2.1.4.3.6.3.5.2 1 .2 1.4.1.2-.1.5-.8.3-1.1-.2-.4-.8-.6-1.2-.8-.4-.2-.9-.3-1.3-.4-.5-.1-1-.3-1.5-.1-.1.1-.4.9-.3 1.1M60.6 138.2c-.6-.3-1.4-.4-2.1-.6-.4-.1-.9-.4-1-.6-.2-.3-.5-.2-.6.2-.2.3-.3.7-.3 1 0 .4.7 1.1.9 1.1.9-.2 1.4 0 2 .6.2.2 1.1-.1 1.4-.4.2-.2 0-1.2-.3-1.3M74.6 140.4c-.3-.3-.7-.6-.9-.7-.2-.1-.5.1-.7.5-.1.2-.2.5-.3.7-.2.7-.5 1.4-.6 2.1-.1.4.1 1.2.4 1.3.3.2 1.3-.2 1.3-.3.1-1.1.6-2.1 1.1-3 .1-.1 0-.4-.3-.6M135.3 51.6c-.1.1.1 1 .3 1.1.9.5 2 .9 3 1.1.2.1.5-.2.8-.4.3-.3.4-.7.1-1-.3-.3-.5-.6-.6-.6-.9.1-1.6-.3-2.3-.7-.3-.3-1 .1-1.3.5M167.8 95c-.3-.3-.6-.3-.8.1-.3.5-.6.8-.5 1 .3.8 0 1.1-.4 1.6-.1.2 0 .5.1 1 .1.4.5.6.9.5.3 0 .6-.1.6-.2.2-1 .5-2 1-2.9 0-.2-.4-.6-.9-1.1" class="st0"/>
  <path d="M49.3 137.1s.3 0 .7-.1c.6-.1 1.3-.1 1.7.7.1.1.9.1 1.1-.1.3-.3.5-.8.5-1.2 0-.3-.6-.6-.9-.7-.4-.1-.9-.1-1.3-.1s-.7-.1-1.1-.2c-.4-.1-.7.2-.7.6 0 .1 0 .2.1.3-.2.5-.1.8-.1.8M74.8 135.8c.2.4.8.6 1.2.8.4.2.9.2 1.3.4.1.1.3.2.5.3.3.2.7.1.9-.3.2-.3.4-.5.4-.7 0-.4-.6-.8-1-1-.5-.3-1.1-.3-1.6-.5-.4-.1-1-.4-1.3-.2-.2.2-.5 1-.4 1.2M36.9 130.8c-.4-.1-.7.2-.9.5-.1.3-.2.6-.2.8v.3c.1.2-.2.5-.5.7-.1.1-.1.1-.2.1-.3.2-.4.6-.1.9l.4.4c.3.3.7.2.9-.1.2-.3.4-.7.5-1 .2-.3.4-.7.5-1 .1-.5.3-1 .1-1.4 0-.1-.2-.2-.5-.2M40.9 138c-.3-.2-1.2-.3-1.3-.1-.5 1.1-.9 2.2-1.2 3.3-.1.2.3.5.7.9.3.3.6.2.8-.1.5-1 .9-1.9 1.3-2.8.1-.4 0-1.1-.3-1.2M81.2 142.4c-.4-.2-.8-.5-1.3-.6-.4-.1-1-.2-1.3 0-.3.2-.4 1.1-.2 1.2.3.2.7.4 1.1.5.4.1.7.2.8.1 0-.1.1-.1.2 0l.2.2c.5.2 1 .5 1.5.5.2 0 .6-.9.6-1-.5-.4-1.1-.6-1.6-.9M39.5 133.3c.4.2.7.2.8.1 0-.1.2 0 .3.3.1.2.2.4.4.4.4.2 1 .2 1.3 0 .3-.2.5-1.1.5-1.2-1-.6-2-1-3.1-1.5-.2-.1-.7 0-.9.2-.2.3-.5 1-.4 1.1.3.3.7.4 1.1.6M144.2 55.3c.4-.2.6-.8.9-1.2.2-.4.3-.8.5-1.3.1-.4.3-.9.2-1.2-.1-.2-.3-.4-.6-.6-.3-.2-.7-.1-.9.2-.2.3-.3.6-.5.9-.2.4-.3.8-.4 1.2-.1.5-.4 1-.3 1.4.1.4.8.7 1.1.6M154.5 54.2c-.2.4-.5 1.1-.3 1.3.3.3.9.6 1.3.5.3-.1.6-.6.8-1.1.2-.5.3-1 .4-1.5.1-.4.2-1 .1-1.3-.1-.2-.8-.5-1.1-.3-.2.1-.4.3-.5.5-.2.3-.3.7-.2.8.1.1.1.4-.2.6-.1.2-.2.4-.3.5M143 93.2c-.2-.3-.6-.4-1-.2-.3.2-.5.3-.7.6-.4.6-.6 1.3-.6 2 0 .3.1.7.3 1.1.1.4.4.8.7.8.2.1.6-.1.8-.5.1-.2.3-.5.2-.7-.2-.9.2-1.6.6-2.3.1-.1 0-.4-.3-.8M89 138.9c-.7-.4-1.6-.7-2.4-.8-.3-.1-.9.2-1.1.5-.2.3-.1 1.1.1 1.1.8.4 1.7.7 2.6 1.1.4.1.9.1 1.1-.1.2-.2.3-.3.3-.5 0-.5-.3-1.1-.6-1.3M136.1 58.3c.1.1.3.3.5.4.3.2.8.1 1-.2.3-.3.4-.6.4-.7-.3-.9.1-1.3.6-1.8.2-.2.1-.9-.1-1.2-.1-.3-.7-.5-1-.4-.3.1-.8.7-.8.9.3.9-.1 1.4-.7 2-.1.1 0 .7.1 1M43.5 142.7c0 .2-.1.4-.1.7 0 .4-.3 1-.5 1.3-.1.1-.2.2-.3.4-.2.3-.1.6.3.6h1c.4 0 .8-.3.9-.7.1-.4.1-.6.2-.9.1-.5.6-1.2.4-1.5-.3-.5-.7-.8-1.3-.7-.4.1-.6.3-.6.3.1-.2.1.1 0 .5M136.3 103.5h.2c.4 0 .9-.3 1.1-.7.3-.5.5-.9.6-1.3.1-.2 0-.5 0-.8-.1-.4-.4-.7-.8-.6-.4 0-.9.1-1 .3-.3.8-.4 1.6-.6 2.5-.1.3.2.6.5.6M124.3 63.5c.5.1 1 .1 1.5.1.4 0 .8.1.8.1.1.1.3 0 .6-.3.3-.2.3-.6 0-.9-.2-.2-.4-.3-.6-.4-.5-.3-1.1-.4-1.7-.5-.5-.1-1-.1-1.4.1-.2.1-.4.7-.3.9.2.4.7.8 1.1.9M52.6 144.6l-.6-.2c-.4-.1-.7-.1-.7-.1 0 .1-.2 0-.3-.2-.1-.1-.2-.3-.4-.3-.3-.2-.8-.3-1.1-.2-.3.2-.6.7-.5 1.1 0 .4.4.9.7.9 1 .1 1.9 0 2.9-.1.4 0 .7-.2.8-.4-.1-.2-.4-.4-.8-.5M148.1 100.6c-.3.1-.6.7-.7 1.1-.1.4-.1.8-.1 1.4 0 .4.2.5.5.3.6-.4 1.1-.7 1.6-1.2.2-.3.3-1.1.1-1.3-.3-.2-.9-.4-1.4-.3M120.7 63.6c.6-.4 1.1-.7 1.5-1.2.2-.3.4-1 .2-1.3-.2-.3-.9-.6-1.2-.5-.3.1-.6.6-.8 1.1-.1.4-.2.8-.2 1.6 0 .4.2.6.5.3M137.9 63c-.8-.3-1.7-.7-2.6-.9-.1 0-.3.2-.5.4-.2.3-.2.7 0 .9.2.1.3.3.5.3.8.1 1.7.1 2.5 0 .4 0 .7-.1.8-.2-.1-.1-.4-.3-.7-.5M170.7 52.7c.3 0 .6-.3 1-.6.3-.3.3-.6 0-.9-.5-.4-.8-.7-1-.7-.3.1-.6.4-.8.7-.3.3-.2.8.1 1.1.2.2.5.4.7.4M141.4 61.4c-.3 0-.5.2-.7.5-.3.3-.3.7-.1 1 .2.3.5.6.8.7.2.1.5-.3.9-.7.3-.3.3-.7-.1-.9-.3-.4-.6-.6-.8-.6M148.9 50.7c.2-.2.5-.4.5-.5 0-.4-.3-.8-.6-1.2-.2-.3-.6-.4-.9-.1-.4.4-.7.7-.6.9.1.3.3.6.6.8.2.3.7.4 1 .1M76.2 140.8c-.4.2-.6.9-.7 1.4 0 .1.1.3.2.4.2.2.6.4.9.3.2 0 .5-.1.6-.2.3-.4.5-1.1.3-1.5-.1-.3-1-.6-1.3-.4M160.3 94.5c.4-.5.7-.8.6-1.1-.1-.4-.7-1.1-1-1.1-.4 0-1.2.6-1.2 1s.4.7.7 1.2c.3.3.7.3.9 0M63.1 132.4c.4-.4.7-.6.6-.8-.1-.3-.3-.6-.6-.9-.3-.3-.7-.3-1-.1-.3.2-.5.5-.5.7 0 .3.3.6.6 1 .2.3.6.4.9.1M145 59.4c-.3-.3-.7-.2-.9.1-.3.4-.5.7-.5.9.1.3.3.5.6.7.3.3.8.2 1.1-.1.2-.2.5-.5.5-.7-.1-.2-.4-.5-.8-.9M146.4 92.9c.4-.5.7-.8.7-1.1 0-.4-.7-1-1.2-1-.4 0-1 .7-1 1.1 0 .3.3.6.6 1 .2.3.6.3.9 0M115.7 61.4c-.3-.3-.7-.3-.9.1-.3.4-.6.8-.5 1 .1.3.3.5.6.7.3.2.8.2 1.1-.1.2-.3.5-.5.5-.8 0-.2-.3-.5-.8-.9M80.2 138.8c-.5.1-1.1.7-1.1 1.1 0 .4.7 1.1 1.1 1.1.3 0 .6-.3.9-.7.3-.3.3-.7 0-.9-.4-.4-.7-.6-.9-.6M150.9 101.1c-.4.5-.7.8-.6 1 .1.3.3.6.6.9.3.3.7.3 1 .1.2-.2.4-.4.4-.6 0-.4-.3-.7-.6-1.3-.2-.3-.5-.3-.8-.1M140.2 99.3c.2.3.5.5.8.6.2 0 .6-.3.9-.6.3-.3.3-.7.1-1-.4-.4-.6-.7-.8-.7-.3.1-.6.4-.9.6-.3.4-.4.8-.1 1.1M95.9 141.6c-.4.4-.8.7-.7.9.1.3.4.6.7.8.3.3.8.2 1.1 0 .3-.2.5-.5.5-.7 0-.3-.3-.6-.6-1-.3-.3-.7-.3-1 0M170.4 97.9c.3 0 .6-.3 1-.6.3-.3.3-.7 0-.9-.5-.4-.8-.7-1.2-.7-.3 0-1 .8-1 1.3 0 .3.7.9 1.2.9M129.3 56.6c.4 0 1.1-.7 1.1-1.1 0-.3-.3-.6-.7-1-.3-.3-.7-.3-.9 0-.3.4-.6.7-.6 1 0 .5.7 1.1 1.1 1.1M110 58.1c.2.5.7 1 1.1 1.1.2 0 .5-.2.9-.6.3-.3.3-.7 0-.9-.4-.3-.7-.6-1.1-.6-.3.1-1 .9-.9 1M140.1 57.3c.3.3.7.3.9-.1.3-.5.6-.8.6-1.1-.1-.3-.8-.8-1.3-.9-.3 0-1 .7-.9 1 .1.4.4.7.7 1.1M106.9 63.6c.4 0 1.1-.8 1-1.1 0-.3-.4-.7-.8-1.2-.3-.3-.6-.2-.9.1-.3.5-.6.8-.5 1.1.1.5.7 1.1 1.2 1.1M159.1 61.1c-.6.1-1.2.5-1.8.7 0 0 0 .1-.1.1l.5.5c.4.3.7.6 1.1.8.1 0 .8-.6.8-1 .1-.4-.4-1.2-.5-1.1M145.5 50.3c.3 0 .6-.2 1-.6.3-.2.3-.6 0-.9-.4-.4-.8-.7-1.1-.7-.2 0-.5.2-.7.5-.3.3-.3.8 0 1.1.3.3.6.6.8.6M135.2 60.4c.1.5.6 1.1 1 1.2.3 0 .6-.3 1-.7.3-.3.3-.6 0-.9-.4-.3-.8-.6-1.1-.6-.2 0-.9.8-.9 1M107.6 52.3c.3 0 .6-.3.9-.7.2-.3.2-.7-.1-1-.4-.3-.7-.6-.8-.5-.3.1-.6.4-.9.7-.3.3-.3.7 0 1 .4.3.7.5.9.5M160.1 51.6c.3-.3.3-1 .2-1.4-.1-.2-.2-.3-.4-.5-.3-.2-.7-.2-1 .1-.2.2-.4.3-.4.6-.1.4.1 1.1.4 1.4.2.1 1 0 1.2-.2M137.3 92.7c.4.1.8-.2.8-.5 0-.4.1-.7.1-1 0-.1-.1-.2-.2-.4-.2-.2-.2-.3-.2-.3s-.2.1-.5.1c-.2.1-.4.1-.4.2-.2.5-.6 1.2-.4 1.5.1.2.4.3.8.4M129.5 53.5c.3.3.8.3 1 0 .3-.3.5-.5.6-.8.1-.2-.2-.5-.6-.9-.2-.3-.7-.3-.9 0-.4.4-.7.7-.6 1 0 .2.2.5.5.7M88.3 141.8c-.3-.3-.8-.3-1.1 0-.2.2-.4.4-.4.6 0 .3.2.6.5 1.1.2.3.6.4.8.1.4-.5.7-.8.7-1.1 0-.2-.2-.4-.5-.7M105.7 49.6c-.2-.3-.7-.5-1.1-.3-.9.5-1 .9-.4 1.8.2.3.7.4 1 .2 1-.4 1.1-.8.5-1.7M141.8 54.3c.3-.2.5-.4.6-.7.1-.3-.2-.6-.5-1.1-.2-.3-.6-.4-.9-.1-.4.4-.8.7-.8 1 0 .3.2.5.5.8.3.3.7.3 1.1.1M159.1 97.1c.3 0 .6-.3 1.1-.7.3-.3.3-.6-.1-.8-.5-.3-.8-.6-1.1-.6-.3 0-1 .7-1 1 .1.5.7 1.1 1.1 1.1M123.1 57.3c.3 0 .6-.3 1.1-.7.3-.3.3-.6 0-.8-.5-.3-.9-.6-1.2-.6-.4 0-1 .7-1 1 .1.5.7 1.1 1.1 1.1M166 100.1c-.3 0-1 .5-.9.7.1.4.3.7.5 1.1.2.4.5.6.6.6.1 0 .4-.3.6-.6.2-.4.4-.8.4-1.1 0-.2-.8-.7-1.2-.7M159.9 101.3c-.3.1-.5.3-.7.6-.2.3-.2.8 0 1.1.2.2.5.5.7.5.3 0 .6-.4 1-.7.3-.3.3-.7-.1-.9-.4-.5-.7-.7-.9-.6M135.7 90.7c-.4-.4-.7-.7-1.1-.8-.2 0-.4.2-.6.4-.3.3-.3.8 0 1.1.2.3.5.5.8.7.2.1.5-.2.9-.5.3-.2.3-.6 0-.9M162.8 58.9c.4-.1.7-.4 1.2-.7.3-.3.3-.6 0-.9-.4-.3-.7-.6-.9-.5-.3.1-.6.4-.8.6-.3.3-.3.8 0 1.1.2.2.4.5.5.4M50.7 134.3c.2.1.5-.2 1-.5.3-.2.3-.6 0-.9-.4-.4-.7-.7-1-.7-.2 0-.4.2-.6.4-.3.3-.3.7 0 1 .1.4.4.6.6.7M150.7 56.9c.1.3.3.6.6.9.3.3.7.3 1 0 .3-.3.5-.5.5-.8 0-.3-.3-.6-.7-.9-.3-.3-.7-.3-1 0-.2.3-.5.6-.4.8M43.9 137.9c.2.1.5-.1.8-.3.3-.2.5-.5.4-.7-.1-.2-.4-.5-.8-.8-.3-.2-.6-.3-.8-.3-.2 0-.4.2-.6.4-.2.3-.2.8.1 1.1.3.2.6.5.9.6M163.4 99.7c-.3 0-.7 0-.9.2-.1 0-.3.2-.4.3-.2.2-.2.5 0 .7.1.1.2.2.4.2.3.1.7 0 1 0 .4 0 .7-.3.7-.7-.1-.5-.4-.8-.8-.7M123.4 58.9c0-.3-.3-.5-.6-.8-.3-.3-.7-.3-.9 0-.1.1-.2.3-.3.4-.2.3-.2.8.1 1 .3.2.5.4.8.4.3.1.9-.6.9-1M148.3 93.7c.3.3.7.2.9-.1.3-.5.5-.8.5-1.1-.1-.4-.8-.8-1.3-.8-.3 0-.9.8-.8 1.1 0 .2.3.5.7.9M152.4 55.3c.5-.1 1.1-.6 1.2-1 0-.3-.3-.6-.6-1-.3-.3-.7-.3-.9 0-.4.4-.7.8-.7 1.1 0 .3.7 1 1 .9M119.2 53c.4-.5.7-.8.7-1.1 0-.4-.7-.9-1.1-1-.3 0-1 .6-1 1 0 .3.2.6.6 1.1.1.3.5.3.8 0M134.8 49.4c.3-.4.6-.8.6-1.1 0-.2-.2-.4-.5-.6-.3-.2-.8-.2-1.1.1-.2.2-.4.5-.5.7 0 .2.2.5.6.9.3.4.6.3.9 0M116.1 52.2c.4-.1 1-.6 1.1-1.1.1-.2-.2-.5-.6-.9-.3-.3-.7-.3-.9 0-.3.4-.6.7-.6 1 0 .3.7 1 1 1M169.9 61.7c-.2 0-.5.3-.7.5-.3.3-.3.8 0 1 .2.2.4.3.7.4.3 0 .6-.2 1-.4s.4-.5.1-.8c-.5-.4-.8-.7-1.1-.7M54.5 138.5c.3.3.7.2.9-.1.3-.4.5-.7.5-.9-.1-.2-.3-.5-.6-.7-.3-.2-.8-.2-1 .1-.2.3-.4.5-.4.8 0 .2.3.5.6.8M133.5 58.6c-.3.1-.5.3-.7.6-.2.3-.2.8.1 1.1.2.2.5.4.7.5.2 0 .5-.2.8-.6.3-.3.2-.7 0-1-.4-.4-.7-.6-.9-.6M158.8 54.7c.3 0 .5-.3.9-.6.3-.3.3-.7 0-1-.4-.4-.7-.7-.8-.6-.5.2-.9.7-1.1 1.2-.1.2.6 1 1 1M139.2 98.1c-.1-.3-.3-.6-.7-1-.3-.3-.7-.3-.9 0-.3.4-.5.6-.5.9.1.4.7 1 1.1 1.1.3 0 1.1-.7 1-1M112.8 55c-.4-.4-.7-.6-.9-.6-.5.1-1 .7-1.1 1.1-.1.3.7 1 1 1 .3 0 .6-.3 1-.7.3-.2.3-.5 0-.8M132.2 61.5c-.3.4-.6.8-.5 1 .1.3.3.5.6.7.3.2.8.2 1-.1.2-.3.4-.5.4-.7 0-.3-.3-.6-.7-1-.2-.3-.5-.2-.8.1M164.1 90.2c.3.1.6-.2 1-.6.3-.3.3-.6 0-.9-.4-.4-.6-.6-.9-.6-.3 0-.5.2-.8.4-.3.3-.4.7-.1 1 .3.4.5.7.8.7M136.9 50.3c.3 0 .6-.3 1-.7.3-.3.3-.7 0-.9-.4-.4-.7-.6-.9-.6-.5.1-1 .7-1.1 1.1 0 .4.7 1.2 1 1.1M147 60.4c-.3.4-.5.8-.5 1.1 0 .3.7.9 1.1.8.4 0 1.1-.7 1-1 0-.3-.3-.6-.7-1-.3-.3-.7-.2-.9.1M61.8 134.7h.3c.4 0 .6-.4.5-.8-.1-.2-.1-.4-.2-.5-.1-.4-.5-.7-.8-.6-.3 0-.6.4-.6.8v.6c.1.3.4.6.8.5M152.9 89.4c.3-.1.6-.3 1-.7.3-.3.2-.7-.1-.9-.4-.3-.7-.5-.9-.5-.5.1-1 .7-1 1.2-.1.3.7 1 1 .9M84.3 136.7c.2.1 1-.4 1-.6-.1-.6-.4-1.1-.6-1.7v-.1l-.6.4c-.3.2-.5.4-.7.8-.1.2.5.9.9 1.2M76.5 143.5c-.3-.3-.9-.5-1.2-.3-.6.3-.6.9-.5 1.6.1.4.4.6.8.4.4-.2.7-.4 1.1-.5.4-.2.4-.6.1-.8-.1-.3-.2-.3-.3-.4M47.1 142.7c-.4.1-1 .7-1.1 1.1 0 .3.1.6.2.9.2.4.5.5.7.4.2-.2.7-.5.9-.8.2-.2.4-.5.3-.6 0-.4-.7-1-1-1M74.5 132.8c.2-.2.4-.3.4-.5 0-.4-.3-.7-.6-1.2-.2-.3-.6-.4-.8-.1-.3.4-.6.7-.6.9.1.3.3.5.5.8.4.3.8.4 1.1.1M68.4 140c.3.3.7.3 1 0 .4-.4.7-.7.6-.9-.1-.4-.8-1-1.2-1-.3 0-.9.7-1 1.1 0 .2.3.5.6.8M78.1 138.4l-.3-.3c-.3-.3-.7-.2-.9.1-.3.4-.5.7-.5 1 0 .3.8 1 1.1.9.3-.1.5-.3.7-.6.2-.4.2-.8-.1-1.1M152.1 98.6c-.4.1-1 .6-1.1 1.1 0 .2.3.5.7.8.3.3.7.2.9-.1.3-.4.5-.7.5-1 .1-.2-.7-.9-1-.8M169.9 55.3c.3 0 .5-.2.9-.5.3-.3.3-.7 0-.9-.4-.3-.6-.6-.8-.5-.4.1-.9.7-1 1.1-.1.1.6.8.9.8M166.9 90.9c.4 0 1-.6 1.1-1.1 0-.2-.2-.4-.5-.8-.3-.3-.7-.3-1 0-.4.3-.7.6-.6.8 0 .4.6 1 1 1.1M73.1 135.8c.2.1.5-.2.8-.5.3-.2.4-.6.1-.9-.3-.3-.6-.6-.8-.6-.2 0-.4.2-.6.3-.3.3-.4.7-.1 1.1.2.2.4.5.6.6M59 144c-.3-.3-.7-.3-1-.1-.1.1-.3.3-.5.4-.3.3-.4.6-.3.9.1.2.5.3.9.1.2-.1.5-.3.7-.4.4-.2.5-.6.2-.9M48.5 140.1c-.3-.3-.6-.3-.9 0-.3.3-.6.6-.6.9 0 .2.2.4.4.7.3.3.8.3 1.1.1.2-.2.5-.4.5-.7.1-.3-.2-.6-.5-1M164.6 58.6c0 .2.3.5.6.9.3.3.6.3.9-.1.3-.4.5-.7.5-1 0-.3-.7-.9-.9-.9-.4.2-.9.7-1.1 1.1M90.5 142.4c-.2 0-.4.2-.6.4-.3.3-.3.8 0 1.1.2.2.4.4.6.5.2 0 .5-.2.9-.5.3-.3.3-.7 0-.9-.3-.4-.6-.6-.9-.6M66.6 139.3c.3-.3.6-.6.5-.7-.2-.5-.6-.9-1-1.2-.1-.1-1 .6-.9.8.1.3.3.6.6 1.1.1.2.5.2.8 0M67.9 144.1c-.4-.3-.7-.5-1-.5-.2 0-.4.1-.6.3-.2.3-.2.7 0 .9.2.2.3.3.5.3.3 0 .6-.1 1-.4.4-.1.4-.4.1-.6M153.2 62.6c-.3-.2-.6-.3-1-.4-.1 0-.3.2-.5.5s-.1.6.3.8c.3.1.5.2.7.2.4.1.8 0 .9-.2.2-.3 0-.7-.4-.9M154.8 102.4c-.3-.2-.7-.4-1-.4-.2 0-.4.4-.6.8-.2.3-.1.6.4.6h1c.4 0 .8-.1.8-.3 0-.2-.2-.5-.6-.7M162.7 102c-.3 0-.6.2-.9.4-.3.3-.5.6-.4.7.1.2.5.3.8.3h1.2c.4 0 .5-.2.3-.6-.4-.4-.7-.8-1-.8M144 62.2c-.2 0-.5.2-.7.4-.3.3-.5.6-.5.7.1.1.4.3.8.3h.7c.4 0 .8-.1.8-.2s-.2-.4-.4-.7c-.2-.3-.4-.5-.7-.5M118.3 62.2c-.3 0-.6.1-.9.3-.4.2-.6.5-.5.7.1.2.4.4.8.4h.6c.4 0 .8-.1.8-.2.1-.1-.1-.4-.3-.8-.1-.2-.3-.4-.5-.4M145 102c-.2 0-.5.4-.9.9-.2.3-.1.5.3.5h1c.4 0 .8-.1.8-.2.1-.1-.1-.4-.4-.7-.2-.3-.5-.5-.8-.5M171.7 102.5c-.4-.1-.7-.3-1.1-.4-.1 0-.2.2-.3.4-.2.3.1.5.4.7.2.1.5.2.7.2.4.1.8 0 .9-.2 0-.2-.2-.5-.6-.7M84.1 143.5c-.1.1-.2.2-.2.3-.3.3-.2.6.1.8.3.1.6.2.8.1.8-.4.5-.8.2-1.2-.2-.3-.6-.3-.9 0M31.1 60.2c.8-.1 1.5-.4 2.3-.8.4-.2.9-.1 1.3.1 1.1.8 2.2 1.8 3.8.6 1.7-1.3.4-2.5-.3-3.9-.2-.4.1-.8.4-1 15.1-7.1 30.4-12.3 47.5-7.1.4.1.5-.1.4-.4-.3-.5-.6-1-1-1.2-1.5-1-3.1-1.9-4.7-2.7-1-.5-1.1-.9-.6-1.8 1.1-2 2.7-3.2 5-3.2h1.5c.4 0 .7-.1.8-.3 0-.2-.3-.4-.6-.5-.6-.2-1.1-.5-1.7-.5-3.4-.3-6.2.7-8.1 3.8-.4.6-.9 1.6-1.4 1.6-2.4.1-4.6.1-6.8.1-.4 0-.6-.3-.6-.7 1-4 3.7-6.3 6.6-8.4.3-.2.3-.5-.1-.6-.6-.1-1.1-.1-1.5.1-4.6 1-7.3 4.1-8.8 8.4-.2.5-.5 1.3-.9 1.4-2.3.7-4.7 1.2-7.1 1.8-.4.1-.7-.1-.7-.5 0-3.7 1.6-6.5 4.4-8.6.3-.2.3-.5-.1-.5-1-.1-1.9 0-2.6.3-2.4 1.1-4.1 3-4.6 5.7-.2 1.2-.5 2.5-.5 3.8-.1 1.1-.5 1.4-1.4 1.7-2.1.7-4.2 1.4-6.2 2.2-1.2.5-1.6.1-1.7-1-.2-2.2.3-4.3 1.8-6 .8-.9 1.6-1.8 2.7-3 .3-.3.1-.5-.2-.5-2.8 0-4.5 1.5-6 3.3-1.9 2.6-2 5.5-1.6 8.6.1.4-.1 1.2-.4 1.4-.9.6-1.9 1.3-2.9 1.4-.5.1-1.2-1.1-1.9-1.4-.8-.3-1.8-.5-2.5-.2-.6.3-1.4 1.5-1.2 2 .6 1.6.1 2.5-1.3 3.3-1.2.7-1 1.9-.4 2.8.2.1 1.2.5 1.9.4M147.9 137c-1 .6-2 1.3-2.6 2.2-1 1.7-2.4 2.1-4.2 1.7l-1.8-.3c-1-.1-1.2-.7-.9-1.5.8-2.1 1.8-4.1 3.7-5.3.2-.1.4-.3.6-.5.3-.3.2-.6-.1-.7-1.8-.5-3.9.3-5.2 2.1-1 1.4-1.6 3.1-2.5 4.6-.3.6-.7 1.3-1.2 1.5-1.1.2-2.3.3-3.4.4-.4 0-.8-.3-.9-.7-.5-3.7 1.1-6.3 3.4-8.7.3-.3.2-.5-.2-.4-.7.1-1.4.3-2 .6-2.7 1.4-4.6 3.7-4.5 6.7.1 3.2-1.5 4.1-4.1 4.4-.1 0-.2.1-.3.1-1.5.4-2 .1-2.2-1.5-.2-2.3 0-4.4 1.7-6.1.3-.3.2-.6-.2-.6-1.6 0-3.1 1-3.8 2.5-.9 1.9-1.3 3.8-.7 5.9.2.6-.1 1.6-.5 1.9-1.2.9-2.5 1.7-4 1.9-.7.1-1.6-1.3-2.5-2l-.1-.1c-1.1-.8-2.1-.5-2.9.4-.9.9-.7 1.9.1 2.8.1.2.3.3.5.4.2.2.2.6 0 .9-2.1 2.5-2.2 3-1.2 4.2 1.1 1.2 2 1.2 4.2-.1.3-.2.9-.2 1.1.1 1 1.1 1.8 2.6 3.7 1.3.4-.2.7-.9.6-1.3-.2-.9-.5-1.9-1-3-.1-.4.1-.8.4-1 1.9-1 4-2.2 6.1-3.1 4.8-1.9 10-2.2 15.1-2.6 5.1-.4 9.8.6 13.7 4.1.1.1.3.1.5.2.3.1.5-.1.4-.5-.2-.8-.3-1.4-.7-1.9-.7-1-1.6-1.8-2.4-2.7-1.3-1.5-1.4-2.6 0-3.9.8-.7 1.9-1.2 3-1.8.4-.2.4-.6.1-.8-.7-.2-1.7-.4-2.8.2M139.8 160.9c-.9.2-1.8.4-2.6.8-1.1.6-2 1.6-3 2.4-1.1.9-3.8 1.1-4.6.1-1-1.3-.2-2.5.7-3.4.7-.8 1.7-1.4 2.6-2.1.3-.2.6-.4 1.1-.6.4-.2.3-.4 0-.5-.3-.1-.5-.2-.7-.2-2.7 0-5.8 2.1-6.5 5-.5 1.8-1.4 2.5-3.2 2.7-1.2.1-1.6-.2-1.9-1.2-.5-1.6 0-2.9.9-4.2.4-.5.7-1.1 1.1-1.8.2-.3.1-.6-.3-.5-3.4.9-5.3 4.4-4.7 7.9.2 1.3-1 2.7-2.7 2.8-1.3.1-1.7-1.2-1.8-2.2 0-1 .1-2.1.3-3.1 0-.4-.1-.7-.3-.6-.1 0-.3.1-.4.2-2 1.4-2.6 3.8-1.3 6.3.6 1.2.5 1.9-.6 2.7-1 .8-1.8 1.3-2.9 0-.5-.5-1.9-.5-2.6-.2-1.1.6-.5 1.7 0 2.4.2.4.6.8.9 1.1.3.3.2.7-.1 1-.2.2-.4.3-.5.5-.2.8-.7 1.9-.3 2.3.4.5 1.5.5 2.4.5.4 0 .8-.5 1.1-.9.8-1 1.7-1.4 2.7-.2.2.2.5.5.7.5.7 0 1.7.2 2.1-.2.3-.4.2-1.5-.1-2-.3-.5-.8-.9-1.4-1.4-.3-.3-.3-.7 0-1 3.1-2.9 6.6-4.7 10.4-5.7 5.2-1.3 10.3-1.5 14.7 2.4h.3c.2 0 .2-.4.1-.8-.1-.3-.2-.6-.4-.8-.4-.5-.9-1-1.4-1.4-1.3-.9-1.3-1.9-.3-3 .9-1 1.8-1.9 2.8-2.9.3-.3.5-.6.5-.8 0 0-.3 0-.8.1M76.3 177c.3.1.6.2 1 .3.4.1.7-.1.7-.5 0-.2.1-.4.1-.6 0-.4-.2-.7-.6-.8-.2 0-.5-.1-.7-.1-.4 0-.8-.2-.8-.4-.1-.2.1-.4.4-.5.2-.1.4-.2.4-.4.2-.4.3-1.2.2-1.3-.4-.3-1.4-.4-1.4-.3-.6 1.2-1 2.4-1.4 3.7 0 .1.8.4 1.2.6.2.3.5.2.9.3M84.5 179.6c.4.3.9.5 1.4.7.3.1.6.1.8.2l.9.3c.4.1.8-.1.9-.5.1-.3.2-.5.3-.9.1-.4.5-.9.7-1.2.5-.7.4-1.3-.6-1.5-.3-.1-.6 0-.9.2-.4.1-.7.2-.6.2 0 0 0 .3.1.7.2.5.4 1 0 1.3-.3.2-.8.1-.9 0-.1-.1-.1-.2-.2-.2-.5-.2-1-.4-1.4-.3-.3 0-.6.9-.5 1M92.6 181.2c-.9.6-.5 1.1-.2 1.6.2.3.3.6.3.6s.3-.1.7-.2c.6-.1 1.1 0 1.7.6.2.2.9.2 1.1.1.3-.3.5-.9.5-1.3-.1-.8-3.4-1.8-4.1-1.4" class="st0"/>
  <path d="M90.6 182.8c-.5-.1-1-.2-1.5 0-.2.1-.5.9-.4 1 .3.4.9.9 1.2.8.7-.3 1 0 1.3.4.2.3.6.5 1 .4 1-.4 1.2-.7.8-1.5l-.3-.6s-.3-.1-.7-.2c-.4 0-.9-.2-1.4-.3M78.9 175.4c.5-.1 1-.2 1.4.5.1.1.9.1 1.3-.1.3-.2.5-.9.4-1.1-.3-.4-.8-.6-1.2-.9-.3-.1-.8.1-.9 0-.6-.8-1.4-1-1.9-.3-.2.3 0 .8.1 1.2 0 .5.4.8.8.7M91.9 186.3l-.4-.6s-.3.1-.7.1c-.4 0-.7.1-.8-.1-.6-.7-1.1-.6-1.6-.4-.3.1-.7.6-.7 1 .1 1.7 2.7.4 3.1 1.7 0 .1.7.1.9 0 .3-.2.7-.6.7-.9-.1-.2-.3-.5-.5-.8M87.2 185.3c-.2-.2-.5-.3-.7-.4-.3-.2-.7-.1-.8.3-.1.4-.2.7-.3 1-.1.2-.1.5-.2.5-1.2.7-.9 1.3-.4 2 .2.3.7.3 1 .1.4-.3.8-.7.7-.8-.4-1.1.2-1.5.8-1.9.3-.2.2-.6-.1-.8M89.3 175.9c.3.3.6.4.7.2.1-.1.4-.1.7.1.2.1.4.2.5.3.5.1 1 .2 1.4.1.2-.1.6-.7.5-.9-.3-.4-.7-.7-1.2-1-.5-.3-1-.4-1.5-.6-.5-.1-1.1-.2-1.5-.1-.2.1-.5.8-.3 1 .3.5.5.7.7.9M75 178.7c-.2-.5-.7-.9-1.2-1.2-.4-.3-.9-.3-1.4-.5-.4-.1-1-.4-1.2-.2-.3.3-.6 1-.5 1.4.1.3.8.4 1.2.6.4.2.8.3 1.2.4.1.1.3.2.5.3.2.2.7.1 1-.2.2-.2.5-.4.4-.6M94.6 184.6c-.2.1-.4.3-.6.5-.2.3-.4.6-.2.7.1.1.1.4-.1.7l-.3.6c-.1.4-.2 1-.1 1.3.2.3.9.6 1.2.5.4-.2.5-.8.7-1.3.2-.3.3-.7.4-1.1.1-.5.4-1.1.3-1.5-.2-.2-1-.6-1.3-.4M79.1 177.4c.1 1.1-.3 1.9-.8 2.8-.1.1.2.4.5.8.3.3.7.4 1 .1.3-.3.6-.5.6-.7 0-.9.3-1.5.8-2.2.2-.2-.3-1.2-.6-1.4-.5-.2-1.5.4-1.5.6M81.4 182.7c-.7-.3-1.5-.4-2.5-.6-.4-.1-.9 0-1.1.2-.1.2-.2.3-.2.5 0 .4.5.9.9 1.1.6.3 1.3.5 1.9.6.3 0 .6 0 .9-.1.4-.1.6-.5.5-.9-.1-.4-.2-.7-.4-.8M85.4 182.2c-.2-.5-.7-1-1.2-1.3-.4-.3-1-.3-1.5-.4H82c-.4 0-.7.4-.6.8 0 .4.1.7.2.8.7.4 1.5.6 2.4.9.4.1.9 0 1.2-.3.1-.2.3-.4.2-.5M91.7 177.6c-.3-.1-1 .2-1.2.5-.4.8-.9 1.8-1 2.7 0 .3.2.6.6 1 .2.3.7.4 1 .1.2-.2.4-.3.5-.5.4-.9.7-1.8.8-2.7 0-.4-.4-1-.7-1.1M86.3 177.4c.1 0 .3-.1.4-.1.4-.1.7-.2.7-.2s-.1-.3-.1-.7c-.1-.4-.1-.8.1-.9 1-.9.8-1.5.3-2.2-.2-.3-.6-.3-.8.1-.3.5-.5.9-.8 1.4-.1.2-.2.4-.2.7-.1.4-.1.9-.2 1.3s.2.7.6.6M70.2 173.6c-.3-.3-.8-.3-1.1 0-.3.2-.5.4-.5.7-.1.3.2.6.5 1 .3.3.7.3.9.1.4-.4.8-.7.7-1 0-.3-.2-.5-.5-.8M93.9 180.4c.3 0 .6-.3 1.1-.6.3-.2.3-.6 0-.9-.4-.4-.6-.6-.9-.6-.4.1-1 .6-1.1 1-.1.4.6 1.1.9 1.1M93.4 189.6c-.3 0-.6.2-.8.4-.3.2-.4.7-.1 1 .2.3.4.5.7.6.3.1.6-.2 1-.5.3-.2.4-.6.1-.9-.4-.4-.6-.7-.9-.6M83.7 176.9c.3 0 .6-.3.9-.7.3-.3.2-.7-.1-1-.4-.3-.7-.6-.9-.5-.3.1-.6.4-.8.7-.3.3-.2.7.1 1 .3.3.5.5.8.5M83 179.7c.2.1.5-.1.8-.3.3-.2.6-.5.5-.7-.1-.2-.4-.5-.7-.8-.2-.2-.5-.4-.8-.4-.3 0-1 .8-1 .9.3.6.7 1.2 1.2 1.3M77 178.4c-.3-.3-.7-.3-1 0-.3.3-.6.6-.6.8.1.3.4.6.6.8.3.3.7.3 1 0 .3-.2.5-.5.6-.8.1-.2-.2-.5-.6-.8M75.8 181c-.2 0-.5.3-.9.6-.3.3-.3.7 0 .9.4.3.7.7 1 .6.3 0 .5-.3.7-.6.2-.3.2-.8-.1-1.1-.2-.2-.4-.4-.7-.4M94.3 175.7c-.3.4-.6.7-.5.9 0 .3.3.5.5.7.3.3.8.3 1.1 0 .3-.2.5-.4.5-.7 0-.3-.3-.6-.7-1-.2-.2-.6-.2-.9.1M89.8 189.1c-.3.2-.2.9-.1 1.4.1.2.2.3.4.5.3.2.7.2.9 0 .1-.2.2-.3.3-.5.1-.4.1-1.1-.1-1.3-.3-.3-1.2-.4-1.4-.1M72.4 176.1c.2.1.5-.2.9-.6.3-.3.3-.7 0-.9-.4-.3-.6-.6-1-.6-.3 0-1 .7-.9 1 .1.4.6 1 1 1.1M87.1 182c-.4 0-.7 0-.8.2-.6.7-.3 1.3.7 1.9.3.2.7 0 .7-.4 0-.3.1-.6.1-.9 0-.4-.3-.8-.7-.8M85.3 96.4c-1.2-1.9-2.1-2-3.3 0-1.6 2.8-3.1 5.5-4.6 8.4-.1.2-.1.4-.1.7 0 .4.1.8.2.8.1.1.5-.1.8-.3.6-.4 1.4-.8 1.4-1.2 0-2.7 1.7-4.6 2.9-6.8.1-.2.3-.4.6-.6.3-.2.7-.2 1 .1.5.7.9 1.2 1.2 1.8.6 1.3.9 2.9 2.8 3.1.2 0 .5.6.5.9-.1.3-.4.6-.8.7-1 .2-1.9.4-2.9.5-1.1.2-1.7.7-1.5 1.9.2 1.7.4 3.4.3 5.1-.2 2.1 1.2 3.1 2.4 4.5.3.3.7.3.9 0 .3-.4.6-.9 1-1.3.2-.3.1-.5-.3-.5-1.8 0-2.3-1.2-2.3-2.8 0-.8-.2-1.6-.2-2.5 0-2.6.6-3.1 3.1-2.4 1.7.5 3.5 1 5.1.1.9-.5 1.6-.4 2.4.2 1.9 1.3 3.9 1.9 6.2 1.6.7-.1 1.3-.1 2 0 .4 0 .6.1.5.3-.1.1-.1.5.1.9.4 1.1.9 2.2 1.2 3.3.2.7.3 1.8-.1 2.2-1.6 1.6-3.4 2.9-5.1 4.4-.8.7-1.5 1.6-2.3 2.5-.3.3-.4.7-.2.8.2.2.5.1.9-.1.5-.3 1-.6 1.4-1 .4-.4.7-1 1.2-1.3 2.1-1.3 4.3-2.5 6.4-3.8 1-.5 1.4-1.3 1.3-2.5 0-.4.1-.8.2-1.3.1-.4.4-.5.8-.3 1 .7 1.7 1.4 2.7 1.8 1.5.5 1.7 1.4 1 2.5-1.2 1.8-2.6 3.5-3.9 5.2-.6.9-1.2 1.9-1.8 2.8-.2.3-.3.7-.2.8.1.1.5.1.9 0s.8-.2 1.2-.2c.4-.1.6-.4.6-.8-.1-1.4.8-2.1 2-2.6.7-.3 1.4-.7 1.9-1.2.9-1 1.5-2.1 2.3-3.2.8-1.1 1.3-2 .1-3.3-2-2.4-1.8-3.5 0-6.1.8-1.1 1.3-2.4 1.5-3.8.3-2.1.7-2.4 2.8-1.9.7.2 1.5.2 2.3.2.4 0 .7 0 .7-.2 0-.1-.2-.4-.6-.7-.2-.1-.3-.3-.5-.4-.3-.3-.4-.7-.2-1.1.4-.6.7-1.1.9-1.5.2-.3.1-.5-.3-.3-1.1.6-1.5.6-1.9.1-.2-.3-.1-.8.3-1 .5-.3.9-.6 1.4-.9.3-.2.3-.5-.1-.6-.7-.2-1.3-.5-1.9-.7-.4-.1-.5-.5-.3-.8.8-.9 1.5-1.7 1.2-2.9-.1-.4-.4-.4-.5-.1-.1.2-.2.4-.3.5-.3.2-.5.4-.8.5-.3.2-.7.1-.8-.3-.1-.4-.1-.7 0-1 .5-.9 1.2-1.7 1.7-2.6.2-.3.4-.7.6-1.1.2-.4 0-.5-.3-.3-2.2 1.1-4.3 2.1-4.6 4.7 0 .4-.2.7-.3.6-.1-.1-.4-.4-.5-.7l-.3-.6c-.2-.3-.6-.4-.8-.1-.7 1-.2 2 .4 3 .8 1.3 1.8 2.5 2.6 3.8.7 1.3.6 2.4-.4 3.5-.3.3-.7.3-1 0-2.2-2.5-5.3-2.1-8.3-2-1.3.1-2.7.1-4 0-1.4-.1-2.4-.9-2.8-2.2-.4-1.5-.1-2.9 1.1-3.9 1.2-.9 2.2-.4 3.3.3 0 0 .1 0 .2-.1s.1-.4 0-.8c-.2-.7-.5-1.5-.8-2.4-.1-.4.1-.6.4-.4.6.2 1 .4 1.5.6.4.2.7.2.8.2.1-.1 0-.4-.2-.8-.4-.6-.7-1.2-1.1-1.9-.2-.4 0-.6.4-.5.3.1.5.1.8.1.4.1.5-.2.3-.5-.5-.7-1.2-1.2-1.7-1.8-.4-.5-.7-1.1-1-1.7-.2-.3-.1-.8.3-1 .5-.3 1-.5 1.5-.8.1 0 .1-.1.1-.1.1-.1-.2-.3-.6-.4-1.3-.4-2.5-.3-3.8.1-.6.2-1.2 0-1.9-.1-.4-.1-.6-.4-.5-.8.2-.5.4-1.1.5-1.6v-.2c-.1-.1-.4-.1-.7.1-2.7 1.4-4.9 4.1-8.6 3.6-.4-.1-.5.1-.2.4.1.2.2.3.3.4.2.3.2.7-.1.9-1.6 1.1-3.3 2.3-5.1 3.5-.3.2-.3.5.1.7 1.6.8 2.7 1.8 4.3.7.2-.1.6 0 1.2.2.4.1.5.4.3.8-.6.8-1 1.5-1.5 2.2-1 1.4-2 2.8-3.1 4.2-.3.4-.5.7-.8 1-.2.3-.7.4-1 .2-.7-.5-1.2-.8-1.5-1.3m13.2-13c1.4 0 2.3 1.1 2.7 3.1.5 2.9.2 5-.9 5.7-.3.2-.7-.1-.7-.5-.1-2.7.2-5.4-1.4-7.7-.2-.3-.1-.6.3-.6M78.8 76.3c-.4 0-.9-.1-1.3-.4-.2-.1-.4 0-.4.2l-.1.5c-.1.2 0 .3.1.4.4.3 1 .4 1.6.4 1.5 0 2.4-1 2.4-2.4 0-1.1-.5-1.9-1.7-2.4-.9-.4-1.2-.8-1.2-1.4 0-.5.3-1 1.1-1 .5 0 .8.1 1 .3.2.1.3 0 .4-.2l.1-.5c0-.2 0-.3-.2-.4-.2-.2-.6-.4-1.3-.4-1.3 0-2.2 1-2.2 2.3 0 1.1.6 1.8 1.8 2.4.9.4 1.1.8 1.1 1.4 0 .7-.5 1.2-1.2 1.2M81.6 70.3h1.7V77c0 .2.1.3.3.3h.5c.2 0 .3-.1.3-.3l.1-6.7h1.7c.2 0 .3-.1.3-.3v-.5c0-.2-.1-.3-.3-.3h-4.5c-.2 0-.3.2-.3.3v.5c-.1.2 0 .3.2.3M89.3 77.4c1.7 0 2.6-1.3 2.6-3.6v-4.4c0-.2-.2-.3-.3-.3h-.5c-.2 0-.3.1-.3.3V74c0 1.1-.3 2.4-1.4 2.4-.9 0-1.4-.8-1.4-2.4v-4.5c0-.2-.1-.3-.3-.3h-.5c-.2 0-.3.1-.3.3V74c-.1 3 1.5 3.4 2.4 3.4M92.7 70.3h1.7V77c0 .2.1.3.3.3h.5c.2 0 .3-.1.3-.3v-6.7h1.7c.2 0 .3-.1.3-.3v-.5c0-.2-.1-.3-.3-.3h-4.5c-.2 0-.3.2-.3.3v.5c0 .2.1.3.3.3M97.8 70.3h1.7V77c0 .2.1.3.3.3h.5c.2 0 .3-.1.3-.3v-6.7h1.7c.2 0 .3-.1.3-.3v-.5c0-.2-.1-.3-.3-.3h-4.5c-.2 0-.3.2-.3.3v.5c0 .2.2.3.3.3M103.4 76.3c.6.7 1.5 1.1 2.5 1.1.8 0 1.5-.2 1.9-.4.1-.1.2-.2.2-.4v-3.5c0-.2-.1-.3-.3-.3H106c-.2 0-.3.2-.3.3v.5c0 .2.1.3.3.3h1v2s0 .1-.1.1c-.2.1-.6.1-.9.1-1.5 0-2.4-1.2-2.4-3 0-1.9.9-3 2.5-3 .5 0 .9.1 1.2.2.2.1.3 0 .4-.2l.1-.5c.1-.2 0-.3-.2-.4-.2-.1-.7-.3-1.5-.3-2.2 0-3.6 1.7-3.7 4.2 0 1.4.4 2.5 1 3.2M108.9 77.3h.5c.2 0 .3-.1.4-.3l.6-2.1.1-.1h2s.1 0 .1.1l.6 2.1c.1.2.2.3.3.3h.6c.1 0 .2 0 .2-.1V77l-2.1-7.6c0-.2-.2-.3-.3-.3h-.7c-.2 0-.3.1-.4.3l-2.1 7.6v.2c0 .1.1.1.2.1m1.7-3.5.6-2.1c.1-.3.2-.6.2-.8 0 .3.1.5.2.9l.6 2.1-1.6-.1zM115.3 77.3h.5c.2 0 .3-.1.3-.3v-3.1h.6c.7 0 1 .4 1.2 1.4.2.9.3 1.5.4 1.7.1.2.2.3.4.3h.5c.1 0 .2 0 .2-.1s.1-.2 0-.3c-.1-.4-.3-1.1-.4-2-.1-.8-.4-1.3-.8-1.6.7-.4 1.1-1.1 1.1-2 0-.6-.2-1.2-.5-1.6-.5-.5-1-.7-2-.7-.5 0-1.1.1-1.5.2-.2 0-.3.2-.3.3V77c0 .2.1.3.3.3m.8-4.5v-2.6c.1 0 .3-.1.7-.1.6 0 1.4.2 1.4 1.3 0 .8-.5 1.4-1.3 1.4h-.8zM119.9 70.3h1.7V77c0 .2.1.3.3.3h.5c.2 0 .3-.1.3-.3v-6.7h1.7c.2 0 .3-.1.3-.3v-.5c0-.2-.1-.3-.3-.3h-4.5c-.2 0-.3.2-.3.3v.5c-.1.2.1.3.3.3" class="st0"/>
</svg>