<?xml version="1.0" encoding="utf-8"?>
<!-- Generator: Adobe Illustrator 25.2.1, SVG Export Plug-In . SVG Version: 6.00 Build 0)  -->
<svg version="1.1" id="Layer_1" xmlns="http://www.w3.org/2000/svg" xmlns:xlink="http://www.w3.org/1999/xlink" x="0px" y="0px"
	 viewBox="0 0 200 200" style="enable-background:new 0 0 200 200;" xml:space="preserve">
<g>
	<path d="M94.4,124.8c0.2-0.1,3.5-1.7,3.5-5.7c0-1.5-0.7-6.4-7.4-6.4H67.7v24.4c0,0,14.1,0.1,22.8,0c7.6-0.1,7.9-4.7,7.9-6.9
		C98.4,126.3,94.5,124.8,94.4,124.8 M75.1,117.6c0.2-0.1,8.6,0,13.4,0c1.4,0,2.7,0.9,2.7,2.5c0,1.8-1.2,2.6-2.5,2.6
		c-5.3,0-13.4,0.1-13.6,0V117.6z M88.8,132.1c-5.8,0-13.6,0.1-13.7,0v-5.3c0.2-0.1,9.2-0.1,13.6-0.1c1.5-0.1,3,1,3,2.7
		C91.7,131.3,90.2,132.1,88.8,132.1"/>
	<path d="M162.3,127.7c0.2,0,3.7-2.4,3.7-6.3c0-4.6-1.8-8.7-8.6-8.7h-21.8v24.4h7.3v-7.6c0.1,0,8.8,0.1,13.2,0
		c1.9-0.1,3.4,2,3.4,3.7v3.9h6.5v-3.8C166.1,129.7,162.3,127.7,162.3,127.7 M156.3,125c-5.3,0-13.3,0.1-13.4,0v-7.4
		c0.2-0.1,8.6,0,13.4,0c1.8,0,3,2.2,3,3.9C159.3,123.2,158.1,125,156.3,125"/>
	<path d="M111.4,112.7l-13.2,24.4h7.3l2.8-4.9h15.4l2.6,4.9h7.2l-13.2-24.4H111.4z M110.9,126.9l4.8-8.8l5,8.8H110.9z"/>
	<path d="M192.6,112.7c0.1,0.2,0,10.7-0.1,17.4c0,0.9-0.3,2.1-1.7,2.1h-12.7c-1.5,0-2.1-0.9-2.1-2c0-7.6-0.3-17.4-0.1-17.7h-7.2
		c-0.1,0.2-0.1,11.8,0,19.5c0.1,3.8,4,5,8.5,5c6.3,0,9.8,0.1,16.8,0c3.7-0.1,6.1-2,6.1-5c-0.1-6.7-0.1-19.4-0.1-19.4H192.6z"/>
	<path d="M26.1,121.9c-5.9-0.3-13-0.2-17.3-0.5c-2.4-0.1-2.4-4.7,0.2-4.7h13.4c1.8,0,1.8,2,1.8,2.1h6.7c-0.1-0.3,0.7-7.1-5.7-7.1
		H5.8c-3.2,0-5.5,1.9-5.5,4.3v5.2c0,3.3,3,4.9,7.1,5.1c6.1,0.2,9.7,0.3,14.6,0.6c4,0.2,3.4,5.2,0,5.3c-4.6,0.1-7.5,0-12.5,0
		c-2.9,0-2.8-2.9-2.8-2.9H0.1c-0.1,0.8-0.1,1.5,0,2.3c0.5,3.1,3.1,5.5,6.3,5.5h19.1c2.9,0,5.9-1.6,5.8-5c0,0-0.1-5-0.1-5.1
		C31.3,123.9,28.9,122.1,26.1,121.9"/>
	<path d="M57.6,112.7c0.1,0.2,0.1,10.7,0,17.4c0,0.9-0.3,2.1-1.7,2.1H43.1c-1.4,0-2.1-0.9-2.1-2c0-7.6-0.1-17.5,0-17.7h-7.3
		c-0.1,0.2,0,11.8,0.1,19.5c0.1,3.7,3.9,5,8.4,5c6.4,0,9.9,0.1,16.7,0c3.7-0.1,6.2-2,6.2-5c-0.1-6.7-0.1-19.4-0.1-19.4H57.6z"/>
	<path d="M77.3,69.2c-6.7,4-10.9,9.4-10.9,14.9c0,5.5,4.2,10.8,10.9,14.8c6.4,3.8,15.1,6.2,24.5,6.2c9.5,0,18.2-2.4,24.6-6.2
		c6.7-3.9,11-9.3,11-14.8c0-5.5-4.3-10.9-11-14.9c-6.4-3.8-15.1-6.3-24.6-6.3C92.3,62.9,83.7,65.4,77.3,69.2 M136.2,84
		c0,5.1-4,10.1-10.4,13.9c-6.3,3.7-14.8,6.1-24.1,6.1c-9.2,0-17.7-2.4-23.9-6.1c-6.4-3.8-10.4-8.8-10.4-13.9c0-5.1,4-10.2,10.4-14
		c6.3-3.7,14.7-6.1,23.9-6.1c9.2,0,17.8,2.4,24,6.1C132.2,73.8,136.2,78.9,136.2,84"/>
	<polygon points="88.7,68.4 85.4,76.7 70.8,79.9 85.4,83 88.9,91.8 92.3,83.2 108.1,79.9 92.2,76.4 	"/>
	<polygon points="106.7,84.6 100.5,85.9 106.7,87.3 108.3,91.1 109.7,87.5 116.4,85.9 109.7,84.6 108.1,81.1 	"/>
	<polygon points="124.8,81.1 123.2,84.6 117.1,85.9 123.2,87.3 124.8,91.1 126.2,87.5 132.9,85.9 126.2,84.6 	"/>
	<polygon points="120.4,80.9 121.8,77.1 128.6,75.7 121.8,74.3 120.3,70.8 118.9,74.3 112.6,75.7 118.9,77.1 	"/>
	<polygon points="114,89.4 112.5,92.9 106.4,94.3 112.5,95.6 114,99.3 115.6,95.6 122.4,94.3 115.4,92.7 	"/>
	<polygon points="96,90.4 94.6,94.1 88.3,95.5 94.6,96.7 96.2,100.5 97.5,96.9 104.3,95.5 97.5,93.9 	"/>
</g>
</svg>
