<?xml version="1.0" encoding="utf-8"?>
<!-- Generator: Adobe Illustrator 25.2.1, SVG Export Plug-In . SVG Version: 6.00 Build 0)  -->
<svg version="1.1" id="Layer_1" xmlns="http://www.w3.org/2000/svg" xmlns:xlink="http://www.w3.org/1999/xlink" x="0px" y="0px"
	 viewBox="0 0 200 200" style="enable-background:new 0 0 200 200;" xml:space="preserve">
<g>
	<path d="M135.4,164.7c-0.2-9.9-8.1-17.8-17.8-17.8c-9.9,0-17.8,7.9-17.8,17.8c0,9.7,7.9,17.7,17.8,17.8
		C127.2,182.3,135.2,174.4,135.4,164.7 M107.7,164.7c-0.2-6.2,4.2-11.3,9.8-11.2c5.3,0,9.7,5,9.8,11.2c-0.1,6.1-4.5,11.2-9.8,11.2
		C112,175.8,107.6,170.8,107.7,164.7"/>
	<polygon points="155.5,154.4 165.8,154.4 165.8,148.3 137.2,148.3 137.2,154.4 148,154.4 148,181.5 155.5,181.5 	"/>
	<path d="M174.7,174h13.6l2.8,7.5h8.9l-13.6-33.2h-9.3L163,181.5h8.9L174.7,174z M181.7,156.2l4.7,12.2h-4.7H177L181.7,156.2z"/>
	<polygon points="10.3,181.5 17.8,181.5 17.8,154.4 28.1,154.4 28.1,148.3 0,148.3 0,154.4 10.3,154.4 	"/>
	<path d="M65.6,164.7c-0.1-9.9-8.1-17.8-17.8-17.8c-9.8,0-17.8,7.9-17.8,17.8c0,9.7,7.9,17.7,17.8,17.8
		C57.5,182.3,65.4,174.4,65.6,164.7 M38,164.7c-0.1-6.2,4.3-11.3,9.8-11.2c5.4,0,9.8,5,9.8,11.2c0,6.1-4.4,11.2-9.8,11.2
		C42.3,175.8,37.8,170.8,38,164.7"/>
	<polygon points="82.4,181.5 86.2,181.5 86.2,168.9 99.3,148.3 90.9,148.3 82.4,162.3 74.5,148.3 65.6,148.3 78.7,168.9 78.7,181.5 
			"/>
	<path d="M98,132.6c50.7,0,91.9-25.8,91.9-57.5c0-31.7-41.3-57.6-91.9-57.6c-50.7,0-92,25.8-92,57.6C6.1,106.8,47.3,132.6,98,132.6
		 M98,20.4c49.1,0,89.1,24.5,89.1,54.7c0,30.2-40,54.7-89.1,54.7c-49.2,0-89.1-24.5-89.1-54.7C8.9,44.9,48.9,20.4,98,20.4"/>
	<path d="M75.6,60.2l1.4,0.2l0.2-1.4c2.2-13.2,6.9-23.6,13-28.5l3.5-2.8L89.3,28c-21.5,1.3-37.2,7-39.8,14.5
		c-0.3,0.8-0.4,1.6-0.4,2.4c0,1.3,0.4,2.5,1.1,3.7C53.1,53.7,62.4,57.9,75.6,60.2 M52.2,43.5c2-5.7,15.8-10.8,33.5-12.4
		c-5,5.7-8.9,14.9-10.9,26C63.3,55,55,51.3,52.6,47.2c-0.4-0.8-0.7-1.6-0.7-2.3C51.9,44.4,52,44,52.2,43.5"/>
	<path d="M85.4,59.9l-0.3,1.5l1.6,0.1c3.7,0.3,7.5,0.4,11.4,0.4c3.8,0,7.6-0.2,11.3-0.4l1.5-0.1l-0.3-1.5
		c-2.1-11.9-6.8-19.1-12.6-19.1C92.2,40.8,87.5,47.9,85.4,59.9 M98,43.6c3.9,0,7.6,5.9,9.5,15.2c-3.1,0.2-6.3,0.3-9.5,0.3
		c-3.2,0-6.4-0.1-9.5-0.3C90.4,49.5,94.1,43.6,98,43.6"/>
	<path d="M118.8,59l0.2,1.4l1.4-0.2c13.2-2.2,22.5-6.4,25.5-11.5c1.2-2,1.4-4.1,0.7-6.1c-2.7-7.5-18.3-13.2-39.8-14.5l-4.4-0.3
		l3.5,2.8C111.8,35.4,116.6,45.8,118.8,59 M143.9,43.5c0.2,0.5,0.3,1,0.3,1.4c0,0.8-0.2,1.5-0.7,2.3c-2.4,4.1-10.7,7.8-22.2,9.9
		c-2-11.1-5.9-20.3-10.9-26C128,32.7,141.8,37.8,143.9,43.5"/>
	<path d="M88.6,122.7l4.3,0.3l-3.3-2.8c-8.4-7.2-13.6-24.3-13.6-44.6l0.1-4.8l-1.2-0.2c-20.2-3.6-34.6-12.1-36.7-21.7l-0.5-2.3
		l-1.8,1.5c-9.7,8.1-14.8,17.7-14.8,27.8C21.1,99.7,50.1,119.8,88.6,122.7 M36.1,51.7c3.7,9.6,17.5,17.6,37,21.4c0,1.1,0,2.5,0,2.5
		c0,18.9,4.5,35.1,11.9,43.9c-35.1-3.7-61.1-22.1-61.1-43.6C23.9,67.2,28.1,58.9,36.1,51.7"/>
	<path d="M111.8,73.9l0-2.1l-1.5,0.1c-4,0.3-8.1,0.5-12.2,0.5c-4.1,0-8.3-0.2-12.2-0.5l-1.5-0.1l0,1.5v0.5
		c0,18.9,5.9,33.1,13.8,33.1C105.9,107.1,111.8,92.8,111.8,73.9 M98,104.2c-5.2,0-10.7-11.8-11-29.3c3.6,0.3,7.3,0.4,11,0.4
		c3.7,0,7.3-0.2,10.9-0.4C108.7,92.5,103.2,104.2,98,104.2"/>
	<path d="M120,70.7l0.1,4.8c0,20.3-5.2,37.4-13.6,44.6l-3.3,2.8l4.3-0.3c38.5-2.9,67.5-23,67.5-46.8c0-10.1-5.1-19.8-14.8-27.8
		l-1.8-1.5l-0.5,2.3c-2,9.5-16.4,18-36.7,21.7L120,70.7z M159.9,51.7c8,7.2,12.2,15.6,12.2,24.2c0,21.5-26,39.8-61,43.6
		c7.4-8.8,11.8-25.1,11.8-43.9c0,0,0-1.4,0-2.5C142.4,69.3,156.2,61.3,159.9,51.7"/>
</g>
</svg>
