<?xml version="1.0" encoding="utf-8"?>
<!-- Generator: Adobe Illustrator 25.2.1, SVG Export Plug-In . SVG Version: 6.00 Build 0)  -->
<svg version="1.1" id="Layer_1" xmlns="http://www.w3.org/2000/svg" xmlns:xlink="http://www.w3.org/1999/xlink" x="0px" y="0px"
	 viewBox="0 0 200 200" style="enable-background:new 0 0 200 200;" xml:space="preserve">
<g>
	<path d="M119.2,27.5c-6.1-1.6-12.6-2.5-19.2-2.5c-6.5,0-12.8,0.9-18.7,2.4l19,52.4L119.2,27.5z"/>
	<path d="M174.9,100c0-9.3-1.6-18.3-4.7-26.5l-35.6,93C158.5,154,174.9,128.9,174.9,100"/>
	<path d="M137.7,35.2l-22,60.4h-9.7H94.6h-9.7L62.8,35c-8.2,4.7-15.3,10.8-21.2,18.1l31.3,81.2l11.5-29.7h8.8h12.4h8.8l11.5,29.7
		l31.6-82.2C152,45.4,145.3,39.7,137.7,35.2"/>
	<path d="M100,0C45,0,0,44.9,0,100.1C0,155,45,200,100,200c55.1,0,100-45,100-99.9C200,44.9,155.1,0,100,0 M100,187.2
		c-48,0-87.3-39.2-87.3-87.2c0-48.1,39.2-87.3,87.3-87.3c48,0,87.3,39.2,87.3,87.3C187.3,148,148.1,187.2,100,187.2"/>
	<path d="M99.4,120.5l-19.3,50.1l-0.1,1.6c6.4,1.8,13.1,2.7,20.1,2.7c6.5,0,12.9-0.8,18.9-2.4l-0.2-1.9L99.4,120.5z"/>
	<path d="M25.1,100c0,28.2,15.7,52.9,39,65.6L29.4,75.1C26.6,82.9,25.1,91.3,25.1,100"/>
</g>
</svg>
