<?xml version="1.0" encoding="utf-8"?>
<!-- Generator: Adobe Illustrator 25.2.1, SVG Export Plug-In . SVG Version: 6.00 Build 0)  -->
<svg version="1.1" id="Layer_1" xmlns="http://www.w3.org/2000/svg" xmlns:xlink="http://www.w3.org/1999/xlink" x="0px" y="0px"
	 viewBox="0 0 200 200" style="enable-background:new 0 0 200 200;" xml:space="preserve">
<g>
	<path d="M185.5,82.8c-0.5-0.4-1.1-0.5-1.7-0.5h-7.2c-2.1-6.5-5-12.8-8.8-18.7l12.1-11.5l7.9,9.2c0.8,0.9,2,1.2,3.1,0.8
		c1.1-0.4,1.8-1.5,1.8-2.6l-0.6-42.6c0-0.8-0.3-1.5-0.9-2c-0.5-0.6-1.3-0.8-2-0.8l-44,2.5c-1.2,0.1-2.2,0.9-2.5,2
		c-0.3,1.1,0.1,2.3,1,3l10.5,7.6l-10.5,10.2c-13.1-8.4-28.2-12.8-43.8-12.8c-35.9,0-66.4,23.4-76.7,55.6h-6.4c-0.5,0-1,0.1-1.5,0.4
		C14.6,83,0.4,92.5,0,106.4c-0.2,8.6,4.8,16.8,15.1,24.3c0.5,0.3,1.1,0.5,1.6,0.5h6.7C34,163,64.3,185.9,99.9,185.9
		c35.6,0,65.8-23,76.4-54.7h7.6c0.6,0,1.1-0.2,1.6-0.5c0.6-0.4,14.3-10.1,14.6-24.1C200.2,98.1,195.3,90.1,185.5,82.8 M99.9,32.1
		c15.3,0,30,4.5,42.6,13.1c1.1,0.8,2.5,0.6,3.5-0.3l14.5-14.1c0.6-0.6,0.9-1.3,0.8-2.2c-0.1-0.8-0.5-1.6-1.1-2l-6.9-5l33.4-1.9
		l0.4,32.1l-4.8-5.7c-0.5-0.5-1.2-0.9-2-0.9c-0.8,0-1.5,0.2-2,0.8l-15.9,15c-1,0.9-1.2,2.4-0.4,3.5c3.8,5.5,6.7,11.4,8.8,17.5h-20.7
		c-8.8-18.8-27.8-31.8-49.8-31.8c-22,0-41,13-49.8,31.8H29C39.1,53.1,67.1,32.1,99.9,32.1 M143.9,82.2H56.7
		C65,66.6,81.5,56,100.3,56C119.1,56,135.5,66.6,143.9,82.2 M99.9,180.4c-32.5,0-60.2-20.6-70.6-49.2h22.3
		c9.2,17.6,27.6,29.7,48.7,29.7c21.2,0,39.6-12.1,48.8-29.7h21.4C160.1,159.8,132.4,180.4,99.9,180.4 M57.9,131.2h84.8
		c-8.7,14.4-24.4,24.1-42.4,24.1C82.3,155.3,66.5,145.7,57.9,131.2 M182.9,125.7h-5h-5.7h-20.7h-6H55h-6H27.5h-5.8h-4.2
		c-8.2-6.2-12.3-12.6-12.1-19.1c0.2-9.6,9.5-16.9,12-18.8h4h5.7h21h5.9h92.3h5.9h20.1h5.7h4.8c7.8,6,11.6,12.3,11.5,18.8
		C194.3,116.1,185.5,123.7,182.9,125.7"/>
	<polygon points="56.4,96.5 51.7,96.5 46.1,96.5 40.4,96.5 40.4,99.6 44.7,99.6 37.3,113.2 29.3,99.6 35.1,99.6 35.1,96.5 
		25.6,96.5 20,96.5 12,96.5 12,99.6 17.3,99.6 19.4,103.5 25.4,114.5 27.8,118.8 40.6,118.8 45.5,109.9 51,99.6 51.2,99.6 
		56.4,99.6 	"/>
	<path d="M70.7,95.8c-9.1,0-16.4,5.3-16.4,11.8c0,6.5,7.3,11.8,16.4,11.8c9.1,0,16.4-5.3,16.4-11.8C87.1,101.1,79.8,95.8,70.7,95.8
		 M70.5,115.9c-2.4,0-4.3-3.8-4.3-8.5c0-4.7,1.9-8.5,4.3-8.5c2.4,0,4.3,3.8,4.3,8.5C74.8,112.1,72.9,115.9,70.5,115.9"/>
	<path d="M174.1,95.8c-0.1,0-0.2,0-0.3,0c-9.1,0-16.4,5.3-16.4,11.8c0,6.5,7.3,11.8,16.3,11.8h0.1c2,0,3.9-0.3,5.6-0.7
		c6.3-1.7,10.8-6,10.8-11.1c0-5-4.3-9.3-10.4-11C178,96.1,176.1,95.8,174.1,95.8 M174.2,115.8c-0.2,0.1-0.4,0.1-0.7,0.1
		c-2.4,0-4.3-3.8-4.3-8.5c0-4.7,1.9-8.5,4.3-8.5c0.3,0,0.7,0.1,1,0.2c1.9,0.8,3.3,4.3,3.3,8.3C177.8,111.6,176.2,115.1,174.2,115.8"
		/>
	<path d="M110.1,115.3h-5.5V99.6l5.3,0v-3.1H88.7v3.2H94v15.7h-5.6v3.5l5.6,0h26.6v-10.4h-3.5C117,113.9,112.1,115.3,110.1,115.3"/>
	<polygon points="159.3,96.5 154.5,96.5 148.9,96.5 143.4,96.5 143.4,99.6 147.6,99.6 140.2,113.2 132.3,99.6 138.1,99.6 
		138.1,96.5 114.9,96.5 114.9,99.6 120.3,99.6 130.7,118.8 143.5,118.8 149.7,107.5 154,99.6 154.9,99.6 159.3,99.6 	"/>
</g>
</svg>
