<svg xmlns="http://www.w3.org/2000/svg" xml:space="preserve" version="1.1" viewBox="0 0 242 128.2">
  <path fill="#181c32" d="M84.6 49.4c-9 20.4-21.2 35.4-47 20.5l-1.4-.9L0 6.7c14.6-8.8 33.4-8.5 48.6-1.4 7.2 2.9 13.1 8 18.5 14.7l.1.1.3.3.2.2.3.4.2.3.2.3.3.5.5.7.4.6.4.6.4.6.4.7.4.7.8 1.2.5.8.5 1 .5.9.7 1.2.5.9 1.1 2 .8 1.4" class="logoshape1"/>
  <path fill="#181c32" d="M215.2 77.3c1.7-3.1 3.4-6 4.8-8.5C167 102.4 171.4 1 128 .2v.1c-43.4.8-38.9 102.1-91.9 68.5 1.4 2.5 3.1 5.5 4.8 8.6 23.1 40.5 47 78.6 74.5 22.7 3.8-7.2 6.5-21.2 12.6-21.2s8.9 13.9 12.6 21.1c27.5 55.9 51.4 17.8 74.6-22.7" class="logoshape2"/>
  <path fill="#fff" d="M218 .2c-13.3 0-24 10.7-24 24s10.7 24 24 24 24-10.7 24-24-10.7-24-24-24"/>
</svg>